<?xml version="1.0" encoding="utf-8" standalone="no"?>
<!DOCTYPE svg PUBLIC "-//W3C//DTD SVG 1.1//EN"
  "http://www.w3.org/Graphics/SVG/1.1/DTD/svg11.dtd">
<svg xmlns:xlink="http://www.w3.org/1999/xlink" width="504pt" height="302.4pt" viewBox="0 0 504 302.4" xmlns="http://www.w3.org/2000/svg" version="1.1">
 <metadata>
  <rdf:RDF xmlns:dc="http://purl.org/dc/elements/1.1/" xmlns:cc="http://creativecommons.org/ns#" xmlns:rdf="http://www.w3.org/1999/02/22-rdf-syntax-ns#">
   <cc:Work>
    <dc:type rdf:resource="http://purl.org/dc/dcmitype/StillImage"/>
    <dc:date>2026-05-24T22:15:23.529637</dc:date>
    <dc:format>image/svg+xml</dc:format>
    <dc:creator>
     <cc:Agent>
      <dc:title>Matplotlib v3.10.9, https://matplotlib.org/</dc:title>
     </cc:Agent>
    </dc:creator>
   </cc:Work>
  </rdf:RDF>
 </metadata>
 <defs>
  <style type="text/css">*{stroke-linejoin: round; stroke-linecap: butt}</style>
 </defs>
 <g id="figure_1">
  <g id="patch_1">
   <path d="M 0 302.4 
L 504 302.4 
L 504 0 
L 0 0 
z
" style="fill: #ffffff"/>
  </g>
  <g id="axes_1">
   <g id="patch_2">
    <path d="M 47.81 260.44 
L 493.2 260.44 
L 493.2 25.44 
L 47.81 25.44 
z
" style="fill: #ffffff"/>
   </g>
   <g id="FillBetweenPolyCollection_1">
    <defs>
     <path id="me4a517c5b3" d="M 68.055 -52.641824 
L 68.055 -52.641818 
L 69.069787 -52.641818 
L 70.084574 -52.641818 
L 71.099361 -52.641818 
L 72.114148 -52.641818 
L 73.128935 -52.641818 
L 74.143722 -52.641818 
L 75.158509 -52.641818 
L 76.173296 -52.641818 
L 77.188083 -52.641818 
L 78.20287 -52.641818 
L 79.217657 -52.641818 
L 80.232444 -52.641818 
L 81.247231 -52.641818 
L 82.262018 -52.641818 
L 83.276805 -52.641818 
L 84.291591 -52.641818 
L 85.306378 -52.641818 
L 86.321165 -52.641818 
L 87.335952 -52.641818 
L 88.350739 -52.641818 
L 89.365526 -52.641818 
L 90.380313 -52.641818 
L 91.3951 -52.641818 
L 92.409887 -52.641818 
L 93.424674 -52.641818 
L 94.439461 -52.641818 
L 95.454248 -52.641818 
L 96.469035 -52.641818 
L 97.483822 -52.641818 
L 98.498609 -52.641818 
L 99.513396 -52.641818 
L 100.528183 -52.641818 
L 101.54297 -52.641818 
L 102.557757 -52.641818 
L 103.572544 -52.641818 
L 104.587331 -52.641818 
L 105.602118 -52.641818 
L 106.616905 -52.641818 
L 107.631692 -52.641818 
L 108.646479 -52.641818 
L 109.661266 -52.641818 
L 110.676053 -52.641818 
L 111.69084 -52.641818 
L 112.705627 -52.641818 
L 113.720414 -52.641818 
L 114.735201 -52.641818 
L 115.749987 -52.641818 
L 116.764774 -52.641818 
L 117.779561 -52.641818 
L 118.794348 -52.641818 
L 119.809135 -52.641818 
L 120.823922 -52.641818 
L 121.838709 -52.641818 
L 122.853496 -52.641818 
L 123.868283 -52.641818 
L 124.88307 -52.641818 
L 125.897857 -52.641818 
L 126.912644 -52.641818 
L 127.927431 -52.641818 
L 128.942218 -52.641818 
L 129.957005 -52.641818 
L 130.971792 -52.641818 
L 131.986579 -52.641818 
L 133.001366 -52.641818 
L 134.016153 -52.641818 
L 135.03094 -52.641818 
L 136.045727 -52.641818 
L 137.060514 -52.641818 
L 138.075301 -52.641818 
L 139.090088 -52.641818 
L 140.104875 -52.641818 
L 141.119662 -52.641818 
L 142.134449 -52.641818 
L 143.149236 -52.641818 
L 144.164023 -52.641818 
L 145.17881 -52.641818 
L 146.193596 -52.641818 
L 147.208383 -52.641818 
L 148.22317 -52.641818 
L 149.237957 -52.641818 
L 150.252744 -52.641818 
L 151.267531 -52.641818 
L 152.282318 -52.641818 
L 153.297105 -52.641818 
L 154.311892 -52.641818 
L 155.326679 -52.641818 
L 156.341466 -52.641818 
L 157.356253 -52.641818 
L 158.37104 -52.641818 
L 159.385827 -52.641818 
L 160.400614 -52.641818 
L 161.415401 -52.641818 
L 162.430188 -52.641818 
L 163.444975 -52.641818 
L 164.459762 -52.641818 
L 165.474549 -52.641818 
L 166.489336 -52.641818 
L 167.504123 -52.641818 
L 168.51891 -52.641818 
L 169.533697 -52.641818 
L 170.548484 -52.641818 
L 171.563271 -52.641818 
L 172.578058 -52.641818 
L 173.592845 -52.641818 
L 174.607632 -52.641818 
L 175.622419 -52.641818 
L 176.637206 -52.641818 
L 177.651992 -52.641818 
L 178.666779 -52.641818 
L 179.681566 -52.641818 
L 180.696353 -52.641818 
L 181.71114 -52.641818 
L 182.725927 -52.641818 
L 183.740714 -52.641818 
L 184.755501 -52.641818 
L 185.770288 -52.641818 
L 186.785075 -52.641818 
L 187.799862 -52.641818 
L 188.814649 -52.641818 
L 189.829436 -52.641818 
L 190.844223 -52.641818 
L 191.85901 -52.641818 
L 192.873797 -52.641818 
L 193.888584 -52.641818 
L 194.903371 -52.641818 
L 195.918158 -52.641818 
L 196.932945 -52.641818 
L 197.947732 -52.641818 
L 198.962519 -52.641818 
L 199.977306 -52.641818 
L 200.992093 -52.641818 
L 202.00688 -52.641818 
L 203.021667 -52.641818 
L 204.036454 -52.641818 
L 205.051241 -52.641818 
L 206.066028 -52.641818 
L 207.080815 -52.641818 
L 208.095602 -52.641818 
L 209.110388 -52.641818 
L 210.125175 -52.641818 
L 211.139962 -52.641818 
L 212.154749 -52.641818 
L 213.169536 -52.641818 
L 214.184323 -52.641818 
L 215.19911 -52.641818 
L 216.213897 -52.641818 
L 217.228684 -52.641818 
L 218.243471 -52.641818 
L 219.258258 -52.641818 
L 220.273045 -52.641818 
L 221.287832 -52.641818 
L 222.302619 -52.641818 
L 223.317406 -52.641818 
L 224.332193 -52.641818 
L 225.34698 -52.641818 
L 226.361767 -52.641818 
L 227.376554 -52.641818 
L 228.391341 -52.641818 
L 229.406128 -52.641818 
L 230.420915 -52.641818 
L 231.435702 -52.641818 
L 232.450489 -52.641818 
L 233.465276 -52.641818 
L 234.480063 -52.641818 
L 235.49485 -52.641818 
L 236.509637 -52.641818 
L 237.524424 -52.641818 
L 238.539211 -52.641818 
L 239.553997 -52.641818 
L 240.568784 -52.641818 
L 241.583571 -52.641818 
L 242.598358 -52.641818 
L 243.613145 -52.641818 
L 244.627932 -52.641818 
L 245.642719 -52.641818 
L 246.657506 -52.641818 
L 247.672293 -52.641818 
L 248.68708 -52.641818 
L 249.701867 -52.641818 
L 250.716654 -52.641818 
L 251.731441 -52.641818 
L 252.746228 -52.641818 
L 253.761015 -52.641818 
L 254.775802 -52.641818 
L 255.790589 -52.641818 
L 256.805376 -52.641818 
L 257.820163 -52.641818 
L 258.83495 -52.641818 
L 259.849737 -52.641818 
L 260.864524 -52.641818 
L 261.879311 -52.641818 
L 262.894098 -52.641818 
L 263.908885 -52.641818 
L 264.923672 -52.641818 
L 265.938459 -52.641818 
L 266.953246 -52.641818 
L 267.968033 -52.641818 
L 268.98282 -52.641818 
L 269.997607 -52.641818 
L 271.012393 -52.641818 
L 272.02718 -52.641818 
L 273.041967 -52.641818 
L 274.056754 -52.641818 
L 275.071541 -52.641818 
L 276.086328 -52.641818 
L 277.101115 -52.641818 
L 278.115902 -52.641818 
L 279.130689 -52.641818 
L 280.145476 -52.641818 
L 281.160263 -52.641818 
L 282.17505 -52.641818 
L 283.189837 -52.641818 
L 284.204624 -52.641818 
L 285.219411 -52.641818 
L 286.234198 -52.641818 
L 287.248985 -52.641818 
L 288.263772 -52.641818 
L 289.278559 -52.641818 
L 290.293346 -52.641818 
L 291.308133 -52.641818 
L 292.32292 -52.641818 
L 293.337707 -52.641818 
L 294.352494 -52.641818 
L 295.367281 -52.641818 
L 296.382068 -52.641818 
L 297.396855 -52.641818 
L 298.411642 -52.641818 
L 299.426429 -52.641818 
L 300.441216 -52.641818 
L 301.456003 -52.641818 
L 302.470789 -52.641818 
L 303.485576 -52.641818 
L 304.500363 -52.641818 
L 305.51515 -52.641818 
L 306.529937 -52.641818 
L 307.544724 -52.641818 
L 308.559511 -52.641818 
L 309.574298 -52.641818 
L 310.589085 -52.641818 
L 311.603872 -52.641818 
L 312.618659 -52.641818 
L 313.633446 -52.641818 
L 314.648233 -52.641818 
L 315.66302 -52.641818 
L 316.677807 -52.641818 
L 317.692594 -52.641818 
L 318.707381 -52.641818 
L 319.722168 -52.641818 
L 320.736955 -52.641818 
L 321.751742 -52.641818 
L 322.766529 -52.641818 
L 323.781316 -52.641818 
L 324.796103 -52.641818 
L 325.81089 -52.641818 
L 326.825677 -52.641818 
L 327.840464 -52.641818 
L 328.855251 -52.641818 
L 329.870038 -52.641818 
L 330.884825 -52.641818 
L 331.899612 -52.641818 
L 332.914398 -52.641818 
L 333.929185 -52.641818 
L 334.943972 -52.641818 
L 335.958759 -52.641818 
L 336.973546 -52.641818 
L 337.988333 -52.641818 
L 339.00312 -52.641818 
L 340.017907 -52.641818 
L 341.032694 -52.641818 
L 342.047481 -52.641818 
L 343.062268 -52.641818 
L 344.077055 -52.641818 
L 345.091842 -52.641818 
L 346.106629 -52.641818 
L 347.121416 -52.641818 
L 348.136203 -52.641818 
L 349.15099 -52.641818 
L 350.165777 -52.641818 
L 351.180564 -52.641818 
L 352.195351 -52.641818 
L 353.210138 -52.641818 
L 354.224925 -52.641818 
L 355.239712 -52.641818 
L 356.254499 -52.641818 
L 357.269286 -52.641818 
L 358.284073 -52.641818 
L 359.29886 -52.641818 
L 360.313647 -52.641818 
L 361.328434 -52.641818 
L 362.343221 -52.641818 
L 363.358008 -52.641818 
L 364.372794 -52.641818 
L 365.387581 -52.641818 
L 366.402368 -52.641818 
L 367.417155 -52.641818 
L 368.431942 -52.641818 
L 369.446729 -52.641818 
L 370.461516 -52.641818 
L 371.476303 -52.641818 
L 372.49109 -52.641818 
L 373.505877 -52.641818 
L 374.520664 -52.641818 
L 375.535451 -52.641818 
L 376.550238 -52.641818 
L 377.565025 -52.641818 
L 378.579812 -52.641818 
L 379.594599 -52.641818 
L 380.609386 -52.641818 
L 381.624173 -52.641818 
L 382.63896 -52.641818 
L 383.653747 -52.641818 
L 384.668534 -52.641818 
L 385.683321 -52.641818 
L 386.698108 -52.641818 
L 387.712895 -52.641818 
L 388.727682 -52.641818 
L 389.742469 -52.641818 
L 390.757256 -52.641818 
L 391.772043 -52.641818 
L 392.78683 -52.641818 
L 393.801617 -52.641818 
L 394.816404 -52.641818 
L 395.83119 -52.641818 
L 396.845977 -52.641818 
L 397.860764 -52.641818 
L 398.875551 -52.641818 
L 399.890338 -52.641818 
L 400.905125 -52.641818 
L 401.919912 -52.641818 
L 402.934699 -52.641818 
L 403.949486 -52.641818 
L 404.964273 -52.641818 
L 405.97906 -52.641818 
L 406.993847 -52.641818 
L 408.008634 -52.641818 
L 409.023421 -52.641818 
L 410.038208 -52.641818 
L 411.052995 -52.641818 
L 412.067782 -52.641818 
L 413.082569 -52.641818 
L 414.097356 -52.641818 
L 415.112143 -52.641818 
L 416.12693 -52.641818 
L 417.141717 -52.641818 
L 418.156504 -52.641818 
L 419.171291 -52.641818 
L 420.186078 -52.641818 
L 421.200865 -52.641818 
L 422.215652 -52.641818 
L 423.230439 -52.641818 
L 424.245226 -52.641818 
L 425.260013 -52.641818 
L 426.274799 -52.641818 
L 427.289586 -52.641818 
L 428.304373 -52.641818 
L 429.31916 -52.641818 
L 430.333947 -52.641818 
L 431.348734 -52.641818 
L 432.363521 -52.641818 
L 433.378308 -52.641818 
L 434.393095 -52.641818 
L 435.407882 -52.641818 
L 436.422669 -52.641818 
L 437.437456 -52.641818 
L 438.452243 -52.641818 
L 439.46703 -52.641818 
L 440.481817 -52.641818 
L 441.496604 -52.641818 
L 442.511391 -52.641818 
L 443.526178 -52.641818 
L 444.540965 -52.641818 
L 445.555752 -52.641818 
L 446.570539 -52.641818 
L 447.585326 -52.641818 
L 448.600113 -52.641818 
L 449.6149 -52.641818 
L 450.629687 -52.641818 
L 451.644474 -52.641818 
L 452.659261 -52.641818 
L 453.674048 -52.641818 
L 454.688835 -52.641818 
L 455.703622 -52.641818 
L 456.718409 -52.641818 
L 457.733195 -52.641818 
L 458.747982 -52.641818 
L 459.762769 -52.641818 
L 460.777556 -52.641818 
L 461.792343 -52.641818 
L 462.80713 -52.641818 
L 463.821917 -52.641818 
L 464.836704 -52.641818 
L 465.851491 -52.641818 
L 466.866278 -52.641818 
L 467.881065 -52.641818 
L 468.895852 -52.641818 
L 469.910639 -52.641818 
L 470.925426 -52.641818 
L 471.940213 -52.641818 
L 472.955 -52.641818 
L 472.955 -52.641823 
L 472.955 -52.641823 
L 471.940213 -52.641827 
L 470.925426 -52.641834 
L 469.910639 -52.641846 
L 468.895852 -52.641865 
L 467.881065 -52.641896 
L 466.866278 -52.641946 
L 465.851491 -52.642025 
L 464.836704 -52.642149 
L 463.821917 -52.642338 
L 462.80713 -52.642623 
L 461.792343 -52.643046 
L 460.777556 -52.643663 
L 459.762769 -52.64455 
L 458.747982 -52.645803 
L 457.733195 -52.647545 
L 456.718409 -52.649926 
L 455.703622 -52.65313 
L 454.688835 -52.657367 
L 453.674048 -52.66288 
L 452.659261 -52.669929 
L 451.644474 -52.678793 
L 450.629687 -52.689745 
L 449.6149 -52.703043 
L 448.600113 -52.718902 
L 447.585326 -52.737472 
L 446.570539 -52.758814 
L 445.555752 -52.782872 
L 444.540965 -52.809452 
L 443.526178 -52.83821 
L 442.511391 -52.868642 
L 441.496604 -52.900091 
L 440.481817 -52.931763 
L 439.46703 -52.96276 
L 438.452243 -52.992119 
L 437.437456 -53.018865 
L 436.422669 -53.042072 
L 435.407882 -53.060927 
L 434.393095 -53.074783 
L 433.378308 -53.083218 
L 432.363521 -53.086076 
L 431.348734 -53.083486 
L 430.333947 -53.075883 
L 429.31916 -53.063986 
L 428.304373 -53.048781 
L 427.289586 -53.031472 
L 426.274799 -53.013428 
L 425.260013 -52.996121 
L 424.245226 -52.981057 
L 423.230439 -52.969711 
L 422.215652 -52.963456 
L 421.200865 -52.963511 
L 420.186078 -52.97089 
L 419.171291 -52.986361 
L 418.156504 -53.010414 
L 417.141717 -53.043244 
L 416.12693 -53.084742 
L 415.112143 -53.134495 
L 414.097356 -53.191795 
L 413.082569 -53.255661 
L 412.067782 -53.32487 
L 411.052995 -53.397996 
L 410.038208 -53.473459 
L 409.023421 -53.549593 
L 408.008634 -53.624705 
L 406.993847 -53.697162 
L 405.97906 -53.765469 
L 404.964273 -53.828356 
L 403.949486 -53.884859 
L 402.934699 -53.934403 
L 401.919912 -53.976858 
L 400.905125 -54.012594 
L 399.890338 -54.042505 
L 398.875551 -54.068008 
L 397.860764 -54.09102 
L 396.845977 -54.113904 
L 395.83119 -54.139393 
L 394.816404 -54.170494 
L 393.801617 -54.210374 
L 392.78683 -54.262239 
L 391.772043 -54.329218 
L 390.757256 -54.414242 
L 389.742469 -54.519943 
L 388.727682 -54.648561 
L 387.712895 -54.801873 
L 386.698108 -54.981138 
L 385.683321 -55.187061 
L 384.668534 -55.419783 
L 383.653747 -55.678875 
L 382.63896 -55.963373 
L 381.624173 -56.271812 
L 380.609386 -56.6023 
L 379.594599 -56.952598 
L 378.579812 -57.320234 
L 377.565025 -57.702617 
L 376.550238 -58.097182 
L 375.535451 -58.501514 
L 374.520664 -58.913486 
L 373.505877 -59.33136 
L 372.49109 -59.753876 
L 371.476303 -60.180294 
L 370.461516 -60.610409 
L 369.446729 -61.044527 
L 368.431942 -61.483419 
L 367.417155 -61.92826 
L 366.402368 -62.380571 
L 365.387581 -62.842173 
L 364.372794 -63.315165 
L 363.358008 -63.801935 
L 362.343221 -64.305192 
L 361.328434 -64.82801 
L 360.313647 -65.373876 
L 359.29886 -65.946708 
L 358.284073 -66.550835 
L 357.269286 -67.190917 
L 356.254499 -67.871804 
L 355.239712 -68.598322 
L 354.224925 -69.375033 
L 353.210138 -70.205953 
L 352.195351 -71.094298 
L 351.180564 -72.042267 
L 350.165777 -73.050904 
L 349.15099 -74.120061 
L 348.136203 -75.248459 
L 347.121416 -76.433864 
L 346.106629 -77.673331 
L 345.091842 -78.963504 
L 344.077055 -80.300918 
L 343.062268 -81.682278 
L 342.047481 -83.104665 
L 341.032694 -84.565661 
L 340.017907 -86.063378 
L 339.00312 -87.596404 
L 337.988333 -89.163688 
L 336.973546 -90.764393 
L 335.958759 -92.397765 
L 334.943972 -94.063037 
L 333.929185 -95.759399 
L 332.914398 -97.486038 
L 331.899612 -99.242245 
L 330.884825 -101.027561 
L 329.870038 -102.841926 
L 328.855251 -104.685803 
L 327.840464 -106.56023 
L 326.825677 -108.466788 
L 325.81089 -110.407453 
L 324.796103 -112.384376 
L 323.781316 -114.399581 
L 322.766529 -116.454649 
L 321.751742 -118.550414 
L 320.736955 -120.686743 
L 319.722168 -122.862409 
L 318.707381 -125.075102 
L 317.692594 -127.321559 
L 316.677807 -129.597806 
L 315.66302 -131.899467 
L 314.648233 -134.222074 
L 313.633446 -136.561353 
L 312.618659 -138.913411 
L 311.603872 -141.274801 
L 310.589085 -143.642463 
L 309.574298 -146.013557 
L 308.559511 -148.385217 
L 307.544724 -150.754305 
L 306.529937 -153.117213 
L 305.51515 -155.469793 
L 304.500363 -157.807441 
L 303.485576 -160.125388 
L 302.470789 -162.419149 
L 301.456003 -164.685124 
L 300.441216 -166.921254 
L 299.426429 -169.127669 
L 298.411642 -171.307199 
L 297.396855 -173.465691 
L 296.382068 -175.612037 
L 295.367281 -177.757888 
L 294.352494 -179.917036 
L 293.337707 -182.104507 
L 292.32292 -184.335423 
L 291.308133 -186.623742 
L 290.293346 -188.980979 
L 289.278559 -191.415041 
L 288.263772 -193.929287 
L 287.248985 -196.521922 
L 286.234198 -199.185791 
L 285.219411 -201.908626 
L 284.204624 -204.673718 
L 283.189837 -207.460998 
L 282.17505 -210.248423 
L 281.160263 -213.013543 
L 280.145476 -215.735125 
L 279.130689 -218.394664 
L 278.115902 -220.977642 
L 277.101115 -223.474425 
L 276.086328 -225.880692 
L 275.071541 -228.197394 
L 274.056754 -230.430221 
L 273.041967 -232.588676 
L 272.02718 -234.684845 
L 271.012393 -236.731992 
L 269.997607 -238.74313 
L 268.98282 -240.729705 
L 267.968033 -242.70048 
L 266.953246 -244.66072 
L 265.938459 -246.611699 
L 264.923672 -248.550523 
L 263.908885 -250.470242 
L 262.894098 -252.360177 
L 261.879311 -254.206416 
L 260.864524 -255.992388 
L 259.849737 -257.699497 
L 258.83495 -259.307758 
L 257.820163 -260.796435 
L 256.805376 -262.144697 
L 255.790589 -263.332275 
L 254.775802 -264.340161 
L 253.761015 -265.151315 
L 252.746228 -265.751383 
L 251.731441 -266.129363 
L 250.716654 -266.278182 
L 249.701867 -266.195104 
L 248.68708 -265.881924 
L 247.672293 -265.344898 
L 246.657506 -264.594403 
L 245.642719 -263.644355 
L 244.627932 -262.511418 
L 243.613145 -261.214113 
L 242.598358 -259.7719 
L 241.583571 -258.204333 
L 240.568784 -256.530367 
L 239.553997 -254.767858 
L 238.539211 -252.933268 
L 237.524424 -251.041554 
L 236.509637 -249.106191 
L 235.49485 -247.139251 
L 234.480063 -245.15148 
L 233.465276 -243.152305 
L 232.450489 -241.149755 
L 231.435702 -239.150264 
L 230.420915 -237.158412 
L 229.406128 -235.176632 
L 228.391341 -233.204952 
L 227.376554 -231.240832 
L 226.361767 -229.279158 
L 225.34698 -227.312413 
L 224.332193 -225.331042 
L 223.317406 -223.323988 
L 222.302619 -221.27937 
L 221.287832 -219.185223 
L 220.273045 -217.030259 
L 219.258258 -214.804567 
L 218.243471 -212.500194 
L 217.228684 -210.111568 
L 216.213897 -207.635731 
L 215.19911 -205.072365 
L 214.184323 -202.423638 
L 213.169536 -199.69388 
L 212.154749 -196.889136 
L 211.139962 -194.016644 
L 210.125175 -191.084293 
L 209.110388 -188.100103 
L 208.095602 -185.07179 
L 207.080815 -182.00643 
L 206.066028 -178.910263 
L 205.051241 -175.788632 
L 204.036454 -172.646061 
L 203.021667 -169.486444 
L 202.00688 -166.313334 
L 200.992093 -163.130268 
L 199.977306 -159.94113 
L 198.962519 -156.750482 
L 197.947732 -153.563852 
L 196.932945 -150.387942 
L 195.918158 -147.230734 
L 194.903371 -144.10149 
L 193.888584 -141.010624 
L 192.873797 -137.969457 
L 191.85901 -134.98986 
L 190.844223 -132.083805 
L 189.829436 -129.262843 
L 188.814649 -126.537552 
L 187.799862 -123.916992 
L 186.785075 -121.408207 
L 185.770288 -119.015827 
L 184.755501 -116.741796 
L 183.740714 -114.585258 
L 182.725927 -112.542622 
L 181.71114 -110.607776 
L 180.696353 -108.772469 
L 179.681566 -107.026784 
L 178.666779 -105.359689 
L 177.651992 -103.759605 
L 176.637206 -102.214943 
L 175.622419 -100.714582 
L 174.607632 -99.248259 
L 173.592845 -97.806861 
L 172.578058 -96.382623 
L 171.563271 -94.969242 
L 170.548484 -93.561931 
L 169.533697 -92.157427 
L 168.51891 -90.753965 
L 167.504123 -89.351234 
L 166.489336 -87.950308 
L 165.474549 -86.553536 
L 164.459762 -85.164403 
L 163.444975 -83.787335 
L 162.430188 -82.427439 
L 161.415401 -81.09021 
L 160.400614 -79.781179 
L 159.385827 -78.505566 
L 158.37104 -77.267938 
L 157.356253 -76.071921 
L 156.341466 -74.919997 
L 155.326679 -73.813396 
L 154.311892 -72.752118 
L 153.297105 -71.735058 
L 152.282318 -70.760242 
L 151.267531 -69.82513 
L 150.252744 -68.926957 
L 149.237957 -68.063074 
L 148.22317 -67.231246 
L 147.208383 -66.429874 
L 146.193596 -65.658121 
L 145.17881 -64.915936 
L 144.164023 -64.203967 
L 143.149236 -63.523385 
L 142.134449 -62.875653 
L 141.119662 -62.262247 
L 140.104875 -61.684388 
L 139.090088 -61.142798 
L 138.075301 -60.637518 
L 137.060514 -60.167797 
L 136.045727 -59.732071 
L 135.03094 -59.328018 
L 134.016153 -58.952697 
L 133.001366 -58.602736 
L 131.986579 -58.274567 
L 130.971792 -57.96466 
L 129.957005 -57.669756 
L 128.942218 -57.387058 
L 127.927431 -57.114382 
L 126.912644 -56.850235 
L 125.897857 -56.593835 
L 124.88307 -56.345065 
L 123.868283 -56.104369 
L 122.853496 -55.872606 
L 121.838709 -55.650877 
L 120.823922 -55.440344 
L 119.809135 -55.242055 
L 118.794348 -55.056797 
L 117.779561 -54.884982 
L 116.764774 -54.726585 
L 115.749987 -54.581125 
L 114.735201 -54.447699 
L 113.720414 -54.325052 
L 112.705627 -54.211683 
L 111.69084 -54.105966 
L 110.676053 -54.006281 
L 109.661266 -53.911133 
L 108.646479 -53.819253 
L 107.631692 -53.729673 
L 106.616905 -53.64177 
L 105.602118 -53.555273 
L 104.587331 -53.470239 
L 103.572544 -53.387008 
L 102.557757 -53.306129 
L 101.54297 -53.228285 
L 100.528183 -53.154213 
L 99.513396 -53.084621 
L 98.498609 -53.02013 
L 97.483822 -52.961224 
L 96.469035 -52.908218 
L 95.454248 -52.861244 
L 94.439461 -52.820256 
L 93.424674 -52.785046 
L 92.409887 -52.755274 
L 91.3951 -52.730493 
L 90.380313 -52.710191 
L 89.365526 -52.693819 
L 88.350739 -52.680823 
L 87.335952 -52.67067 
L 86.321165 -52.662862 
L 85.306378 -52.656951 
L 84.291591 -52.652547 
L 83.276805 -52.649316 
L 82.262018 -52.646984 
L 81.247231 -52.645325 
L 80.232444 -52.644165 
L 79.217657 -52.643366 
L 78.20287 -52.642824 
L 77.188083 -52.642462 
L 76.173296 -52.642225 
L 75.158509 -52.642071 
L 74.143722 -52.641973 
L 73.128935 -52.641912 
L 72.114148 -52.641874 
L 71.099361 -52.641851 
L 70.084574 -52.641837 
L 69.069787 -52.641829 
L 68.055 -52.641824 
z
" style="stroke: #000000; stroke-opacity: 0.18"/>
    </defs>
    <g clip-path="url(#p13f9520a7b)">
     <use xlink:href="#me4a517c5b3" x="0" y="302.4" style="fill-opacity: 0.18; stroke: #000000; stroke-opacity: 0.18"/>
    </g>
   </g>
   <g id="matplotlib.axis_1">
    <g id="xtick_1">
     <g id="line2d_1">
      <defs>
       <path id="mcf2ccdecf5" d="M 0 0 
L 0 3.5 
" style="stroke: #000000; stroke-width: 0.8"/>
      </defs>
      <g>
       <use xlink:href="#mcf2ccdecf5" x="101.708034" y="260.44" style="stroke: #000000; stroke-width: 0.8"/>
      </g>
     </g>
     <g id="text_1">
      <text style="font-size: 10px; font-family: 'DejaVu Sans', 'Bitstream Vera Sans', 'Computer Modern Sans Serif', 'Lucida Grande', 'Verdana', 'Geneva', 'Lucid', 'Arial', 'Helvetica', 'Avant Garde', sans-serif; text-anchor: middle" x="101.708034" y="275.038438" transform="rotate(-0 101.708034 275.038438)">−2</text>
     </g>
    </g>
    <g id="xtick_2">
     <g id="line2d_2">
      <g>
       <use xlink:href="#mcf2ccdecf5" x="177.26729" y="260.44" style="stroke: #000000; stroke-width: 0.8"/>
      </g>
     </g>
     <g id="text_2">
      <text style="font-size: 10px; font-family: 'DejaVu Sans', 'Bitstream Vera Sans', 'Computer Modern Sans Serif', 'Lucida Grande', 'Verdana', 'Geneva', 'Lucid', 'Arial', 'Helvetica', 'Avant Garde', sans-serif; text-anchor: middle" x="177.26729" y="275.038438" transform="rotate(-0 177.26729 275.038438)">−1</text>
     </g>
    </g>
    <g id="xtick_3">
     <g id="line2d_3">
      <g>
       <use xlink:href="#mcf2ccdecf5" x="252.826546" y="260.44" style="stroke: #000000; stroke-width: 0.8"/>
      </g>
     </g>
     <g id="text_3">
      <text style="font-size: 10px; font-family: 'DejaVu Sans', 'Bitstream Vera Sans', 'Computer Modern Sans Serif', 'Lucida Grande', 'Verdana', 'Geneva', 'Lucid', 'Arial', 'Helvetica', 'Avant Garde', sans-serif; text-anchor: middle" x="252.826546" y="275.038438" transform="rotate(-0 252.826546 275.038438)">0</text>
     </g>
    </g>
    <g id="xtick_4">
     <g id="line2d_4">
      <g>
       <use xlink:href="#mcf2ccdecf5" x="328.385802" y="260.44" style="stroke: #000000; stroke-width: 0.8"/>
      </g>
     </g>
     <g id="text_4">
      <text style="font-size: 10px; font-family: 'DejaVu Sans', 'Bitstream Vera Sans', 'Computer Modern Sans Serif', 'Lucida Grande', 'Verdana', 'Geneva', 'Lucid', 'Arial', 'Helvetica', 'Avant Garde', sans-serif; text-anchor: middle" x="328.385802" y="275.038438" transform="rotate(-0 328.385802 275.038438)">1</text>
     </g>
    </g>
    <g id="xtick_5">
     <g id="line2d_5">
      <g>
       <use xlink:href="#mcf2ccdecf5" x="403.945058" y="260.44" style="stroke: #000000; stroke-width: 0.8"/>
      </g>
     </g>
     <g id="text_5">
      <text style="font-size: 10px; font-family: 'DejaVu Sans', 'Bitstream Vera Sans', 'Computer Modern Sans Serif', 'Lucida Grande', 'Verdana', 'Geneva', 'Lucid', 'Arial', 'Helvetica', 'Avant Garde', sans-serif; text-anchor: middle" x="403.945058" y="275.038438" transform="rotate(-0 403.945058 275.038438)">2</text>
     </g>
    </g>
    <g id="xtick_6">
     <g id="line2d_6">
      <g>
       <use xlink:href="#mcf2ccdecf5" x="479.504314" y="260.44" style="stroke: #000000; stroke-width: 0.8"/>
      </g>
     </g>
     <g id="text_6">
      <text style="font-size: 10px; font-family: 'DejaVu Sans', 'Bitstream Vera Sans', 'Computer Modern Sans Serif', 'Lucida Grande', 'Verdana', 'Geneva', 'Lucid', 'Arial', 'Helvetica', 'Avant Garde', sans-serif; text-anchor: middle" x="479.504314" y="275.038438" transform="rotate(-0 479.504314 275.038438)">3</text>
     </g>
    </g>
    <g id="text_7">
     <text style="font-size: 10px; font-family: 'DejaVu Sans', 'Bitstream Vera Sans', 'Computer Modern Sans Serif', 'Lucida Grande', 'Verdana', 'Geneva', 'Lucid', 'Arial', 'Helvetica', 'Avant Garde', sans-serif; text-anchor: middle" x="270.505" y="288.716563" transform="rotate(-0 270.505 288.716563)">Mean event Tmax − mean control Tmax (°C)</text>
    </g>
   </g>
   <g id="matplotlib.axis_2">
    <g id="ytick_1">
     <g id="line2d_7">
      <defs>
       <path id="m7274143ca4" d="M 0 0 
L -3.5 0 
" style="stroke: #000000; stroke-width: 0.8"/>
      </defs>
      <g>
       <use xlink:href="#m7274143ca4" x="47.81" y="249.758182" style="stroke: #000000; stroke-width: 0.8"/>
      </g>
     </g>
     <g id="text_8">
      <text style="font-size: 10px; font-family: 'DejaVu Sans', 'Bitstream Vera Sans', 'Computer Modern Sans Serif', 'Lucida Grande', 'Verdana', 'Geneva', 'Lucid', 'Arial', 'Helvetica', 'Avant Garde', sans-serif; text-anchor: end" x="40.81" y="253.557401" transform="rotate(-0 40.81 253.557401)">0.0</text>
     </g>
    </g>
    <g id="ytick_2">
     <g id="line2d_8">
      <g>
       <use xlink:href="#m7274143ca4" x="47.81" y="218.710693" style="stroke: #000000; stroke-width: 0.8"/>
      </g>
     </g>
     <g id="text_9">
      <text style="font-size: 10px; font-family: 'DejaVu Sans', 'Bitstream Vera Sans', 'Computer Modern Sans Serif', 'Lucida Grande', 'Verdana', 'Geneva', 'Lucid', 'Arial', 'Helvetica', 'Avant Garde', sans-serif; text-anchor: end" x="40.81" y="222.509912" transform="rotate(-0 40.81 222.509912)">0.1</text>
     </g>
    </g>
    <g id="ytick_3">
     <g id="line2d_9">
      <g>
       <use xlink:href="#m7274143ca4" x="47.81" y="187.663205" style="stroke: #000000; stroke-width: 0.8"/>
      </g>
     </g>
     <g id="text_10">
      <text style="font-size: 10px; font-family: 'DejaVu Sans', 'Bitstream Vera Sans', 'Computer Modern Sans Serif', 'Lucida Grande', 'Verdana', 'Geneva', 'Lucid', 'Arial', 'Helvetica', 'Avant Garde', sans-serif; text-anchor: end" x="40.81" y="191.462423" transform="rotate(-0 40.81 191.462423)">0.2</text>
     </g>
    </g>
    <g id="ytick_4">
     <g id="line2d_10">
      <g>
       <use xlink:href="#m7274143ca4" x="47.81" y="156.615716" style="stroke: #000000; stroke-width: 0.8"/>
      </g>
     </g>
     <g id="text_11">
      <text style="font-size: 10px; font-family: 'DejaVu Sans', 'Bitstream Vera Sans', 'Computer Modern Sans Serif', 'Lucida Grande', 'Verdana', 'Geneva', 'Lucid', 'Arial', 'Helvetica', 'Avant Garde', sans-serif; text-anchor: end" x="40.81" y="160.414935" transform="rotate(-0 40.81 160.414935)">0.3</text>
     </g>
    </g>
    <g id="ytick_5">
     <g id="line2d_11">
      <g>
       <use xlink:href="#m7274143ca4" x="47.81" y="125.568227" style="stroke: #000000; stroke-width: 0.8"/>
      </g>
     </g>
     <g id="text_12">
      <text style="font-size: 10px; font-family: 'DejaVu Sans', 'Bitstream Vera Sans', 'Computer Modern Sans Serif', 'Lucida Grande', 'Verdana', 'Geneva', 'Lucid', 'Arial', 'Helvetica', 'Avant Garde', sans-serif; text-anchor: end" x="40.81" y="129.367446" transform="rotate(-0 40.81 129.367446)">0.4</text>
     </g>
    </g>
    <g id="ytick_6">
     <g id="line2d_12">
      <g>
       <use xlink:href="#m7274143ca4" x="47.81" y="94.520739" style="stroke: #000000; stroke-width: 0.8"/>
      </g>
     </g>
     <g id="text_13">
      <text style="font-size: 10px; font-family: 'DejaVu Sans', 'Bitstream Vera Sans', 'Computer Modern Sans Serif', 'Lucida Grande', 'Verdana', 'Geneva', 'Lucid', 'Arial', 'Helvetica', 'Avant Garde', sans-serif; text-anchor: end" x="40.81" y="98.319957" transform="rotate(-0 40.81 98.319957)">0.5</text>
     </g>
    </g>
    <g id="ytick_7">
     <g id="line2d_13">
      <g>
       <use xlink:href="#m7274143ca4" x="47.81" y="63.47325" style="stroke: #000000; stroke-width: 0.8"/>
      </g>
     </g>
     <g id="text_14">
      <text style="font-size: 10px; font-family: 'DejaVu Sans', 'Bitstream Vera Sans', 'Computer Modern Sans Serif', 'Lucida Grande', 'Verdana', 'Geneva', 'Lucid', 'Arial', 'Helvetica', 'Avant Garde', sans-serif; text-anchor: end" x="40.81" y="67.272469" transform="rotate(-0 40.81 67.272469)">0.6</text>
     </g>
    </g>
    <g id="ytick_8">
     <g id="line2d_14">
      <g>
       <use xlink:href="#m7274143ca4" x="47.81" y="32.425761" style="stroke: #000000; stroke-width: 0.8"/>
      </g>
     </g>
     <g id="text_15">
      <text style="font-size: 10px; font-family: 'DejaVu Sans', 'Bitstream Vera Sans', 'Computer Modern Sans Serif', 'Lucida Grande', 'Verdana', 'Geneva', 'Lucid', 'Arial', 'Helvetica', 'Avant Garde', sans-serif; text-anchor: end" x="40.81" y="36.22498" transform="rotate(-0 40.81 36.22498)">0.7</text>
     </g>
    </g>
    <g id="text_16">
     <text style="font-size: 10px; font-family: 'DejaVu Sans', 'Bitstream Vera Sans', 'Computer Modern Sans Serif', 'Lucida Grande', 'Verdana', 'Geneva', 'Lucid', 'Arial', 'Helvetica', 'Avant Garde', sans-serif; text-anchor: middle" x="18.827188" y="142.94" transform="rotate(-90 18.827188 142.94)">Permutation density</text>
    </g>
   </g>
   <g id="line2d_15">
    <path d="M 68.055 249.758176 
L 91.3951 249.669507 
L 97.483822 249.438776 
L 104.587331 248.929761 
L 113.720414 248.074948 
L 117.779561 247.515018 
L 121.838709 246.749123 
L 126.912644 245.549765 
L 131.986579 244.125433 
L 135.03094 243.071982 
L 138.075301 241.762482 
L 141.119662 240.137753 
L 144.164023 238.196033 
L 147.208383 235.970126 
L 150.252744 233.473043 
L 153.297105 230.664942 
L 156.341466 227.480003 
L 159.385827 223.894434 
L 162.430188 219.972561 
L 168.51891 211.646035 
L 175.622419 201.685418 
L 178.666779 197.040311 
L 180.696353 193.627531 
L 182.725927 189.857378 
L 184.755501 185.658204 
L 186.785075 180.991793 
L 188.814649 175.862448 
L 191.85901 167.41014 
L 195.918158 155.169266 
L 210.125175 111.315707 
L 213.169536 102.70612 
L 216.213897 94.764269 
L 219.258258 87.595433 
L 222.302619 81.12063 
L 226.361767 73.120842 
L 240.568784 45.869633 
L 242.598358 42.6281 
L 244.627932 39.888582 
L 245.642719 38.755645 
L 246.657506 37.805597 
L 247.672293 37.055102 
L 248.68708 36.518076 
L 249.701867 36.204896 
L 250.716654 36.121818 
L 251.731441 36.270637 
L 252.746228 36.648617 
L 253.761015 37.248685 
L 254.775802 38.059839 
L 255.790589 39.067725 
L 257.820163 41.603565 
L 259.849737 44.700503 
L 261.879311 48.193584 
L 265.938459 55.788301 
L 272.02718 67.715155 
L 275.071541 74.202606 
L 278.115902 81.422358 
L 281.160263 89.386457 
L 288.263772 108.470713 
L 291.308133 115.776258 
L 294.352494 122.482964 
L 302.470789 139.980851 
L 308.559511 154.014783 
L 317.692594 175.078441 
L 321.751742 183.849586 
L 325.81089 191.992547 
L 329.870038 199.558074 
L 333.929185 206.640601 
L 337.988333 213.236312 
L 341.032694 217.834339 
L 344.077055 222.099082 
L 347.121416 225.966136 
L 349.15099 228.279939 
L 351.180564 230.357733 
L 353.210138 232.194047 
L 355.239712 233.801678 
L 358.284073 235.849165 
L 361.328434 237.57199 
L 365.387581 239.557827 
L 371.476303 242.219706 
L 377.565025 244.697383 
L 381.624173 246.128188 
L 384.668534 246.980217 
L 387.712895 247.598127 
L 390.757256 247.985758 
L 394.816404 248.229506 
L 406.993847 248.702838 
L 418.156504 249.389586 
L 423.230439 249.430289 
L 437.437456 249.381135 
L 454.688835 249.742633 
L 472.955 249.758177 
L 472.955 249.758177 
" clip-path="url(#p13f9520a7b)" style="fill: none; stroke: #000000; stroke-width: 1.2; stroke-linecap: square"/>
   </g>
   <g id="line2d_16">
    <path d="M 252.826546 260.44 
L 252.826546 25.44 
" clip-path="url(#p13f9520a7b)" style="fill: none; stroke-dasharray: 2.59,1.12; stroke-dashoffset: 0; stroke: #000000; stroke-opacity: 0.5; stroke-width: 0.7"/>
   </g>
   <g id="line2d_17">
    <path d="M 206.49687 260.44 
L 206.49687 25.44 
" clip-path="url(#p13f9520a7b)" style="fill: none; stroke: #d55e00; stroke-width: 2; stroke-linecap: square"/>
   </g>
   <g id="patch_3">
    <path d="M 47.81 260.44 
L 47.81 25.44 
" style="fill: none; stroke: #000000; stroke-width: 0.8; stroke-linejoin: miter; stroke-linecap: square"/>
   </g>
   <g id="patch_4">
    <path d="M 493.2 260.44 
L 493.2 25.44 
" style="fill: none; stroke: #000000; stroke-width: 0.8; stroke-linejoin: miter; stroke-linecap: square"/>
   </g>
   <g id="patch_5">
    <path d="M 47.81 260.44 
L 493.2 260.44 
" style="fill: none; stroke: #000000; stroke-width: 0.8; stroke-linejoin: miter; stroke-linecap: square"/>
   </g>
   <g id="patch_6">
    <path d="M 47.81 25.44 
L 493.2 25.44 
" style="fill: none; stroke: #000000; stroke-width: 0.8; stroke-linejoin: miter; stroke-linecap: square"/>
   </g>
   <g id="text_17">
    <g id="patch_7">
     <path d="M 52.7578 42.858125 
L 169.043425 42.858125 
L 169.043425 26.18 
L 52.7578 26.18 
z
" style="fill: #ffffff; opacity: 0.92; stroke: #808080; stroke-linejoin: miter"/>
    </g>
    <text style="font-size: 9px; font-family: 'DejaVu Sans Mono', 'Bitstream Vera Sans Mono', 'Computer Modern Typewriter', 'Andale Mono', 'Nimbus Mono L', 'Courier New', 'Courier', 'Fixed', 'Terminal', monospace; text-anchor: start" x="56.7178" y="37.026406" transform="rotate(-0 56.7178 37.026406)">two-sided p = 0.3062</text>
   </g>
   <g id="text_18">
    <text style="font-size: 12px; font-family: 'DejaVu Sans', 'Bitstream Vera Sans', 'Computer Modern Sans Serif', 'Lucida Grande', 'Verdana', 'Geneva', 'Lucid', 'Arial', 'Helvetica', 'Avant Garde', sans-serif; text-anchor: middle" x="270.505" y="19.44" transform="rotate(-0 270.505 19.44)">H2 permutation null vs observed statistic</text>
   </g>
   <g id="legend_1">
    <g id="patch_8">
     <path d="M 346.049062 57.192813 
L 487.25 57.192813 
Q 488.95 57.192813 488.95 55.492813 
L 488.95 31.39 
Q 488.95 29.69 487.25 29.69 
L 346.049062 29.69 
Q 344.349063 29.69 344.349063 31.39 
L 344.349063 55.492813 
Q 344.349063 57.192813 346.049062 57.192813 
z
" style="fill: #ffffff; opacity: 0.92; stroke: #cccccc; stroke-linejoin: miter"/>
    </g>
    <g id="patch_9">
     <path d="M 347.749062 39.548672 
L 364.749062 39.548672 
L 364.749062 33.598672 
L 347.749062 33.598672 
z
" style="fill-opacity: 0.18; stroke: #000000; stroke-opacity: 0.18; stroke-linejoin: miter"/>
    </g>
    <g id="text_19">
     <text style="font-size: 8.5px; font-family: 'DejaVu Sans', 'Bitstream Vera Sans', 'Computer Modern Sans Serif', 'Lucida Grande', 'Verdana', 'Geneva', 'Lucid', 'Arial', 'Helvetica', 'Avant Garde', sans-serif; text-anchor: start" x="371.549062" y="39.548672" transform="rotate(-0 371.549062 39.548672)">Permutation null (B=5000)</text>
    </g>
    <g id="line2d_18">
     <path d="M 347.749062 49.050078 
L 356.249062 49.050078 
L 364.749062 49.050078 
" style="fill: none; stroke: #d55e00; stroke-width: 2; stroke-linecap: square"/>
    </g>
    <g id="text_20">
     <text style="font-size: 8.5px; font-family: 'DejaVu Sans', 'Bitstream Vera Sans', 'Computer Modern Sans Serif', 'Lucida Grande', 'Verdana', 'Geneva', 'Lucid', 'Arial', 'Helvetica', 'Avant Garde', sans-serif; text-anchor: start" x="371.549062" y="52.025078" transform="rotate(-0 371.549062 52.025078)">Observed = -0.613 °C</text>
    </g>
   </g>
  </g>
 </g>
 <defs>
  <clipPath id="p13f9520a7b">
   <rect x="47.81" y="25.44" width="445.39" height="235"/>
  </clipPath>
 </defs>
</svg>
