<?xml version="1.0" encoding="utf-8" standalone="no"?>
<!DOCTYPE svg PUBLIC "-//W3C//DTD SVG 1.1//EN"
  "http://www.w3.org/Graphics/SVG/1.1/DTD/svg11.dtd">
<svg xmlns:xlink="http://www.w3.org/1999/xlink" width="504pt" height="302.4pt" viewBox="0 0 504 302.4" xmlns="http://www.w3.org/2000/svg" version="1.1">
 <metadata>
  <rdf:RDF xmlns:dc="http://purl.org/dc/elements/1.1/" xmlns:cc="http://creativecommons.org/ns#" xmlns:rdf="http://www.w3.org/1999/02/22-rdf-syntax-ns#">
   <cc:Work>
    <dc:type rdf:resource="http://purl.org/dc/dcmitype/StillImage"/>
    <dc:date>2026-05-24T21:59:44.140487</dc:date>
    <dc:format>image/svg+xml</dc:format>
    <dc:creator>
     <cc:Agent>
      <dc:title>Matplotlib v3.10.9, https://matplotlib.org/</dc:title>
     </cc:Agent>
    </dc:creator>
   </cc:Work>
  </rdf:RDF>
 </metadata>
 <defs>
  <style type="text/css">*{stroke-linejoin: round; stroke-linecap: butt}</style>
 </defs>
 <g id="figure_1">
  <g id="patch_1">
   <path d="M 0 302.4 
L 504 302.4 
L 504 0 
L 0 0 
z
" style="fill: #ffffff"/>
  </g>
  <g id="axes_1">
   <g id="patch_2">
    <path d="M 47.81 260.44 
L 493.2 260.44 
L 493.2 25.44 
L 47.81 25.44 
z
" style="fill: #ffffff"/>
   </g>
   <g id="FillBetweenPolyCollection_1">
    <defs>
     <path id="m069ce97c6e" d="M 68.055 -52.641818 
L 68.055 -52.641818 
L 69.069787 -52.641818 
L 70.084574 -52.641818 
L 71.099361 -52.641818 
L 72.114148 -52.641818 
L 73.128935 -52.641818 
L 74.143722 -52.641818 
L 75.158509 -52.641818 
L 76.173296 -52.641818 
L 77.188083 -52.641818 
L 78.20287 -52.641818 
L 79.217657 -52.641818 
L 80.232444 -52.641818 
L 81.247231 -52.641818 
L 82.262018 -52.641818 
L 83.276805 -52.641818 
L 84.291591 -52.641818 
L 85.306378 -52.641818 
L 86.321165 -52.641818 
L 87.335952 -52.641818 
L 88.350739 -52.641818 
L 89.365526 -52.641818 
L 90.380313 -52.641818 
L 91.3951 -52.641818 
L 92.409887 -52.641818 
L 93.424674 -52.641818 
L 94.439461 -52.641818 
L 95.454248 -52.641818 
L 96.469035 -52.641818 
L 97.483822 -52.641818 
L 98.498609 -52.641818 
L 99.513396 -52.641818 
L 100.528183 -52.641818 
L 101.54297 -52.641818 
L 102.557757 -52.641818 
L 103.572544 -52.641818 
L 104.587331 -52.641818 
L 105.602118 -52.641818 
L 106.616905 -52.641818 
L 107.631692 -52.641818 
L 108.646479 -52.641818 
L 109.661266 -52.641818 
L 110.676053 -52.641818 
L 111.69084 -52.641818 
L 112.705627 -52.641818 
L 113.720414 -52.641818 
L 114.735201 -52.641818 
L 115.749987 -52.641818 
L 116.764774 -52.641818 
L 117.779561 -52.641818 
L 118.794348 -52.641818 
L 119.809135 -52.641818 
L 120.823922 -52.641818 
L 121.838709 -52.641818 
L 122.853496 -52.641818 
L 123.868283 -52.641818 
L 124.88307 -52.641818 
L 125.897857 -52.641818 
L 126.912644 -52.641818 
L 127.927431 -52.641818 
L 128.942218 -52.641818 
L 129.957005 -52.641818 
L 130.971792 -52.641818 
L 131.986579 -52.641818 
L 133.001366 -52.641818 
L 134.016153 -52.641818 
L 135.03094 -52.641818 
L 136.045727 -52.641818 
L 137.060514 -52.641818 
L 138.075301 -52.641818 
L 139.090088 -52.641818 
L 140.104875 -52.641818 
L 141.119662 -52.641818 
L 142.134449 -52.641818 
L 143.149236 -52.641818 
L 144.164023 -52.641818 
L 145.17881 -52.641818 
L 146.193596 -52.641818 
L 147.208383 -52.641818 
L 148.22317 -52.641818 
L 149.237957 -52.641818 
L 150.252744 -52.641818 
L 151.267531 -52.641818 
L 152.282318 -52.641818 
L 153.297105 -52.641818 
L 154.311892 -52.641818 
L 155.326679 -52.641818 
L 156.341466 -52.641818 
L 157.356253 -52.641818 
L 158.37104 -52.641818 
L 159.385827 -52.641818 
L 160.400614 -52.641818 
L 161.415401 -52.641818 
L 162.430188 -52.641818 
L 163.444975 -52.641818 
L 164.459762 -52.641818 
L 165.474549 -52.641818 
L 166.489336 -52.641818 
L 167.504123 -52.641818 
L 168.51891 -52.641818 
L 169.533697 -52.641818 
L 170.548484 -52.641818 
L 171.563271 -52.641818 
L 172.578058 -52.641818 
L 173.592845 -52.641818 
L 174.607632 -52.641818 
L 175.622419 -52.641818 
L 176.637206 -52.641818 
L 177.651992 -52.641818 
L 178.666779 -52.641818 
L 179.681566 -52.641818 
L 180.696353 -52.641818 
L 181.71114 -52.641818 
L 182.725927 -52.641818 
L 183.740714 -52.641818 
L 184.755501 -52.641818 
L 185.770288 -52.641818 
L 186.785075 -52.641818 
L 187.799862 -52.641818 
L 188.814649 -52.641818 
L 189.829436 -52.641818 
L 190.844223 -52.641818 
L 191.85901 -52.641818 
L 192.873797 -52.641818 
L 193.888584 -52.641818 
L 194.903371 -52.641818 
L 195.918158 -52.641818 
L 196.932945 -52.641818 
L 197.947732 -52.641818 
L 198.962519 -52.641818 
L 199.977306 -52.641818 
L 200.992093 -52.641818 
L 202.00688 -52.641818 
L 203.021667 -52.641818 
L 204.036454 -52.641818 
L 205.051241 -52.641818 
L 206.066028 -52.641818 
L 207.080815 -52.641818 
L 208.095602 -52.641818 
L 209.110388 -52.641818 
L 210.125175 -52.641818 
L 211.139962 -52.641818 
L 212.154749 -52.641818 
L 213.169536 -52.641818 
L 214.184323 -52.641818 
L 215.19911 -52.641818 
L 216.213897 -52.641818 
L 217.228684 -52.641818 
L 218.243471 -52.641818 
L 219.258258 -52.641818 
L 220.273045 -52.641818 
L 221.287832 -52.641818 
L 222.302619 -52.641818 
L 223.317406 -52.641818 
L 224.332193 -52.641818 
L 225.34698 -52.641818 
L 226.361767 -52.641818 
L 227.376554 -52.641818 
L 228.391341 -52.641818 
L 229.406128 -52.641818 
L 230.420915 -52.641818 
L 231.435702 -52.641818 
L 232.450489 -52.641818 
L 233.465276 -52.641818 
L 234.480063 -52.641818 
L 235.49485 -52.641818 
L 236.509637 -52.641818 
L 237.524424 -52.641818 
L 238.539211 -52.641818 
L 239.553997 -52.641818 
L 240.568784 -52.641818 
L 241.583571 -52.641818 
L 242.598358 -52.641818 
L 243.613145 -52.641818 
L 244.627932 -52.641818 
L 245.642719 -52.641818 
L 246.657506 -52.641818 
L 247.672293 -52.641818 
L 248.68708 -52.641818 
L 249.701867 -52.641818 
L 250.716654 -52.641818 
L 251.731441 -52.641818 
L 252.746228 -52.641818 
L 253.761015 -52.641818 
L 254.775802 -52.641818 
L 255.790589 -52.641818 
L 256.805376 -52.641818 
L 257.820163 -52.641818 
L 258.83495 -52.641818 
L 259.849737 -52.641818 
L 260.864524 -52.641818 
L 261.879311 -52.641818 
L 262.894098 -52.641818 
L 263.908885 -52.641818 
L 264.923672 -52.641818 
L 265.938459 -52.641818 
L 266.953246 -52.641818 
L 267.968033 -52.641818 
L 268.98282 -52.641818 
L 269.997607 -52.641818 
L 271.012393 -52.641818 
L 272.02718 -52.641818 
L 273.041967 -52.641818 
L 274.056754 -52.641818 
L 275.071541 -52.641818 
L 276.086328 -52.641818 
L 277.101115 -52.641818 
L 278.115902 -52.641818 
L 279.130689 -52.641818 
L 280.145476 -52.641818 
L 281.160263 -52.641818 
L 282.17505 -52.641818 
L 283.189837 -52.641818 
L 284.204624 -52.641818 
L 285.219411 -52.641818 
L 286.234198 -52.641818 
L 287.248985 -52.641818 
L 288.263772 -52.641818 
L 289.278559 -52.641818 
L 290.293346 -52.641818 
L 291.308133 -52.641818 
L 292.32292 -52.641818 
L 293.337707 -52.641818 
L 294.352494 -52.641818 
L 295.367281 -52.641818 
L 296.382068 -52.641818 
L 297.396855 -52.641818 
L 298.411642 -52.641818 
L 299.426429 -52.641818 
L 300.441216 -52.641818 
L 301.456003 -52.641818 
L 302.470789 -52.641818 
L 303.485576 -52.641818 
L 304.500363 -52.641818 
L 305.51515 -52.641818 
L 306.529937 -52.641818 
L 307.544724 -52.641818 
L 308.559511 -52.641818 
L 309.574298 -52.641818 
L 310.589085 -52.641818 
L 311.603872 -52.641818 
L 312.618659 -52.641818 
L 313.633446 -52.641818 
L 314.648233 -52.641818 
L 315.66302 -52.641818 
L 316.677807 -52.641818 
L 317.692594 -52.641818 
L 318.707381 -52.641818 
L 319.722168 -52.641818 
L 320.736955 -52.641818 
L 321.751742 -52.641818 
L 322.766529 -52.641818 
L 323.781316 -52.641818 
L 324.796103 -52.641818 
L 325.81089 -52.641818 
L 326.825677 -52.641818 
L 327.840464 -52.641818 
L 328.855251 -52.641818 
L 329.870038 -52.641818 
L 330.884825 -52.641818 
L 331.899612 -52.641818 
L 332.914398 -52.641818 
L 333.929185 -52.641818 
L 334.943972 -52.641818 
L 335.958759 -52.641818 
L 336.973546 -52.641818 
L 337.988333 -52.641818 
L 339.00312 -52.641818 
L 340.017907 -52.641818 
L 341.032694 -52.641818 
L 342.047481 -52.641818 
L 343.062268 -52.641818 
L 344.077055 -52.641818 
L 345.091842 -52.641818 
L 346.106629 -52.641818 
L 347.121416 -52.641818 
L 348.136203 -52.641818 
L 349.15099 -52.641818 
L 350.165777 -52.641818 
L 351.180564 -52.641818 
L 352.195351 -52.641818 
L 353.210138 -52.641818 
L 354.224925 -52.641818 
L 355.239712 -52.641818 
L 356.254499 -52.641818 
L 357.269286 -52.641818 
L 358.284073 -52.641818 
L 359.29886 -52.641818 
L 360.313647 -52.641818 
L 361.328434 -52.641818 
L 362.343221 -52.641818 
L 363.358008 -52.641818 
L 364.372794 -52.641818 
L 365.387581 -52.641818 
L 366.402368 -52.641818 
L 367.417155 -52.641818 
L 368.431942 -52.641818 
L 369.446729 -52.641818 
L 370.461516 -52.641818 
L 371.476303 -52.641818 
L 372.49109 -52.641818 
L 373.505877 -52.641818 
L 374.520664 -52.641818 
L 375.535451 -52.641818 
L 376.550238 -52.641818 
L 377.565025 -52.641818 
L 378.579812 -52.641818 
L 379.594599 -52.641818 
L 380.609386 -52.641818 
L 381.624173 -52.641818 
L 382.63896 -52.641818 
L 383.653747 -52.641818 
L 384.668534 -52.641818 
L 385.683321 -52.641818 
L 386.698108 -52.641818 
L 387.712895 -52.641818 
L 388.727682 -52.641818 
L 389.742469 -52.641818 
L 390.757256 -52.641818 
L 391.772043 -52.641818 
L 392.78683 -52.641818 
L 393.801617 -52.641818 
L 394.816404 -52.641818 
L 395.83119 -52.641818 
L 396.845977 -52.641818 
L 397.860764 -52.641818 
L 398.875551 -52.641818 
L 399.890338 -52.641818 
L 400.905125 -52.641818 
L 401.919912 -52.641818 
L 402.934699 -52.641818 
L 403.949486 -52.641818 
L 404.964273 -52.641818 
L 405.97906 -52.641818 
L 406.993847 -52.641818 
L 408.008634 -52.641818 
L 409.023421 -52.641818 
L 410.038208 -52.641818 
L 411.052995 -52.641818 
L 412.067782 -52.641818 
L 413.082569 -52.641818 
L 414.097356 -52.641818 
L 415.112143 -52.641818 
L 416.12693 -52.641818 
L 417.141717 -52.641818 
L 418.156504 -52.641818 
L 419.171291 -52.641818 
L 420.186078 -52.641818 
L 421.200865 -52.641818 
L 422.215652 -52.641818 
L 423.230439 -52.641818 
L 424.245226 -52.641818 
L 425.260013 -52.641818 
L 426.274799 -52.641818 
L 427.289586 -52.641818 
L 428.304373 -52.641818 
L 429.31916 -52.641818 
L 430.333947 -52.641818 
L 431.348734 -52.641818 
L 432.363521 -52.641818 
L 433.378308 -52.641818 
L 434.393095 -52.641818 
L 435.407882 -52.641818 
L 436.422669 -52.641818 
L 437.437456 -52.641818 
L 438.452243 -52.641818 
L 439.46703 -52.641818 
L 440.481817 -52.641818 
L 441.496604 -52.641818 
L 442.511391 -52.641818 
L 443.526178 -52.641818 
L 444.540965 -52.641818 
L 445.555752 -52.641818 
L 446.570539 -52.641818 
L 447.585326 -52.641818 
L 448.600113 -52.641818 
L 449.6149 -52.641818 
L 450.629687 -52.641818 
L 451.644474 -52.641818 
L 452.659261 -52.641818 
L 453.674048 -52.641818 
L 454.688835 -52.641818 
L 455.703622 -52.641818 
L 456.718409 -52.641818 
L 457.733195 -52.641818 
L 458.747982 -52.641818 
L 459.762769 -52.641818 
L 460.777556 -52.641818 
L 461.792343 -52.641818 
L 462.80713 -52.641818 
L 463.821917 -52.641818 
L 464.836704 -52.641818 
L 465.851491 -52.641818 
L 466.866278 -52.641818 
L 467.881065 -52.641818 
L 468.895852 -52.641818 
L 469.910639 -52.641818 
L 470.925426 -52.641818 
L 471.940213 -52.641818 
L 472.955 -52.641818 
L 472.955 -52.641818 
L 472.955 -52.641818 
L 471.940213 -52.641818 
L 470.925426 -52.641818 
L 469.910639 -52.641818 
L 468.895852 -52.641818 
L 467.881065 -52.641818 
L 466.866278 -52.641818 
L 465.851491 -52.641818 
L 464.836704 -52.641818 
L 463.821917 -52.641818 
L 462.80713 -52.641818 
L 461.792343 -52.641818 
L 460.777556 -52.641818 
L 459.762769 -52.641818 
L 458.747982 -52.641818 
L 457.733195 -52.641818 
L 456.718409 -52.641818 
L 455.703622 -52.641818 
L 454.688835 -52.641818 
L 453.674048 -52.641819 
L 452.659261 -52.641819 
L 451.644474 -52.64182 
L 450.629687 -52.641822 
L 449.6149 -52.641826 
L 448.600113 -52.641832 
L 447.585326 -52.641845 
L 446.570539 -52.641867 
L 445.555752 -52.641905 
L 444.540965 -52.641972 
L 443.526178 -52.642082 
L 442.511391 -52.642264 
L 441.496604 -52.642554 
L 440.481817 -52.643008 
L 439.46703 -52.643702 
L 438.452243 -52.64474 
L 437.437456 -52.646256 
L 436.422669 -52.64842 
L 435.407882 -52.651436 
L 434.393095 -52.655545 
L 433.378308 -52.661009 
L 432.363521 -52.668102 
L 431.348734 -52.67709 
L 430.333947 -52.688201 
L 429.31916 -52.7016 
L 428.304373 -52.717355 
L 427.289586 -52.735413 
L 426.274799 -52.755581 
L 425.260013 -52.777525 
L 424.245226 -52.800779 
L 423.230439 -52.824784 
L 422.215652 -52.848927 
L 421.200865 -52.872612 
L 420.186078 -52.89532 
L 419.171291 -52.916676 
L 418.156504 -52.936504 
L 417.141717 -52.954857 
L 416.12693 -52.972036 
L 415.112143 -52.988573 
L 414.097356 -53.005206 
L 413.082569 -53.022834 
L 412.067782 -53.042462 
L 411.052995 -53.065153 
L 410.038208 -53.09198 
L 409.023421 -53.123977 
L 408.008634 -53.162115 
L 406.993847 -53.207265 
L 405.97906 -53.26018 
L 404.964273 -53.321479 
L 403.949486 -53.391637 
L 402.934699 -53.470991 
L 401.919912 -53.559759 
L 400.905125 -53.658076 
L 399.890338 -53.766044 
L 398.875551 -53.883787 
L 397.860764 -54.011509 
L 396.845977 -54.149525 
L 395.83119 -54.298269 
L 394.816404 -54.458271 
L 393.801617 -54.630095 
L 392.78683 -54.814251 
L 391.772043 -55.011107 
L 390.757256 -55.220829 
L 389.742469 -55.443354 
L 388.727682 -55.678447 
L 387.712895 -55.925824 
L 386.698108 -56.185347 
L 385.683321 -56.457272 
L 384.668534 -56.742486 
L 383.653747 -57.042719 
L 382.63896 -57.360655 
L 381.624173 -57.699911 
L 380.609386 -58.06486 
L 379.594599 -58.460297 
L 378.579812 -58.890976 
L 377.565025 -59.361059 
L 376.550238 -59.873554 
L 375.535451 -60.429818 
L 374.520664 -61.029194 
L 373.505877 -61.668858 
L 372.49109 -62.343892 
L 371.476303 -63.047621 
L 370.461516 -63.772159 
L 369.446729 -64.509134 
L 368.431942 -65.250489 
L 367.417155 -65.989295 
L 366.402368 -66.720453 
L 365.387581 -67.441232 
L 364.372794 -68.151561 
L 363.358008 -68.854066 
L 362.343221 -69.553826 
L 361.328434 -70.257893 
L 360.313647 -70.97462 
L 359.29886 -71.712859 
L 358.284073 -72.481118 
L 357.269286 -73.286757 
L 356.254499 -74.135312 
L 355.239712 -75.03002 
L 354.224925 -75.971619 
L 353.210138 -76.958458 
L 352.195351 -77.986929 
L 351.180564 -79.052205 
L 350.165777 -80.149224 
L 349.15099 -81.273802 
L 348.136203 -82.423774 
L 347.121416 -83.600001 
L 346.106629 -84.807111 
L 345.091842 -86.053867 
L 344.077055 -87.35307 
L 343.062268 -88.720988 
L 342.047481 -90.176347 
L 341.032694 -91.738963 
L 340.017907 -93.428175 
L 339.00312 -95.261224 
L 337.988333 -97.251773 
L 336.973546 -99.408725 
L 335.958759 -101.735464 
L 334.943972 -104.229606 
L 333.929185 -106.883272 
L 332.914398 -109.683827 
L 331.899612 -112.614985 
L 330.884825 -115.658125 
L 329.870038 -118.793638 
L 328.855251 -122.002154 
L 327.840464 -125.265504 
L 326.825677 -128.567356 
L 325.81089 -131.893491 
L 324.796103 -135.231788 
L 323.781316 -138.571995 
L 322.766529 -141.905415 
L 321.751742 -145.224599 
L 320.736955 -148.523161 
L 319.722168 -151.795734 
L 318.707381 -155.038091 
L 317.692594 -158.247381 
L 316.677807 -161.422438 
L 315.66302 -164.564072 
L 314.648233 -167.675287 
L 313.633446 -170.761366 
L 312.618659 -173.829779 
L 311.603872 -176.889884 
L 310.589085 -179.952432 
L 309.574298 -183.028864 
L 308.559511 -186.13046 
L 307.544724 -189.267367 
L 306.529937 -192.44761 
L 305.51515 -195.676164 
L 304.500363 -198.954186 
L 303.485576 -202.278519 
L 302.470789 -205.641528 
L 301.456003 -209.031316 
L 300.441216 -212.432324 
L 299.426429 -215.826253 
L 298.411642 -219.193246 
L 297.396855 -222.513185 
L 296.382068 -225.767008 
L 295.367281 -228.937881 
L 294.352494 -232.012142 
L 293.337707 -234.9799 
L 292.32292 -237.835243 
L 291.308133 -240.576021 
L 290.293346 -243.203216 
L 289.278559 -245.719939 
L 288.263772 -248.130139 
L 287.248985 -250.437128 
L 286.234198 -252.642069 
L 285.219411 -254.742579 
L 284.204624 -256.731614 
L 283.189837 -258.5968 
L 282.17505 -260.320313 
L 281.160263 -261.879409 
L 280.145476 -263.247586 
L 279.130689 -264.396307 
L 278.115902 -265.297147 
L 277.101115 -265.924124 
L 276.086328 -266.255986 
L 275.071541 -266.278182 
L 274.056754 -265.984317 
L 273.041967 -265.376927 
L 272.02718 -264.467518 
L 271.012393 -263.27591 
L 269.997607 -261.828984 
L 268.98282 -260.159003 
L 267.968033 -258.301703 
L 266.953246 -256.294315 
L 265.938459 -254.173674 
L 264.923672 -251.974512 
L 263.908885 -249.727992 
L 262.894098 -247.460513 
L 261.879311 -245.192815 
L 260.864524 -242.939389 
L 259.849737 -240.708239 
L 258.83495 -238.501014 
L 257.820163 -236.313548 
L 256.805376 -234.136804 
L 255.790589 -231.958184 
L 254.775802 -229.76312 
L 253.761015 -227.536815 
L 252.746228 -225.265963 
L 251.731441 -222.940274 
L 250.716654 -220.553627 
L 249.701867 -218.104724 
L 248.68708 -215.597154 
L 247.672293 -213.038855 
L 246.657506 -210.441037 
L 245.642719 -207.816661 
L 244.627932 -205.178651 
L 243.613145 -202.53804 
L 242.598358 -199.902244 
L 241.583571 -197.273693 
L 240.568784 -194.648976 
L 239.553997 -192.018648 
L 238.539211 -189.367757 
L 237.524424 -186.677098 
L 236.509637 -183.92508 
L 235.49485 -181.090057 
L 234.480063 -178.152866 
L 233.465276 -175.099281 
L 232.450489 -171.922118 
L 231.435702 -168.622697 
L 230.420915 -165.211501 
L 229.406128 -161.707927 
L 228.391341 -158.139156 
L 227.376554 -154.538279 
L 226.361767 -150.941882 
L 225.34698 -147.387371 
L 224.332193 -143.910302 
L 223.317406 -140.541977 
L 222.302619 -137.307506 
L 221.287832 -134.224451 
L 220.273045 -131.302143 
L 219.258258 -128.541651 
L 218.243471 -125.936365 
L 217.228684 -123.473106 
L 216.213897 -121.133656 
L 215.19911 -118.896559 
L 214.184323 -116.739063 
L 213.169536 -114.639022 
L 212.154749 -112.576604 
L 211.139962 -110.535659 
L 210.125175 -108.504625 
L 209.110388 -106.476899 
L 208.095602 -104.450688 
L 207.080815 -102.428385 
L 206.066028 -100.415601 
L 205.051241 -98.420024 
L 204.036454 -96.450263 
L 203.021667 -94.51486 
L 202.00688 -92.621555 
L 200.992093 -90.776882 
L 199.977306 -88.986055 
L 198.962519 -87.253097 
L 197.947732 -85.581093 
L 196.932945 -83.972464 
L 195.918158 -82.429163 
L 194.903371 -80.952735 
L 193.888584 -79.544241 
L 192.873797 -78.204047 
L 191.85901 -76.931581 
L 190.844223 -75.725097 
L 189.829436 -74.581548 
L 188.814649 -73.4966 
L 187.799862 -72.46483 
L 186.785075 -71.480071 
L 185.770288 -70.535883 
L 184.755501 -69.62607 
L 183.740714 -68.745172 
L 182.725927 -67.888877 
L 181.71114 -67.054284 
L 180.696353 -66.240003 
L 179.681566 -65.446105 
L 178.666779 -64.673914 
L 177.651992 -63.925711 
L 176.637206 -63.204384 
L 175.622419 -62.513055 
L 174.607632 -61.854739 
L 173.592845 -61.232031 
L 172.578058 -60.646869 
L 171.563271 -60.100344 
L 170.548484 -59.59259 
L 169.533697 -59.122742 
L 168.51891 -58.688975 
L 167.504123 -58.288615 
L 166.489336 -57.918323 
L 165.474549 -57.574334 
L 164.459762 -57.252732 
L 163.444975 -56.949726 
L 162.430188 -56.661899 
L 161.415401 -56.386397 
L 160.400614 -56.121046 
L 159.385827 -55.864379 
L 158.37104 -55.615588 
L 157.356253 -55.374418 
L 156.341466 -55.141026 
L 155.326679 -54.915837 
L 154.311892 -54.699412 
L 153.297105 -54.492355 
L 152.282318 -54.295258 
L 151.267531 -54.108671 
L 150.252744 -53.933105 
L 149.237957 -53.769039 
L 148.22317 -53.616935 
L 147.208383 -53.477226 
L 146.193596 -53.35031 
L 145.17881 -53.236519 
L 144.164023 -53.136097 
L 143.149236 -53.049164 
L 142.134449 -52.975705 
L 141.119662 -52.915561 
L 140.104875 -52.868429 
L 139.090088 -52.83388 
L 138.075301 -52.81136 
L 137.060514 -52.800201 
L 136.045727 -52.799613 
L 135.03094 -52.808662 
L 134.016153 -52.826244 
L 133.001366 -52.851051 
L 131.986579 -52.881547 
L 130.971792 -52.915965 
L 129.957005 -52.95233 
L 128.942218 -52.988516 
L 127.927431 -53.02235 
L 126.912644 -53.051732 
L 125.897857 -53.074782 
L 124.88307 -53.089981 
L 123.868283 -53.096298 
L 122.853496 -53.093271 
L 121.838709 -53.081043 
L 120.823922 -53.060335 
L 119.809135 -53.032369 
L 118.794348 -52.998739 
L 117.779561 -52.961259 
L 116.764774 -52.921802 
L 115.749987 -52.882142 
L 114.735201 -52.843832 
L 113.720414 -52.808115 
L 112.705627 -52.775881 
L 111.69084 -52.747659 
L 110.676053 -52.723648 
L 109.661266 -52.703776 
L 108.646479 -52.687758 
L 107.631692 -52.675177 
L 106.616905 -52.66554 
L 105.602118 -52.658338 
L 104.587331 -52.653084 
L 103.572544 -52.649343 
L 102.557757 -52.64674 
L 101.54297 -52.64497 
L 100.528183 -52.643795 
L 99.513396 -52.643033 
L 98.498609 -52.642549 
L 97.483822 -52.642249 
L 96.469035 -52.642067 
L 95.454248 -52.641958 
L 94.439461 -52.641896 
L 93.424674 -52.64186 
L 92.409887 -52.641841 
L 91.3951 -52.64183 
L 90.380313 -52.641824 
L 89.365526 -52.641821 
L 88.350739 -52.64182 
L 87.335952 -52.641819 
L 86.321165 -52.641819 
L 85.306378 -52.641818 
L 84.291591 -52.641818 
L 83.276805 -52.641818 
L 82.262018 -52.641818 
L 81.247231 -52.641818 
L 80.232444 -52.641818 
L 79.217657 -52.641818 
L 78.20287 -52.641818 
L 77.188083 -52.641818 
L 76.173296 -52.641818 
L 75.158509 -52.641818 
L 74.143722 -52.641818 
L 73.128935 -52.641818 
L 72.114148 -52.641818 
L 71.099361 -52.641818 
L 70.084574 -52.641818 
L 69.069787 -52.641818 
L 68.055 -52.641818 
z
" style="stroke: #000000; stroke-opacity: 0.18"/>
    </defs>
    <g clip-path="url(#p6a11ca310e)">
     <use xlink:href="#m069ce97c6e" x="0" y="302.4" style="fill-opacity: 0.18; stroke: #000000; stroke-opacity: 0.18"/>
    </g>
   </g>
   <g id="matplotlib.axis_1">
    <g id="xtick_1">
     <g id="line2d_1">
      <defs>
       <path id="m2c85db0278" d="M 0 0 
L 0 3.5 
" style="stroke: #000000; stroke-width: 0.8"/>
      </defs>
      <g>
       <use xlink:href="#m2c85db0278" x="52.189816" y="260.44" style="stroke: #000000; stroke-width: 0.8"/>
      </g>
     </g>
     <g id="text_1">
      <text style="font-size: 10px; font-family: 'DejaVu Sans', 'Bitstream Vera Sans', 'Computer Modern Sans Serif', 'Lucida Grande', 'Verdana', 'Geneva', 'Lucid', 'Arial', 'Helvetica', 'Avant Garde', sans-serif; text-anchor: middle" x="52.189816" y="275.038438" transform="rotate(-0 52.189816 275.038438)">−2.0</text>
     </g>
    </g>
    <g id="xtick_2">
     <g id="line2d_2">
      <g>
       <use xlink:href="#m2c85db0278" x="107.372547" y="260.44" style="stroke: #000000; stroke-width: 0.8"/>
      </g>
     </g>
     <g id="text_2">
      <text style="font-size: 10px; font-family: 'DejaVu Sans', 'Bitstream Vera Sans', 'Computer Modern Sans Serif', 'Lucida Grande', 'Verdana', 'Geneva', 'Lucid', 'Arial', 'Helvetica', 'Avant Garde', sans-serif; text-anchor: middle" x="107.372547" y="275.038438" transform="rotate(-0 107.372547 275.038438)">−1.5</text>
     </g>
    </g>
    <g id="xtick_3">
     <g id="line2d_3">
      <g>
       <use xlink:href="#m2c85db0278" x="162.555278" y="260.44" style="stroke: #000000; stroke-width: 0.8"/>
      </g>
     </g>
     <g id="text_3">
      <text style="font-size: 10px; font-family: 'DejaVu Sans', 'Bitstream Vera Sans', 'Computer Modern Sans Serif', 'Lucida Grande', 'Verdana', 'Geneva', 'Lucid', 'Arial', 'Helvetica', 'Avant Garde', sans-serif; text-anchor: middle" x="162.555278" y="275.038438" transform="rotate(-0 162.555278 275.038438)">−1.0</text>
     </g>
    </g>
    <g id="xtick_4">
     <g id="line2d_4">
      <g>
       <use xlink:href="#m2c85db0278" x="217.738009" y="260.44" style="stroke: #000000; stroke-width: 0.8"/>
      </g>
     </g>
     <g id="text_4">
      <text style="font-size: 10px; font-family: 'DejaVu Sans', 'Bitstream Vera Sans', 'Computer Modern Sans Serif', 'Lucida Grande', 'Verdana', 'Geneva', 'Lucid', 'Arial', 'Helvetica', 'Avant Garde', sans-serif; text-anchor: middle" x="217.738009" y="275.038438" transform="rotate(-0 217.738009 275.038438)">−0.5</text>
     </g>
    </g>
    <g id="xtick_5">
     <g id="line2d_5">
      <g>
       <use xlink:href="#m2c85db0278" x="272.92074" y="260.44" style="stroke: #000000; stroke-width: 0.8"/>
      </g>
     </g>
     <g id="text_5">
      <text style="font-size: 10px; font-family: 'DejaVu Sans', 'Bitstream Vera Sans', 'Computer Modern Sans Serif', 'Lucida Grande', 'Verdana', 'Geneva', 'Lucid', 'Arial', 'Helvetica', 'Avant Garde', sans-serif; text-anchor: middle" x="272.92074" y="275.038438" transform="rotate(-0 272.92074 275.038438)">0.0</text>
     </g>
    </g>
    <g id="xtick_6">
     <g id="line2d_6">
      <g>
       <use xlink:href="#m2c85db0278" x="328.103471" y="260.44" style="stroke: #000000; stroke-width: 0.8"/>
      </g>
     </g>
     <g id="text_6">
      <text style="font-size: 10px; font-family: 'DejaVu Sans', 'Bitstream Vera Sans', 'Computer Modern Sans Serif', 'Lucida Grande', 'Verdana', 'Geneva', 'Lucid', 'Arial', 'Helvetica', 'Avant Garde', sans-serif; text-anchor: middle" x="328.103471" y="275.038438" transform="rotate(-0 328.103471 275.038438)">0.5</text>
     </g>
    </g>
    <g id="xtick_7">
     <g id="line2d_7">
      <g>
       <use xlink:href="#m2c85db0278" x="383.286202" y="260.44" style="stroke: #000000; stroke-width: 0.8"/>
      </g>
     </g>
     <g id="text_7">
      <text style="font-size: 10px; font-family: 'DejaVu Sans', 'Bitstream Vera Sans', 'Computer Modern Sans Serif', 'Lucida Grande', 'Verdana', 'Geneva', 'Lucid', 'Arial', 'Helvetica', 'Avant Garde', sans-serif; text-anchor: middle" x="383.286202" y="275.038438" transform="rotate(-0 383.286202 275.038438)">1.0</text>
     </g>
    </g>
    <g id="xtick_8">
     <g id="line2d_8">
      <g>
       <use xlink:href="#m2c85db0278" x="438.468933" y="260.44" style="stroke: #000000; stroke-width: 0.8"/>
      </g>
     </g>
     <g id="text_8">
      <text style="font-size: 10px; font-family: 'DejaVu Sans', 'Bitstream Vera Sans', 'Computer Modern Sans Serif', 'Lucida Grande', 'Verdana', 'Geneva', 'Lucid', 'Arial', 'Helvetica', 'Avant Garde', sans-serif; text-anchor: middle" x="438.468933" y="275.038438" transform="rotate(-0 438.468933 275.038438)">1.5</text>
     </g>
    </g>
    <g id="text_9">
     <text style="font-size: 10px; font-family: 'DejaVu Sans', 'Bitstream Vera Sans', 'Computer Modern Sans Serif', 'Lucida Grande', 'Verdana', 'Geneva', 'Lucid', 'Arial', 'Helvetica', 'Avant Garde', sans-serif; text-anchor: middle" x="270.505" y="288.716563" transform="rotate(-0 270.505 288.716563)">Mean event Tmax − mean control Tmax (°C)</text>
    </g>
   </g>
   <g id="matplotlib.axis_2">
    <g id="ytick_1">
     <g id="line2d_9">
      <defs>
       <path id="mbadca2cfa5" d="M 0 0 
L -3.5 0 
" style="stroke: #000000; stroke-width: 0.8"/>
      </defs>
      <g>
       <use xlink:href="#mbadca2cfa5" x="47.81" y="249.758182" style="stroke: #000000; stroke-width: 0.8"/>
      </g>
     </g>
     <g id="text_10">
      <text style="font-size: 10px; font-family: 'DejaVu Sans', 'Bitstream Vera Sans', 'Computer Modern Sans Serif', 'Lucida Grande', 'Verdana', 'Geneva', 'Lucid', 'Arial', 'Helvetica', 'Avant Garde', sans-serif; text-anchor: end" x="40.81" y="253.557401" transform="rotate(-0 40.81 253.557401)">0.0</text>
     </g>
    </g>
    <g id="ytick_2">
     <g id="line2d_10">
      <g>
       <use xlink:href="#mbadca2cfa5" x="47.81" y="213.549692" style="stroke: #000000; stroke-width: 0.8"/>
      </g>
     </g>
     <g id="text_11">
      <text style="font-size: 10px; font-family: 'DejaVu Sans', 'Bitstream Vera Sans', 'Computer Modern Sans Serif', 'Lucida Grande', 'Verdana', 'Geneva', 'Lucid', 'Arial', 'Helvetica', 'Avant Garde', sans-serif; text-anchor: end" x="40.81" y="217.348911" transform="rotate(-0 40.81 217.348911)">0.2</text>
     </g>
    </g>
    <g id="ytick_3">
     <g id="line2d_11">
      <g>
       <use xlink:href="#mbadca2cfa5" x="47.81" y="177.341202" style="stroke: #000000; stroke-width: 0.8"/>
      </g>
     </g>
     <g id="text_12">
      <text style="font-size: 10px; font-family: 'DejaVu Sans', 'Bitstream Vera Sans', 'Computer Modern Sans Serif', 'Lucida Grande', 'Verdana', 'Geneva', 'Lucid', 'Arial', 'Helvetica', 'Avant Garde', sans-serif; text-anchor: end" x="40.81" y="181.140421" transform="rotate(-0 40.81 181.140421)">0.4</text>
     </g>
    </g>
    <g id="ytick_4">
     <g id="line2d_12">
      <g>
       <use xlink:href="#mbadca2cfa5" x="47.81" y="141.132712" style="stroke: #000000; stroke-width: 0.8"/>
      </g>
     </g>
     <g id="text_13">
      <text style="font-size: 10px; font-family: 'DejaVu Sans', 'Bitstream Vera Sans', 'Computer Modern Sans Serif', 'Lucida Grande', 'Verdana', 'Geneva', 'Lucid', 'Arial', 'Helvetica', 'Avant Garde', sans-serif; text-anchor: end" x="40.81" y="144.931931" transform="rotate(-0 40.81 144.931931)">0.6</text>
     </g>
    </g>
    <g id="ytick_5">
     <g id="line2d_13">
      <g>
       <use xlink:href="#mbadca2cfa5" x="47.81" y="104.924223" style="stroke: #000000; stroke-width: 0.8"/>
      </g>
     </g>
     <g id="text_14">
      <text style="font-size: 10px; font-family: 'DejaVu Sans', 'Bitstream Vera Sans', 'Computer Modern Sans Serif', 'Lucida Grande', 'Verdana', 'Geneva', 'Lucid', 'Arial', 'Helvetica', 'Avant Garde', sans-serif; text-anchor: end" x="40.81" y="108.723441" transform="rotate(-0 40.81 108.723441)">0.8</text>
     </g>
    </g>
    <g id="ytick_6">
     <g id="line2d_14">
      <g>
       <use xlink:href="#mbadca2cfa5" x="47.81" y="68.715733" style="stroke: #000000; stroke-width: 0.8"/>
      </g>
     </g>
     <g id="text_15">
      <text style="font-size: 10px; font-family: 'DejaVu Sans', 'Bitstream Vera Sans', 'Computer Modern Sans Serif', 'Lucida Grande', 'Verdana', 'Geneva', 'Lucid', 'Arial', 'Helvetica', 'Avant Garde', sans-serif; text-anchor: end" x="40.81" y="72.514952" transform="rotate(-0 40.81 72.514952)">1.0</text>
     </g>
    </g>
    <g id="ytick_7">
     <g id="line2d_15">
      <g>
       <use xlink:href="#mbadca2cfa5" x="47.81" y="32.507243" style="stroke: #000000; stroke-width: 0.8"/>
      </g>
     </g>
     <g id="text_16">
      <text style="font-size: 10px; font-family: 'DejaVu Sans', 'Bitstream Vera Sans', 'Computer Modern Sans Serif', 'Lucida Grande', 'Verdana', 'Geneva', 'Lucid', 'Arial', 'Helvetica', 'Avant Garde', sans-serif; text-anchor: end" x="40.81" y="36.306462" transform="rotate(-0 40.81 36.306462)">1.2</text>
     </g>
    </g>
    <g id="text_17">
     <text style="font-size: 10px; font-family: 'DejaVu Sans', 'Bitstream Vera Sans', 'Computer Modern Sans Serif', 'Lucida Grande', 'Verdana', 'Geneva', 'Lucid', 'Arial', 'Helvetica', 'Avant Garde', sans-serif; text-anchor: middle" x="18.827188" y="142.94" transform="rotate(-90 18.827188 142.94)">Permutation density</text>
    </g>
   </g>
   <g id="line2d_16">
    <path d="M 68.055 249.758182 
L 111.69084 249.652341 
L 125.897857 249.325218 
L 139.090088 249.56612 
L 143.149236 249.350836 
L 147.208383 248.922774 
L 151.267531 248.291329 
L 156.341466 247.258974 
L 161.415401 246.013603 
L 165.474549 244.825666 
L 168.51891 243.711025 
L 171.563271 242.299656 
L 174.607632 240.545261 
L 177.651992 238.474289 
L 181.71114 235.345716 
L 185.770288 231.864117 
L 188.814649 228.9034 
L 190.844223 226.674903 
L 192.873797 224.195953 
L 194.903371 221.447265 
L 196.932945 218.427536 
L 199.977306 213.413945 
L 203.021667 207.88514 
L 207.080815 199.971615 
L 214.184323 185.660937 
L 216.213897 181.266344 
L 218.243471 176.463635 
L 220.273045 171.097857 
L 222.302619 165.092494 
L 224.332193 158.489698 
L 228.391341 144.260844 
L 231.435702 133.777303 
L 234.480063 124.247134 
L 237.524424 115.722902 
L 243.613145 99.86196 
L 249.701867 84.295276 
L 252.746228 77.134037 
L 256.805376 68.263196 
L 261.879311 57.207185 
L 266.953246 46.105685 
L 268.98282 42.240997 
L 269.997607 40.571016 
L 271.012393 39.12409 
L 272.02718 37.932482 
L 273.041967 37.023073 
L 274.056754 36.415683 
L 275.071541 36.121818 
L 276.086328 36.144014 
L 277.101115 36.475876 
L 278.115902 37.102853 
L 279.130689 38.003693 
L 280.145476 39.152414 
L 281.160263 40.520591 
L 283.189837 43.8032 
L 285.219411 47.657421 
L 287.248985 51.962872 
L 289.278559 56.680061 
L 291.308133 61.823979 
L 293.337707 67.4201 
L 296.382068 76.632992 
L 300.441216 89.967676 
L 305.51515 106.723836 
L 309.574298 119.371136 
L 318.707381 147.361909 
L 324.796103 167.168212 
L 329.870038 183.606362 
L 332.914398 192.716173 
L 334.943972 198.170394 
L 336.973546 202.991275 
L 339.00312 207.138776 
L 341.032694 210.661037 
L 343.062268 213.679012 
L 345.091842 216.346133 
L 348.136203 219.976226 
L 352.195351 224.413071 
L 355.239712 227.36998 
L 358.284073 229.918882 
L 361.328434 232.142107 
L 369.446729 237.890866 
L 373.505877 240.731142 
L 376.550238 242.526446 
L 379.594599 243.939703 
L 382.63896 245.039345 
L 386.698108 246.214653 
L 390.757256 247.179171 
L 394.816404 247.941729 
L 399.890338 248.633956 
L 404.964273 249.078521 
L 410.038208 249.30802 
L 428.304373 249.682645 
L 439.46703 249.756298 
L 472.955 249.758182 
L 472.955 249.758182 
" clip-path="url(#p6a11ca310e)" style="fill: none; stroke: #000000; stroke-width: 1.2; stroke-linecap: square"/>
   </g>
   <g id="line2d_17">
    <path d="M 272.92074 260.44 
L 272.92074 25.44 
" clip-path="url(#p6a11ca310e)" style="fill: none; stroke-dasharray: 2.59,1.12; stroke-dashoffset: 0; stroke: #000000; stroke-opacity: 0.5; stroke-width: 0.7"/>
   </g>
   <g id="line2d_18">
    <path d="M 389.140057 260.44 
L 389.140057 25.44 
" clip-path="url(#p6a11ca310e)" style="fill: none; stroke: #d55e00; stroke-width: 2; stroke-linecap: square"/>
   </g>
   <g id="patch_3">
    <path d="M 47.81 260.44 
L 47.81 25.44 
" style="fill: none; stroke: #000000; stroke-width: 0.8; stroke-linejoin: miter; stroke-linecap: square"/>
   </g>
   <g id="patch_4">
    <path d="M 493.2 260.44 
L 493.2 25.44 
" style="fill: none; stroke: #000000; stroke-width: 0.8; stroke-linejoin: miter; stroke-linecap: square"/>
   </g>
   <g id="patch_5">
    <path d="M 47.81 260.44 
L 493.2 260.44 
" style="fill: none; stroke: #000000; stroke-width: 0.8; stroke-linejoin: miter; stroke-linecap: square"/>
   </g>
   <g id="patch_6">
    <path d="M 47.81 25.44 
L 493.2 25.44 
" style="fill: none; stroke: #000000; stroke-width: 0.8; stroke-linejoin: miter; stroke-linecap: square"/>
   </g>
   <g id="text_18">
    <g id="patch_7">
     <path d="M 52.7578 42.858125 
L 163.625144 42.858125 
L 163.625144 26.18 
L 52.7578 26.18 
z
" style="fill: #ffffff; opacity: 0.92; stroke: #808080; stroke-linejoin: miter"/>
    </g>
    <text style="font-size: 9px; font-family: 'DejaVu Sans Mono', 'Bitstream Vera Sans Mono', 'Computer Modern Typewriter', 'Andale Mono', 'Nimbus Mono L', 'Courier New', 'Courier', 'Fixed', 'Terminal', monospace; text-anchor: start" x="56.7178" y="37.026406" transform="rotate(-0 56.7178 37.026406)">two-sided p = 0.003</text>
   </g>
   <g id="text_19">
    <text style="font-size: 12px; font-family: 'DejaVu Sans', 'Bitstream Vera Sans', 'Computer Modern Sans Serif', 'Lucida Grande', 'Verdana', 'Geneva', 'Lucid', 'Arial', 'Helvetica', 'Avant Garde', sans-serif; text-anchor: middle" x="270.505" y="19.44" transform="rotate(-0 270.505 19.44)">H2 permutation null vs observed statistic</text>
   </g>
   <g id="legend_1">
    <g id="patch_8">
     <path d="M 346.049062 57.192813 
L 487.25 57.192813 
Q 488.95 57.192813 488.95 55.492813 
L 488.95 31.39 
Q 488.95 29.69 487.25 29.69 
L 346.049062 29.69 
Q 344.349063 29.69 344.349063 31.39 
L 344.349063 55.492813 
Q 344.349063 57.192813 346.049062 57.192813 
z
" style="fill: #ffffff; opacity: 0.92; stroke: #cccccc; stroke-linejoin: miter"/>
    </g>
    <g id="patch_9">
     <path d="M 347.749062 39.548672 
L 364.749062 39.548672 
L 364.749062 33.598672 
L 347.749062 33.598672 
z
" style="fill-opacity: 0.18; stroke: #000000; stroke-opacity: 0.18; stroke-linejoin: miter"/>
    </g>
    <g id="text_20">
     <text style="font-size: 8.5px; font-family: 'DejaVu Sans', 'Bitstream Vera Sans', 'Computer Modern Sans Serif', 'Lucida Grande', 'Verdana', 'Geneva', 'Lucid', 'Arial', 'Helvetica', 'Avant Garde', sans-serif; text-anchor: start" x="371.549062" y="39.548672" transform="rotate(-0 371.549062 39.548672)">Permutation null (B=5000)</text>
    </g>
    <g id="line2d_19">
     <path d="M 347.749062 49.050078 
L 356.249062 49.050078 
L 364.749062 49.050078 
" style="fill: none; stroke: #d55e00; stroke-width: 2; stroke-linecap: square"/>
    </g>
    <g id="text_21">
     <text style="font-size: 8.5px; font-family: 'DejaVu Sans', 'Bitstream Vera Sans', 'Computer Modern Sans Serif', 'Lucida Grande', 'Verdana', 'Geneva', 'Lucid', 'Arial', 'Helvetica', 'Avant Garde', sans-serif; text-anchor: start" x="371.549062" y="52.025078" transform="rotate(-0 371.549062 52.025078)">Observed = +1.053 °C</text>
    </g>
   </g>
  </g>
 </g>
 <defs>
  <clipPath id="p6a11ca310e">
   <rect x="47.81" y="25.44" width="445.39" height="235"/>
  </clipPath>
 </defs>
</svg>
