<?xml version="1.0" encoding="utf-8" standalone="no"?>
<!DOCTYPE svg PUBLIC "-//W3C//DTD SVG 1.1//EN"
  "http://www.w3.org/Graphics/SVG/1.1/DTD/svg11.dtd">
<svg xmlns:xlink="http://www.w3.org/1999/xlink" width="648pt" height="324pt" viewBox="0 0 648 324" xmlns="http://www.w3.org/2000/svg" version="1.1">
 <metadata>
  <rdf:RDF xmlns:dc="http://purl.org/dc/elements/1.1/" xmlns:cc="http://creativecommons.org/ns#" xmlns:rdf="http://www.w3.org/1999/02/22-rdf-syntax-ns#">
   <cc:Work>
    <dc:type rdf:resource="http://purl.org/dc/dcmitype/StillImage"/>
    <dc:date>2026-05-24T22:17:46.137440</dc:date>
    <dc:format>image/svg+xml</dc:format>
    <dc:creator>
     <cc:Agent>
      <dc:title>Matplotlib v3.10.9, https://matplotlib.org/</dc:title>
     </cc:Agent>
    </dc:creator>
   </cc:Work>
  </rdf:RDF>
 </metadata>
 <defs>
  <style type="text/css">*{stroke-linejoin: round; stroke-linecap: butt}</style>
 </defs>
 <g id="figure_1">
  <g id="patch_1">
   <path d="M 0 324 
L 648 324 
L 648 0 
L 0 0 
z
" style="fill: #ffffff"/>
  </g>
  <g id="axes_1">
   <g id="patch_2">
    <path d="M 53.03 295.4 
L 637.2 295.4 
L 637.2 25.44 
L 53.03 25.44 
z
" style="fill: #ffffff"/>
   </g>
   <g id="FillBetweenPolyCollection_1">
    <defs>
     <path id="mf513310f5e" d="M 162.653936 -73.350828 
L 160.127833 -73.350828 
L 160.127833 -74.026554 
L 160.127833 -74.702279 
L 160.127833 -75.378005 
L 160.127833 -76.05373 
L 160.127833 -76.729456 
L 160.127833 -77.405181 
L 160.127833 -78.080907 
L 160.127833 -78.756632 
L 160.127833 -79.432358 
L 160.127833 -80.108083 
L 160.127833 -80.783808 
L 160.127833 -81.459534 
L 160.127833 -82.135259 
L 160.127833 -82.810985 
L 160.127833 -83.48671 
L 160.127833 -84.162436 
L 160.127833 -84.838161 
L 160.127833 -85.513887 
L 160.127833 -86.189612 
L 160.127833 -86.865338 
L 160.127833 -87.541063 
L 160.127833 -88.216788 
L 160.127833 -88.892514 
L 160.127833 -89.568239 
L 160.127833 -90.243965 
L 160.127833 -90.91969 
L 160.127833 -91.595416 
L 160.127833 -92.271141 
L 160.127833 -92.946867 
L 160.127833 -93.622592 
L 160.127833 -94.298318 
L 160.127833 -94.974043 
L 160.127833 -95.649769 
L 160.127833 -96.325494 
L 160.127833 -97.001219 
L 160.127833 -97.676945 
L 160.127833 -98.35267 
L 160.127833 -99.028396 
L 160.127833 -99.704121 
L 160.127833 -100.379847 
L 160.127833 -101.055572 
L 160.127833 -101.731298 
L 160.127833 -102.407023 
L 160.127833 -103.082749 
L 160.127833 -103.758474 
L 160.127833 -104.434199 
L 160.127833 -105.109925 
L 160.127833 -105.78565 
L 160.127833 -106.461376 
L 160.127833 -107.137101 
L 160.127833 -107.812827 
L 160.127833 -108.488552 
L 160.127833 -109.164278 
L 160.127833 -109.840003 
L 160.127833 -110.515729 
L 160.127833 -111.191454 
L 160.127833 -111.867179 
L 160.127833 -112.542905 
L 160.127833 -113.21863 
L 160.127833 -113.894356 
L 160.127833 -114.570081 
L 160.127833 -115.245807 
L 160.127833 -115.921532 
L 160.127833 -116.597258 
L 160.127833 -117.272983 
L 160.127833 -117.948709 
L 160.127833 -118.624434 
L 160.127833 -119.30016 
L 160.127833 -119.975885 
L 160.127833 -120.65161 
L 160.127833 -121.327336 
L 160.127833 -122.003061 
L 160.127833 -122.678787 
L 160.127833 -123.354512 
L 160.127833 -124.030238 
L 160.127833 -124.705963 
L 160.127833 -125.381689 
L 160.127833 -126.057414 
L 160.127833 -126.73314 
L 160.127833 -127.408865 
L 160.127833 -128.08459 
L 160.127833 -128.760316 
L 160.127833 -129.436041 
L 160.127833 -130.111767 
L 160.127833 -130.787492 
L 160.127833 -131.463218 
L 160.127833 -132.138943 
L 160.127833 -132.814669 
L 160.127833 -133.490394 
L 160.127833 -134.16612 
L 160.127833 -134.841845 
L 160.127833 -135.517571 
L 160.127833 -136.193296 
L 160.127833 -136.869021 
L 160.127833 -137.544747 
L 160.127833 -138.220472 
L 160.127833 -138.896198 
L 160.127833 -139.571923 
L 160.127833 -140.247649 
L 160.127833 -140.923374 
L 160.127833 -141.5991 
L 160.127833 -142.274825 
L 160.127833 -142.950551 
L 160.127833 -143.626276 
L 160.127833 -144.302001 
L 160.127833 -144.977727 
L 160.127833 -145.653452 
L 160.127833 -146.329178 
L 160.127833 -147.004903 
L 160.127833 -147.680629 
L 160.127833 -148.356354 
L 160.127833 -149.03208 
L 160.127833 -149.707805 
L 160.127833 -150.383531 
L 160.127833 -151.059256 
L 160.127833 -151.734982 
L 160.127833 -152.410707 
L 160.127833 -153.086432 
L 160.127833 -153.762158 
L 160.127833 -154.437883 
L 160.127833 -155.113609 
L 160.127833 -155.789334 
L 160.127833 -156.46506 
L 160.127833 -157.140785 
L 160.127833 -157.816511 
L 160.127833 -158.492236 
L 160.127833 -159.167962 
L 160.127833 -159.843687 
L 160.127833 -160.519412 
L 160.127833 -161.195138 
L 160.127833 -161.870863 
L 160.127833 -162.546589 
L 160.127833 -163.222314 
L 160.127833 -163.89804 
L 160.127833 -164.573765 
L 160.127833 -165.249491 
L 160.127833 -165.925216 
L 160.127833 -166.600942 
L 160.127833 -167.276667 
L 160.127833 -167.952392 
L 160.127833 -168.628118 
L 160.127833 -169.303843 
L 160.127833 -169.979569 
L 160.127833 -170.655294 
L 160.127833 -171.33102 
L 160.127833 -172.006745 
L 160.127833 -172.682471 
L 160.127833 -173.358196 
L 160.127833 -174.033922 
L 160.127833 -174.709647 
L 160.127833 -175.385373 
L 160.127833 -176.061098 
L 160.127833 -176.736823 
L 160.127833 -177.412549 
L 160.127833 -178.088274 
L 160.127833 -178.764 
L 160.127833 -179.439725 
L 160.127833 -180.115451 
L 160.127833 -180.791176 
L 160.127833 -181.466902 
L 160.127833 -182.142627 
L 160.127833 -182.818353 
L 160.127833 -183.494078 
L 160.127833 -184.169803 
L 160.127833 -184.845529 
L 160.127833 -185.521254 
L 160.127833 -186.19698 
L 160.127833 -186.872705 
L 160.127833 -187.548431 
L 160.127833 -188.224156 
L 160.127833 -188.899882 
L 160.127833 -189.575607 
L 160.127833 -190.251333 
L 160.127833 -190.927058 
L 160.127833 -191.602784 
L 160.127833 -192.278509 
L 160.127833 -192.954234 
L 160.127833 -193.62996 
L 160.127833 -194.305685 
L 160.127833 -194.981411 
L 160.127833 -195.657136 
L 160.127833 -196.332862 
L 160.127833 -197.008587 
L 160.127833 -197.684313 
L 160.127833 -198.360038 
L 160.127833 -199.035764 
L 160.127833 -199.711489 
L 160.127833 -200.387214 
L 160.127833 -201.06294 
L 160.127833 -201.738665 
L 160.127833 -202.414391 
L 160.127833 -203.090116 
L 160.127833 -203.765842 
L 160.127833 -204.441567 
L 160.127833 -205.117293 
L 160.127833 -205.793018 
L 160.127833 -206.468744 
L 160.127833 -207.144469 
L 160.127833 -207.820195 
L 160.127833 -208.49592 
L 160.127833 -209.171645 
L 160.127833 -209.847371 
L 160.127833 -210.523096 
L 160.127833 -211.198822 
L 160.127833 -211.874547 
L 160.127833 -212.550273 
L 160.127833 -213.225998 
L 160.127833 -213.901724 
L 160.127833 -214.577449 
L 160.127833 -215.253175 
L 160.127833 -215.9289 
L 160.127833 -216.604625 
L 160.127833 -217.280351 
L 160.127833 -217.956076 
L 160.127833 -218.631802 
L 160.127833 -219.307527 
L 160.127833 -219.983253 
L 160.127833 -220.658978 
L 160.127833 -221.334704 
L 160.127833 -222.010429 
L 160.127833 -222.686155 
L 160.127833 -223.36188 
L 160.127833 -224.037605 
L 160.127833 -224.713331 
L 160.127833 -225.389056 
L 160.127833 -226.064782 
L 160.127833 -226.740507 
L 160.127833 -227.416233 
L 160.127833 -228.091958 
L 160.127833 -228.767684 
L 160.127833 -229.443409 
L 160.127833 -230.119135 
L 160.127833 -230.79486 
L 160.127833 -231.470586 
L 160.127833 -232.146311 
L 160.127833 -232.822036 
L 160.127833 -233.497762 
L 160.127833 -234.173487 
L 160.127833 -234.849213 
L 160.127833 -235.524938 
L 160.127833 -236.200664 
L 160.127833 -236.876389 
L 160.127833 -237.552115 
L 160.127833 -238.22784 
L 160.127833 -238.903566 
L 160.127833 -239.579291 
L 160.127833 -240.255016 
L 160.127833 -240.930742 
L 160.127833 -241.606467 
L 160.127833 -242.282193 
L 160.127833 -242.957918 
L 160.127833 -243.633644 
L 160.127833 -244.309369 
L 160.127833 -244.985095 
L 160.127833 -245.66082 
L 160.127833 -246.336546 
L 160.127833 -247.012271 
L 160.127833 -247.687997 
L 160.127833 -248.363722 
L 160.127833 -249.039447 
L 160.127833 -249.715173 
L 160.127833 -250.390898 
L 160.127833 -251.066624 
L 160.127833 -251.742349 
L 160.127833 -252.418075 
L 160.127833 -253.0938 
L 160.127833 -253.769526 
L 160.127833 -254.445251 
L 160.127833 -255.120977 
L 160.127833 -255.796702 
L 160.127833 -256.472427 
L 160.127833 -257.148153 
L 160.127833 -257.823878 
L 160.127833 -258.499604 
L 160.127833 -259.175329 
L 160.127833 -259.851055 
L 160.127833 -260.52678 
L 160.127833 -261.202506 
L 160.127833 -261.878231 
L 160.127833 -262.553957 
L 160.127833 -263.229682 
L 160.127833 -263.905408 
L 160.127833 -264.581133 
L 160.127833 -265.256858 
L 160.127833 -265.932584 
L 160.127833 -266.608309 
L 160.127833 -267.284035 
L 160.127833 -267.95976 
L 160.127833 -268.635486 
L 160.127833 -269.311211 
L 160.127833 -269.986937 
L 160.127833 -270.662662 
L 160.127833 -271.338388 
L 160.127833 -272.014113 
L 160.127833 -272.689838 
L 160.127833 -273.365564 
L 160.127833 -274.041289 
L 160.127833 -274.717015 
L 160.127833 -275.39274 
L 161.593505 -275.39274 
L 161.593505 -275.39274 
L 161.66248 -274.717015 
L 161.732336 -274.041289 
L 161.803011 -273.365564 
L 161.874451 -272.689838 
L 161.946617 -272.014113 
L 162.019483 -271.338388 
L 162.093039 -270.662662 
L 162.167288 -269.986937 
L 162.242254 -269.311211 
L 162.317974 -268.635486 
L 162.394504 -267.95976 
L 162.471915 -267.284035 
L 162.550293 -266.608309 
L 162.629739 -265.932584 
L 162.710368 -265.256858 
L 162.792306 -264.581133 
L 162.875688 -263.905408 
L 162.960658 -263.229682 
L 163.047365 -262.553957 
L 163.135959 -261.878231 
L 163.226594 -261.202506 
L 163.319419 -260.52678 
L 163.414582 -259.851055 
L 163.51222 -259.175329 
L 163.612465 -258.499604 
L 163.715434 -257.823878 
L 163.821235 -257.148153 
L 163.929957 -256.472427 
L 164.041678 -255.796702 
L 164.156453 -255.120977 
L 164.274325 -254.445251 
L 164.395317 -253.769526 
L 164.519433 -253.0938 
L 164.646664 -252.418075 
L 164.77698 -251.742349 
L 164.910342 -251.066624 
L 165.046693 -250.390898 
L 165.185969 -249.715173 
L 165.328097 -249.039447 
L 165.472997 -248.363722 
L 165.620588 -247.687997 
L 165.770788 -247.012271 
L 165.923518 -246.336546 
L 166.078707 -245.66082 
L 166.236293 -244.985095 
L 166.396226 -244.309369 
L 166.558474 -243.633644 
L 166.723021 -242.957918 
L 166.889873 -242.282193 
L 167.059061 -241.606467 
L 167.23064 -240.930742 
L 167.404693 -240.255016 
L 167.581331 -239.579291 
L 167.760694 -238.903566 
L 167.942954 -238.22784 
L 168.128312 -237.552115 
L 168.316998 -236.876389 
L 168.509272 -236.200664 
L 168.705422 -235.524938 
L 168.905761 -234.849213 
L 169.110628 -234.173487 
L 169.320382 -233.497762 
L 169.535404 -232.822036 
L 169.756088 -232.146311 
L 169.982845 -231.470586 
L 170.216092 -230.79486 
L 170.456253 -230.119135 
L 170.703755 -229.443409 
L 170.959022 -228.767684 
L 171.222472 -228.091958 
L 171.494513 -227.416233 
L 171.775537 -226.740507 
L 172.065918 -226.064782 
L 172.366007 -225.389056 
L 172.676128 -224.713331 
L 172.996572 -224.037605 
L 173.327598 -223.36188 
L 173.669423 -222.686155 
L 174.022224 -222.010429 
L 174.386129 -221.334704 
L 174.761221 -220.658978 
L 175.147529 -219.983253 
L 175.545029 -219.307527 
L 175.95364 -218.631802 
L 176.373224 -217.956076 
L 176.803583 -217.280351 
L 177.24446 -216.604625 
L 177.695535 -215.9289 
L 178.15643 -215.253175 
L 178.626706 -214.577449 
L 179.105865 -213.901724 
L 179.59335 -213.225998 
L 180.088552 -212.550273 
L 180.590806 -211.874547 
L 181.099401 -211.198822 
L 181.613579 -210.523096 
L 182.132543 -209.847371 
L 182.65546 -209.171645 
L 183.181469 -208.49592 
L 183.709684 -207.820195 
L 184.239206 -207.144469 
L 184.769127 -206.468744 
L 185.298537 -205.793018 
L 185.826537 -205.117293 
L 186.352245 -204.441567 
L 186.874803 -203.765842 
L 187.393391 -203.090116 
L 187.907233 -202.414391 
L 188.415608 -201.738665 
L 188.917859 -201.06294 
L 189.413401 -200.387214 
L 189.901731 -199.711489 
L 190.382438 -199.035764 
L 190.855206 -198.360038 
L 191.319826 -197.684313 
L 191.7762 -197.008587 
L 192.224345 -196.332862 
L 192.664401 -195.657136 
L 193.096632 -194.981411 
L 193.521426 -194.305685 
L 193.9393 -193.62996 
L 194.350896 -192.954234 
L 194.75698 -192.278509 
L 195.15844 -191.602784 
L 195.556279 -190.927058 
L 195.951609 -190.251333 
L 196.345645 -189.575607 
L 196.739693 -188.899882 
L 197.135144 -188.224156 
L 197.533458 -187.548431 
L 197.936153 -186.872705 
L 198.344792 -186.19698 
L 198.760968 -185.521254 
L 199.186285 -184.845529 
L 199.622349 -184.169803 
L 200.070744 -183.494078 
L 200.533017 -182.818353 
L 201.010663 -182.142627 
L 201.505105 -181.466902 
L 202.017675 -180.791176 
L 202.5496 -180.115451 
L 203.101983 -179.439725 
L 203.675785 -178.764 
L 204.271814 -178.088274 
L 204.890701 -177.412549 
L 205.532896 -176.736823 
L 206.198647 -176.061098 
L 206.88799 -175.385373 
L 207.60074 -174.709647 
L 208.336479 -174.033922 
L 209.09455 -173.358196 
L 209.874048 -172.682471 
L 210.673821 -172.006745 
L 211.492462 -171.33102 
L 212.328308 -170.655294 
L 213.179447 -169.979569 
L 214.043718 -169.303843 
L 214.918714 -168.628118 
L 215.801797 -167.952392 
L 216.6901 -167.276667 
L 217.580546 -166.600942 
L 218.469862 -165.925216 
L 219.354591 -165.249491 
L 220.231119 -164.573765 
L 221.095691 -163.89804 
L 221.944435 -163.222314 
L 222.773393 -162.546589 
L 223.578539 -161.870863 
L 224.355818 -161.195138 
L 225.101168 -160.519412 
L 225.810555 -159.843687 
L 226.480007 -159.167962 
L 227.105642 -158.492236 
L 227.683704 -157.816511 
L 228.210595 -157.140785 
L 228.682908 -156.46506 
L 229.097456 -155.789334 
L 229.451303 -155.113609 
L 229.741793 -154.437883 
L 229.966576 -153.762158 
L 230.123629 -153.086432 
L 230.211282 -152.410707 
L 230.228233 -151.734982 
L 230.173563 -151.059256 
L 230.046746 -150.383531 
L 229.847659 -149.707805 
L 229.576585 -149.03208 
L 229.234211 -148.356354 
L 228.821624 -147.680629 
L 228.340303 -147.004903 
L 227.792108 -146.329178 
L 227.179259 -145.653452 
L 226.504322 -144.977727 
L 225.770182 -144.302001 
L 224.980016 -143.626276 
L 224.137269 -142.950551 
L 223.245616 -142.274825 
L 222.308931 -141.5991 
L 221.331253 -140.923374 
L 220.316748 -140.247649 
L 219.269674 -139.571923 
L 218.19434 -138.896198 
L 217.095072 -138.220472 
L 215.976177 -137.544747 
L 214.841907 -136.869021 
L 213.696422 -136.193296 
L 212.543766 -135.517571 
L 211.38783 -134.841845 
L 210.232328 -134.16612 
L 209.080773 -133.490394 
L 207.936459 -132.814669 
L 206.802435 -132.138943 
L 205.681499 -131.463218 
L 204.576182 -130.787492 
L 203.488742 -130.111767 
L 202.42116 -129.436041 
L 201.375135 -128.760316 
L 200.352091 -128.08459 
L 199.353181 -127.408865 
L 198.379291 -126.73314 
L 197.431052 -126.057414 
L 196.508858 -125.381689 
L 195.612869 -124.705963 
L 194.743039 -124.030238 
L 193.899127 -123.354512 
L 193.080715 -122.678787 
L 192.28723 -122.003061 
L 191.517966 -121.327336 
L 190.772097 -120.65161 
L 190.048703 -119.975885 
L 189.346789 -119.30016 
L 188.665298 -118.624434 
L 188.003137 -117.948709 
L 187.35919 -117.272983 
L 186.732333 -116.597258 
L 186.12145 -115.921532 
L 185.525446 -115.245807 
L 184.943259 -114.570081 
L 184.373867 -113.894356 
L 183.816303 -113.21863 
L 183.269654 -112.542905 
L 182.733073 -111.867179 
L 182.20578 -111.191454 
L 181.687062 -110.515729 
L 181.176283 -109.840003 
L 180.672873 -109.164278 
L 180.176338 -108.488552 
L 179.686248 -107.812827 
L 179.202242 -107.137101 
L 178.724021 -106.461376 
L 178.251347 -105.78565 
L 177.784035 -105.109925 
L 177.321949 -104.434199 
L 176.865001 -103.758474 
L 176.413142 -103.082749 
L 175.966359 -102.407023 
L 175.524669 -101.731298 
L 175.088115 -101.055572 
L 174.656763 -100.379847 
L 174.230696 -99.704121 
L 173.810008 -99.028396 
L 173.394807 -98.35267 
L 172.985205 -97.676945 
L 172.581319 -97.001219 
L 172.183267 -96.325494 
L 171.791167 -95.649769 
L 171.405136 -94.974043 
L 171.025284 -94.298318 
L 170.651719 -93.622592 
L 170.284543 -92.946867 
L 169.923851 -92.271141 
L 169.569731 -91.595416 
L 169.222266 -90.91969 
L 168.88153 -90.243965 
L 168.547592 -89.568239 
L 168.220513 -88.892514 
L 167.900348 -88.216788 
L 167.587148 -87.541063 
L 167.280955 -86.865338 
L 166.981808 -86.189612 
L 166.68974 -85.513887 
L 166.404779 -84.838161 
L 166.126949 -84.162436 
L 165.85627 -83.48671 
L 165.592757 -82.810985 
L 165.336422 -82.135259 
L 165.08727 -81.459534 
L 164.845305 -80.783808 
L 164.610525 -80.108083 
L 164.382924 -79.432358 
L 164.162491 -78.756632 
L 163.94921 -78.080907 
L 163.74306 -77.405181 
L 163.544013 -76.729456 
L 163.352037 -76.05373 
L 163.167091 -75.378005 
L 162.989129 -74.702279 
L 162.818098 -74.026554 
L 162.653936 -73.350828 
z
"/>
    </defs>
    <g clip-path="url(#p07e85859fb)">
     <use xlink:href="#mf513310f5e" x="0" y="324" style="fill: #d55e00; fill-opacity: 0.45"/>
    </g>
   </g>
   <g id="PathCollection_1">
    <defs>
     <path id="C0_0_e7dcee2d17" d="M 0 2.345208 
C 0.621956 2.345208 1.218523 2.098102 1.658312 1.658312 
C 2.098102 1.218523 2.345208 0.621956 2.345208 -0 
C 2.345208 -0.621956 2.098102 -1.218523 1.658312 -1.658312 
C 1.218523 -2.098102 0.621956 -2.345208 0 -2.345208 
C -0.621956 -2.345208 -1.218523 -2.098102 -1.658312 -1.658312 
C -2.098102 -1.218523 -2.345208 -0.621956 -2.345208 0 
C -2.345208 0.621956 -2.098102 1.218523 -1.658312 1.658312 
C -1.218523 2.098102 -0.621956 2.345208 0 2.345208 
z
"/>
    </defs>
    <g clip-path="url(#p07e85859fb)">
     <use xlink:href="#C0_0_e7dcee2d17" x="121.436399" y="159.053477" style="fill: #56b4e9; fill-opacity: 0.78; stroke: #000000; stroke-opacity: 0.78; stroke-width: 0.3"/>
    </g>
    <g clip-path="url(#p07e85859fb)">
     <use xlink:href="#C0_0_e7dcee2d17" x="95.449765" y="136.447822" style="fill: #56b4e9; fill-opacity: 0.78; stroke: #000000; stroke-opacity: 0.78; stroke-width: 0.3"/>
    </g>
    <g clip-path="url(#p07e85859fb)">
     <use xlink:href="#C0_0_e7dcee2d17" x="137.359331" y="170.974614" style="fill: #cc79a7; fill-opacity: 0.78; stroke: #000000; stroke-opacity: 0.78; stroke-width: 0.3"/>
    </g>
    <g clip-path="url(#p07e85859fb)">
     <use xlink:href="#C0_0_e7dcee2d17" x="117.371986" y="173.526766" style="fill: #cc79a7; fill-opacity: 0.78; stroke: #000000; stroke-opacity: 0.78; stroke-width: 0.3"/>
    </g>
    <g clip-path="url(#p07e85859fb)">
     <use xlink:href="#C0_0_e7dcee2d17" x="91.715952" y="172.297566" style="fill: #cc79a7; fill-opacity: 0.78; stroke: #000000; stroke-opacity: 0.78; stroke-width: 0.3"/>
    </g>
    <g clip-path="url(#p07e85859fb)">
     <use xlink:href="#C0_0_e7dcee2d17" x="89.915652" y="127.640085" style="fill: #cc79a7; fill-opacity: 0.78; stroke: #000000; stroke-opacity: 0.78; stroke-width: 0.3"/>
    </g>
    <g clip-path="url(#p07e85859fb)">
     <use xlink:href="#C0_0_e7dcee2d17" x="111.427012" y="170.774464" style="fill: #cc79a7; fill-opacity: 0.78; stroke: #000000; stroke-opacity: 0.78; stroke-width: 0.3"/>
    </g>
    <g clip-path="url(#p07e85859fb)">
     <use xlink:href="#C0_0_e7dcee2d17" x="84.344739" y="211.928482" style="fill: #cc79a7; fill-opacity: 0.78; stroke: #000000; stroke-opacity: 0.78; stroke-width: 0.3"/>
    </g>
    <g clip-path="url(#p07e85859fb)">
     <use xlink:href="#C0_0_e7dcee2d17" x="129.952543" y="131.891877" style="fill: #cc79a7; fill-opacity: 0.78; stroke: #000000; stroke-opacity: 0.78; stroke-width: 0.3"/>
    </g>
    <g clip-path="url(#p07e85859fb)">
     <use xlink:href="#C0_0_e7dcee2d17" x="126.620983" y="181.112908" style="fill: #cc79a7; fill-opacity: 0.78; stroke: #000000; stroke-opacity: 0.78; stroke-width: 0.3"/>
    </g>
    <g clip-path="url(#p07e85859fb)">
     <use xlink:href="#C0_0_e7dcee2d17" x="124.05924" y="167.60485" style="fill: #cc79a7; fill-opacity: 0.78; stroke: #000000; stroke-opacity: 0.78; stroke-width: 0.3"/>
    </g>
    <g clip-path="url(#p07e85859fb)">
     <use xlink:href="#C0_0_e7dcee2d17" x="122.411516" y="205.164283" style="fill: #cc79a7; fill-opacity: 0.78; stroke: #000000; stroke-opacity: 0.78; stroke-width: 0.3"/>
    </g>
    <g clip-path="url(#p07e85859fb)">
     <use xlink:href="#C0_0_e7dcee2d17" x="121.671162" y="182.403658" style="fill: #cc79a7; fill-opacity: 0.78; stroke: #000000; stroke-opacity: 0.78; stroke-width: 0.3"/>
    </g>
    <g clip-path="url(#p07e85859fb)">
     <use xlink:href="#C0_0_e7dcee2d17" x="109.110849" y="144.684482" style="fill: #cc79a7; fill-opacity: 0.78; stroke: #000000; stroke-opacity: 0.78; stroke-width: 0.3"/>
    </g>
    <g clip-path="url(#p07e85859fb)">
     <use xlink:href="#C0_0_e7dcee2d17" x="85.688817" y="165.510523" style="fill: #cc79a7; fill-opacity: 0.78; stroke: #000000; stroke-opacity: 0.78; stroke-width: 0.3"/>
    </g>
    <g clip-path="url(#p07e85859fb)">
     <use xlink:href="#C0_0_e7dcee2d17" x="137.081066" y="178.012154" style="fill: #cc79a7; fill-opacity: 0.78; stroke: #000000; stroke-opacity: 0.78; stroke-width: 0.3"/>
    </g>
    <g clip-path="url(#p07e85859fb)">
     <use xlink:href="#C0_0_e7dcee2d17" x="122.064042" y="172.172304" style="fill: #cc79a7; fill-opacity: 0.78; stroke: #000000; stroke-opacity: 0.78; stroke-width: 0.3"/>
    </g>
    <g clip-path="url(#p07e85859fb)">
     <use xlink:href="#C0_0_e7dcee2d17" x="113.083583" y="192.080506" style="fill: #cc79a7; fill-opacity: 0.78; stroke: #000000; stroke-opacity: 0.78; stroke-width: 0.3"/>
    </g>
    <g clip-path="url(#p07e85859fb)">
     <use xlink:href="#C0_0_e7dcee2d17" x="108.287997" y="186.449013" style="fill: #009e73; fill-opacity: 0.78; stroke: #000000; stroke-opacity: 0.78; stroke-width: 0.3"/>
    </g>
    <g clip-path="url(#p07e85859fb)">
     <use xlink:href="#C0_0_e7dcee2d17" x="86.126901" y="173.040117" style="fill: #cc79a7; fill-opacity: 0.78; stroke: #000000; stroke-opacity: 0.78; stroke-width: 0.3"/>
    </g>
    <g clip-path="url(#p07e85859fb)">
     <use xlink:href="#C0_0_e7dcee2d17" x="113.243519" y="173.672174" style="fill: #cc79a7; fill-opacity: 0.78; stroke: #000000; stroke-opacity: 0.78; stroke-width: 0.3"/>
    </g>
    <g clip-path="url(#p07e85859fb)">
     <use xlink:href="#C0_0_e7dcee2d17" x="114.737084" y="126.729997" style="fill: #009e73; fill-opacity: 0.78; stroke: #000000; stroke-opacity: 0.78; stroke-width: 0.3"/>
    </g>
    <g clip-path="url(#p07e85859fb)">
     <use xlink:href="#C0_0_e7dcee2d17" x="112.924656" y="167.425992" style="fill: #cc79a7; fill-opacity: 0.78; stroke: #000000; stroke-opacity: 0.78; stroke-width: 0.3"/>
    </g>
    <g clip-path="url(#p07e85859fb)">
     <use xlink:href="#C0_0_e7dcee2d17" x="116.070278" y="228.481987" style="fill: #009e73; fill-opacity: 0.78; stroke: #000000; stroke-opacity: 0.78; stroke-width: 0.3"/>
    </g>
    <g clip-path="url(#p07e85859fb)">
     <use xlink:href="#C0_0_e7dcee2d17" x="87.564199" y="147.92332" style="fill: #009e73; fill-opacity: 0.78; stroke: #000000; stroke-opacity: 0.78; stroke-width: 0.3"/>
    </g>
    <g clip-path="url(#p07e85859fb)">
     <use xlink:href="#C0_0_e7dcee2d17" x="88.027752" y="112.89783" style="fill: #cc79a7; fill-opacity: 0.78; stroke: #000000; stroke-opacity: 0.78; stroke-width: 0.3"/>
    </g>
    <g clip-path="url(#p07e85859fb)">
     <use xlink:href="#C0_0_e7dcee2d17" x="131.927124" y="130.966995" style="fill: #cc79a7; fill-opacity: 0.78; stroke: #000000; stroke-opacity: 0.78; stroke-width: 0.3"/>
    </g>
    <g clip-path="url(#p07e85859fb)">
     <use xlink:href="#C0_0_e7dcee2d17" x="96.36923" y="188.254061" style="fill: #cc79a7; fill-opacity: 0.78; stroke: #000000; stroke-opacity: 0.78; stroke-width: 0.3"/>
    </g>
    <g clip-path="url(#p07e85859fb)">
     <use xlink:href="#C0_0_e7dcee2d17" x="88.671724" y="169.851027" style="fill: #cc79a7; fill-opacity: 0.78; stroke: #000000; stroke-opacity: 0.78; stroke-width: 0.3"/>
    </g>
    <g clip-path="url(#p07e85859fb)">
     <use xlink:href="#C0_0_e7dcee2d17" x="105.787928" y="176.087705" style="fill: #009e73; fill-opacity: 0.78; stroke: #000000; stroke-opacity: 0.78; stroke-width: 0.3"/>
    </g>
    <g clip-path="url(#p07e85859fb)">
     <use xlink:href="#C0_0_e7dcee2d17" x="133.391228" y="116.024259" style="fill: #cc79a7; fill-opacity: 0.78; stroke: #000000; stroke-opacity: 0.78; stroke-width: 0.3"/>
    </g>
    <g clip-path="url(#p07e85859fb)">
     <use xlink:href="#C0_0_e7dcee2d17" x="97.155769" y="178.194335" style="fill: #009e73; fill-opacity: 0.78; stroke: #000000; stroke-opacity: 0.78; stroke-width: 0.3"/>
    </g>
    <g clip-path="url(#p07e85859fb)">
     <use xlink:href="#C0_0_e7dcee2d17" x="119.709634" y="221.791213" style="fill: #cc79a7; fill-opacity: 0.78; stroke: #000000; stroke-opacity: 0.78; stroke-width: 0.3"/>
    </g>
    <g clip-path="url(#p07e85859fb)">
     <use xlink:href="#C0_0_e7dcee2d17" x="106.951231" y="180.571411" style="fill: #cc79a7; fill-opacity: 0.78; stroke: #000000; stroke-opacity: 0.78; stroke-width: 0.3"/>
    </g>
    <g clip-path="url(#p07e85859fb)">
     <use xlink:href="#C0_0_e7dcee2d17" x="124.352833" y="189.03134" style="fill: #cc79a7; fill-opacity: 0.78; stroke: #000000; stroke-opacity: 0.78; stroke-width: 0.3"/>
    </g>
    <g clip-path="url(#p07e85859fb)">
     <use xlink:href="#C0_0_e7dcee2d17" x="89.198717" y="129.70945" style="fill: #009e73; fill-opacity: 0.78; stroke: #000000; stroke-opacity: 0.78; stroke-width: 0.3"/>
    </g>
    <g clip-path="url(#p07e85859fb)">
     <use xlink:href="#C0_0_e7dcee2d17" x="120.94214" y="108.439615" style="fill: #009e73; fill-opacity: 0.78; stroke: #000000; stroke-opacity: 0.78; stroke-width: 0.3"/>
    </g>
    <g clip-path="url(#p07e85859fb)">
     <use xlink:href="#C0_0_e7dcee2d17" x="104.927121" y="99.9724" style="fill: #cc79a7; fill-opacity: 0.78; stroke: #000000; stroke-opacity: 0.78; stroke-width: 0.3"/>
    </g>
    <g clip-path="url(#p07e85859fb)">
     <use xlink:href="#C0_0_e7dcee2d17" x="109.686745" y="210.085713" style="fill: #009e73; fill-opacity: 0.78; stroke: #000000; stroke-opacity: 0.78; stroke-width: 0.3"/>
    </g>
    <g clip-path="url(#p07e85859fb)">
     <use xlink:href="#C0_0_e7dcee2d17" x="99.371798" y="178.365082" style="fill: #cc79a7; fill-opacity: 0.78; stroke: #000000; stroke-opacity: 0.78; stroke-width: 0.3"/>
    </g>
    <g clip-path="url(#p07e85859fb)">
     <use xlink:href="#C0_0_e7dcee2d17" x="99.444561" y="139.273138" style="fill: #cc79a7; fill-opacity: 0.78; stroke: #000000; stroke-opacity: 0.78; stroke-width: 0.3"/>
    </g>
    <g clip-path="url(#p07e85859fb)">
     <use xlink:href="#C0_0_e7dcee2d17" x="122.331235" y="137.795478" style="fill: #cc79a7; fill-opacity: 0.78; stroke: #000000; stroke-opacity: 0.78; stroke-width: 0.3"/>
    </g>
    <g clip-path="url(#p07e85859fb)">
     <use xlink:href="#C0_0_e7dcee2d17" x="110.249664" y="179.05251" style="fill: #cc79a7; fill-opacity: 0.78; stroke: #000000; stroke-opacity: 0.78; stroke-width: 0.3"/>
    </g>
    <g clip-path="url(#p07e85859fb)">
     <use xlink:href="#C0_0_e7dcee2d17" x="135.461703" y="153.57526" style="fill: #cc79a7; fill-opacity: 0.78; stroke: #000000; stroke-opacity: 0.78; stroke-width: 0.3"/>
    </g>
    <g clip-path="url(#p07e85859fb)">
     <use xlink:href="#C0_0_e7dcee2d17" x="122.676032" y="140.802366" style="fill: #009e73; fill-opacity: 0.78; stroke: #000000; stroke-opacity: 0.78; stroke-width: 0.3"/>
    </g>
    <g clip-path="url(#p07e85859fb)">
     <use xlink:href="#C0_0_e7dcee2d17" x="85.626875" y="152.327265" style="fill: #009e73; fill-opacity: 0.78; stroke: #000000; stroke-opacity: 0.78; stroke-width: 0.3"/>
    </g>
    <g clip-path="url(#p07e85859fb)">
     <use xlink:href="#C0_0_e7dcee2d17" x="92.261562" y="145.18773" style="fill: #009e73; fill-opacity: 0.78; stroke: #000000; stroke-opacity: 0.78; stroke-width: 0.3"/>
    </g>
    <g clip-path="url(#p07e85859fb)">
     <use xlink:href="#C0_0_e7dcee2d17" x="114.971556" y="202.191184" style="fill: #009e73; fill-opacity: 0.78; stroke: #000000; stroke-opacity: 0.78; stroke-width: 0.3"/>
    </g>
    <g clip-path="url(#p07e85859fb)">
     <use xlink:href="#C0_0_e7dcee2d17" x="134.94741" y="208.867542" style="fill: #cc79a7; fill-opacity: 0.78; stroke: #000000; stroke-opacity: 0.78; stroke-width: 0.3"/>
    </g>
    <g clip-path="url(#p07e85859fb)">
     <use xlink:href="#C0_0_e7dcee2d17" x="110.859659" y="166.65926" style="fill: #009e73; fill-opacity: 0.78; stroke: #000000; stroke-opacity: 0.78; stroke-width: 0.3"/>
    </g>
    <g clip-path="url(#p07e85859fb)">
     <use xlink:href="#C0_0_e7dcee2d17" x="110.517773" y="89.689842" style="fill: #009e73; fill-opacity: 0.78; stroke: #000000; stroke-opacity: 0.78; stroke-width: 0.3"/>
    </g>
    <g clip-path="url(#p07e85859fb)">
     <use xlink:href="#C0_0_e7dcee2d17" x="123.049372" y="159.061079" style="fill: #009e73; fill-opacity: 0.78; stroke: #000000; stroke-opacity: 0.78; stroke-width: 0.3"/>
    </g>
    <g clip-path="url(#p07e85859fb)">
     <use xlink:href="#C0_0_e7dcee2d17" x="107.226378" y="130.131031" style="fill: #009e73; fill-opacity: 0.78; stroke: #000000; stroke-opacity: 0.78; stroke-width: 0.3"/>
    </g>
    <g clip-path="url(#p07e85859fb)">
     <use xlink:href="#C0_0_e7dcee2d17" x="133.633889" y="229.789477" style="fill: #009e73; fill-opacity: 0.78; stroke: #000000; stroke-opacity: 0.78; stroke-width: 0.3"/>
    </g>
    <g clip-path="url(#p07e85859fb)">
     <use xlink:href="#C0_0_e7dcee2d17" x="96.503369" y="165.872172" style="fill: #cc79a7; fill-opacity: 0.78; stroke: #000000; stroke-opacity: 0.78; stroke-width: 0.3"/>
    </g>
    <g clip-path="url(#p07e85859fb)">
     <use xlink:href="#C0_0_e7dcee2d17" x="121.31152" y="159.618499" style="fill: #009e73; fill-opacity: 0.78; stroke: #000000; stroke-opacity: 0.78; stroke-width: 0.3"/>
    </g>
    <g clip-path="url(#p07e85859fb)">
     <use xlink:href="#C0_0_e7dcee2d17" x="93.093824" y="137.317118" style="fill: #cc79a7; fill-opacity: 0.78; stroke: #000000; stroke-opacity: 0.78; stroke-width: 0.3"/>
    </g>
    <g clip-path="url(#p07e85859fb)">
     <use xlink:href="#C0_0_e7dcee2d17" x="122.445979" y="174.38692" style="fill: #009e73; fill-opacity: 0.78; stroke: #000000; stroke-opacity: 0.78; stroke-width: 0.3"/>
    </g>
    <g clip-path="url(#p07e85859fb)">
     <use xlink:href="#C0_0_e7dcee2d17" x="123.256067" y="167.294195" style="fill: #cc79a7; fill-opacity: 0.78; stroke: #000000; stroke-opacity: 0.78; stroke-width: 0.3"/>
    </g>
    <g clip-path="url(#p07e85859fb)">
     <use xlink:href="#C0_0_e7dcee2d17" x="90.596265" y="172.613588" style="fill: #009e73; fill-opacity: 0.78; stroke: #000000; stroke-opacity: 0.78; stroke-width: 0.3"/>
    </g>
    <g clip-path="url(#p07e85859fb)">
     <use xlink:href="#C0_0_e7dcee2d17" x="103.854553" y="83.991824" style="fill: #009e73; fill-opacity: 0.78; stroke: #000000; stroke-opacity: 0.78; stroke-width: 0.3"/>
    </g>
    <g clip-path="url(#p07e85859fb)">
     <use xlink:href="#C0_0_e7dcee2d17" x="132.314079" y="203.594629" style="fill: #009e73; fill-opacity: 0.78; stroke: #000000; stroke-opacity: 0.78; stroke-width: 0.3"/>
    </g>
    <g clip-path="url(#p07e85859fb)">
     <use xlink:href="#C0_0_e7dcee2d17" x="132.337216" y="194.798903" style="fill: #e69f00; fill-opacity: 0.78; stroke: #000000; stroke-opacity: 0.78; stroke-width: 0.3"/>
    </g>
    <g clip-path="url(#p07e85859fb)">
     <use xlink:href="#C0_0_e7dcee2d17" x="104.474339" y="130.055372" style="fill: #009e73; fill-opacity: 0.78; stroke: #000000; stroke-opacity: 0.78; stroke-width: 0.3"/>
    </g>
    <g clip-path="url(#p07e85859fb)">
     <use xlink:href="#C0_0_e7dcee2d17" x="100.56703" y="157.448568" style="fill: #009e73; fill-opacity: 0.78; stroke: #000000; stroke-opacity: 0.78; stroke-width: 0.3"/>
    </g>
    <g clip-path="url(#p07e85859fb)">
     <use xlink:href="#C0_0_e7dcee2d17" x="134.199364" y="57.790983" style="fill: #009e73; fill-opacity: 0.78; stroke: #000000; stroke-opacity: 0.78; stroke-width: 0.3"/>
    </g>
    <g clip-path="url(#p07e85859fb)">
     <use xlink:href="#C0_0_e7dcee2d17" x="119.422856" y="152.990017" style="fill: #009e73; fill-opacity: 0.78; stroke: #000000; stroke-opacity: 0.78; stroke-width: 0.3"/>
    </g>
    <g clip-path="url(#p07e85859fb)">
     <use xlink:href="#C0_0_e7dcee2d17" x="123.338447" y="190.336238" style="fill: #009e73; fill-opacity: 0.78; stroke: #000000; stroke-opacity: 0.78; stroke-width: 0.3"/>
    </g>
    <g clip-path="url(#p07e85859fb)">
     <use xlink:href="#C0_0_e7dcee2d17" x="129.396281" y="147.104524" style="fill: #009e73; fill-opacity: 0.78; stroke: #000000; stroke-opacity: 0.78; stroke-width: 0.3"/>
    </g>
    <g clip-path="url(#p07e85859fb)">
     <use xlink:href="#C0_0_e7dcee2d17" x="84.442921" y="144.609356" style="fill: #009e73; fill-opacity: 0.78; stroke: #000000; stroke-opacity: 0.78; stroke-width: 0.3"/>
    </g>
    <g clip-path="url(#p07e85859fb)">
     <use xlink:href="#C0_0_e7dcee2d17" x="115.146167" y="184.394161" style="fill: #e69f00; fill-opacity: 0.78; stroke: #000000; stroke-opacity: 0.78; stroke-width: 0.3"/>
    </g>
    <g clip-path="url(#p07e85859fb)">
     <use xlink:href="#C0_0_e7dcee2d17" x="92.698313" y="198.246613" style="fill: #e69f00; fill-opacity: 0.78; stroke: #000000; stroke-opacity: 0.78; stroke-width: 0.3"/>
    </g>
    <g clip-path="url(#p07e85859fb)">
     <use xlink:href="#C0_0_e7dcee2d17" x="114.158928" y="175.185739" style="fill: #e69f00; fill-opacity: 0.78; stroke: #000000; stroke-opacity: 0.78; stroke-width: 0.3"/>
    </g>
    <g clip-path="url(#p07e85859fb)">
     <use xlink:href="#C0_0_e7dcee2d17" x="109.486703" y="157.765394" style="fill: #009e73; fill-opacity: 0.78; stroke: #000000; stroke-opacity: 0.78; stroke-width: 0.3"/>
    </g>
    <g clip-path="url(#p07e85859fb)">
     <use xlink:href="#C0_0_e7dcee2d17" x="85.009167" y="77.319709" style="fill: #009e73; fill-opacity: 0.78; stroke: #000000; stroke-opacity: 0.78; stroke-width: 0.3"/>
    </g>
    <g clip-path="url(#p07e85859fb)">
     <use xlink:href="#C0_0_e7dcee2d17" x="136.786968" y="109.064294" style="fill: #009e73; fill-opacity: 0.78; stroke: #000000; stroke-opacity: 0.78; stroke-width: 0.3"/>
    </g>
    <g clip-path="url(#p07e85859fb)">
     <use xlink:href="#C0_0_e7dcee2d17" x="84.252509" y="133.02451" style="fill: #009e73; fill-opacity: 0.78; stroke: #000000; stroke-opacity: 0.78; stroke-width: 0.3"/>
    </g>
    <g clip-path="url(#p07e85859fb)">
     <use xlink:href="#C0_0_e7dcee2d17" x="119.910622" y="191.981342" style="fill: #009e73; fill-opacity: 0.78; stroke: #000000; stroke-opacity: 0.78; stroke-width: 0.3"/>
    </g>
    <g clip-path="url(#p07e85859fb)">
     <use xlink:href="#C0_0_e7dcee2d17" x="139.005095" y="219.00095" style="fill: #009e73; fill-opacity: 0.78; stroke: #000000; stroke-opacity: 0.78; stroke-width: 0.3"/>
    </g>
    <g clip-path="url(#p07e85859fb)">
     <use xlink:href="#C0_0_e7dcee2d17" x="111.414936" y="216.525585" style="fill: #009e73; fill-opacity: 0.78; stroke: #000000; stroke-opacity: 0.78; stroke-width: 0.3"/>
    </g>
    <g clip-path="url(#p07e85859fb)">
     <use xlink:href="#C0_0_e7dcee2d17" x="102.163515" y="180.492922" style="fill: #e69f00; fill-opacity: 0.78; stroke: #000000; stroke-opacity: 0.78; stroke-width: 0.3"/>
    </g>
    <g clip-path="url(#p07e85859fb)">
     <use xlink:href="#C0_0_e7dcee2d17" x="102.677513" y="202.695223" style="fill: #009e73; fill-opacity: 0.78; stroke: #000000; stroke-opacity: 0.78; stroke-width: 0.3"/>
    </g>
    <g clip-path="url(#p07e85859fb)">
     <use xlink:href="#C0_0_e7dcee2d17" x="107.602624" y="187.479621" style="fill: #009e73; fill-opacity: 0.78; stroke: #000000; stroke-opacity: 0.78; stroke-width: 0.3"/>
    </g>
    <g clip-path="url(#p07e85859fb)">
     <use xlink:href="#C0_0_e7dcee2d17" x="109.227534" y="119.142232" style="fill: #009e73; fill-opacity: 0.78; stroke: #000000; stroke-opacity: 0.78; stroke-width: 0.3"/>
    </g>
    <g clip-path="url(#p07e85859fb)">
     <use xlink:href="#C0_0_e7dcee2d17" x="98.713651" y="177.33826" style="fill: #e69f00; fill-opacity: 0.78; stroke: #000000; stroke-opacity: 0.78; stroke-width: 0.3"/>
    </g>
    <g clip-path="url(#p07e85859fb)">
     <use xlink:href="#C0_0_e7dcee2d17" x="133.498967" y="154.390786" style="fill: #e69f00; fill-opacity: 0.78; stroke: #000000; stroke-opacity: 0.78; stroke-width: 0.3"/>
    </g>
    <g clip-path="url(#p07e85859fb)">
     <use xlink:href="#C0_0_e7dcee2d17" x="127.09344" y="97.469505" style="fill: #009e73; fill-opacity: 0.78; stroke: #000000; stroke-opacity: 0.78; stroke-width: 0.3"/>
    </g>
    <g clip-path="url(#p07e85859fb)">
     <use xlink:href="#C0_0_e7dcee2d17" x="110.442826" y="206.98447" style="fill: #009e73; fill-opacity: 0.78; stroke: #000000; stroke-opacity: 0.78; stroke-width: 0.3"/>
    </g>
    <g clip-path="url(#p07e85859fb)">
     <use xlink:href="#C0_0_e7dcee2d17" x="139.308534" y="166.531622" style="fill: #009e73; fill-opacity: 0.78; stroke: #000000; stroke-opacity: 0.78; stroke-width: 0.3"/>
    </g>
    <g clip-path="url(#p07e85859fb)">
     <use xlink:href="#C0_0_e7dcee2d17" x="107.431476" y="241.465448" style="fill: #009e73; fill-opacity: 0.78; stroke: #000000; stroke-opacity: 0.78; stroke-width: 0.3"/>
    </g>
    <g clip-path="url(#p07e85859fb)">
     <use xlink:href="#C0_0_e7dcee2d17" x="132.139894" y="181.14514" style="fill: #009e73; fill-opacity: 0.78; stroke: #000000; stroke-opacity: 0.78; stroke-width: 0.3"/>
    </g>
    <g clip-path="url(#p07e85859fb)">
     <use xlink:href="#C0_0_e7dcee2d17" x="138.199352" y="155.045011" style="fill: #009e73; fill-opacity: 0.78; stroke: #000000; stroke-opacity: 0.78; stroke-width: 0.3"/>
    </g>
    <g clip-path="url(#p07e85859fb)">
     <use xlink:href="#C0_0_e7dcee2d17" x="89.006397" y="175.100574" style="fill: #009e73; fill-opacity: 0.78; stroke: #000000; stroke-opacity: 0.78; stroke-width: 0.3"/>
    </g>
    <g clip-path="url(#p07e85859fb)">
     <use xlink:href="#C0_0_e7dcee2d17" x="135.24925" y="164.479627" style="fill: #009e73; fill-opacity: 0.78; stroke: #000000; stroke-opacity: 0.78; stroke-width: 0.3"/>
    </g>
    <g clip-path="url(#p07e85859fb)">
     <use xlink:href="#C0_0_e7dcee2d17" x="91.134214" y="120.000545" style="fill: #009e73; fill-opacity: 0.78; stroke: #000000; stroke-opacity: 0.78; stroke-width: 0.3"/>
    </g>
    <g clip-path="url(#p07e85859fb)">
     <use xlink:href="#C0_0_e7dcee2d17" x="121.582635" y="174.043473" style="fill: #009e73; fill-opacity: 0.78; stroke: #000000; stroke-opacity: 0.78; stroke-width: 0.3"/>
    </g>
    <g clip-path="url(#p07e85859fb)">
     <use xlink:href="#C0_0_e7dcee2d17" x="88.600544" y="124.510331" style="fill: #009e73; fill-opacity: 0.78; stroke: #000000; stroke-opacity: 0.78; stroke-width: 0.3"/>
    </g>
    <g clip-path="url(#p07e85859fb)">
     <use xlink:href="#C0_0_e7dcee2d17" x="116.281774" y="179.417441" style="fill: #009e73; fill-opacity: 0.78; stroke: #000000; stroke-opacity: 0.78; stroke-width: 0.3"/>
    </g>
    <g clip-path="url(#p07e85859fb)">
     <use xlink:href="#C0_0_e7dcee2d17" x="127.069147" y="164.354327" style="fill: #009e73; fill-opacity: 0.78; stroke: #000000; stroke-opacity: 0.78; stroke-width: 0.3"/>
    </g>
    <g clip-path="url(#p07e85859fb)">
     <use xlink:href="#C0_0_e7dcee2d17" x="101.395612" y="119.675381" style="fill: #009e73; fill-opacity: 0.78; stroke: #000000; stroke-opacity: 0.78; stroke-width: 0.3"/>
    </g>
    <g clip-path="url(#p07e85859fb)">
     <use xlink:href="#C0_0_e7dcee2d17" x="118.799351" y="176.313376" style="fill: #009e73; fill-opacity: 0.78; stroke: #000000; stroke-opacity: 0.78; stroke-width: 0.3"/>
    </g>
    <g clip-path="url(#p07e85859fb)">
     <use xlink:href="#C0_0_e7dcee2d17" x="125.400774" y="172.864893" style="fill: #009e73; fill-opacity: 0.78; stroke: #000000; stroke-opacity: 0.78; stroke-width: 0.3"/>
    </g>
    <g clip-path="url(#p07e85859fb)">
     <use xlink:href="#C0_0_e7dcee2d17" x="127.752626" y="157.180413" style="fill: #009e73; fill-opacity: 0.78; stroke: #000000; stroke-opacity: 0.78; stroke-width: 0.3"/>
    </g>
    <g clip-path="url(#p07e85859fb)">
     <use xlink:href="#C0_0_e7dcee2d17" x="84.614023" y="162.484072" style="fill: #009e73; fill-opacity: 0.78; stroke: #000000; stroke-opacity: 0.78; stroke-width: 0.3"/>
    </g>
   </g>
   <g id="FillBetweenPolyCollection_2">
    <defs>
     <path id="m962bcbc16c" d="M 362.745163 -40.870909 
L 354.851167 -40.870909 
L 354.851167 -41.691706 
L 354.851167 -42.512502 
L 354.851167 -43.333299 
L 354.851167 -44.154095 
L 354.851167 -44.974892 
L 354.851167 -45.795689 
L 354.851167 -46.616485 
L 354.851167 -47.437282 
L 354.851167 -48.258078 
L 354.851167 -49.078875 
L 354.851167 -49.899672 
L 354.851167 -50.720468 
L 354.851167 -51.541265 
L 354.851167 -52.362061 
L 354.851167 -53.182858 
L 354.851167 -54.003655 
L 354.851167 -54.824451 
L 354.851167 -55.645248 
L 354.851167 -56.466044 
L 354.851167 -57.286841 
L 354.851167 -58.107638 
L 354.851167 -58.928434 
L 354.851167 -59.749231 
L 354.851167 -60.570027 
L 354.851167 -61.390824 
L 354.851167 -62.211621 
L 354.851167 -63.032417 
L 354.851167 -63.853214 
L 354.851167 -64.67401 
L 354.851167 -65.494807 
L 354.851167 -66.315604 
L 354.851167 -67.1364 
L 354.851167 -67.957197 
L 354.851167 -68.777993 
L 354.851167 -69.59879 
L 354.851167 -70.419587 
L 354.851167 -71.240383 
L 354.851167 -72.06118 
L 354.851167 -72.881976 
L 354.851167 -73.702773 
L 354.851167 -74.523569 
L 354.851167 -75.344366 
L 354.851167 -76.165163 
L 354.851167 -76.985959 
L 354.851167 -77.806756 
L 354.851167 -78.627552 
L 354.851167 -79.448349 
L 354.851167 -80.269146 
L 354.851167 -81.089942 
L 354.851167 -81.910739 
L 354.851167 -82.731535 
L 354.851167 -83.552332 
L 354.851167 -84.373129 
L 354.851167 -85.193925 
L 354.851167 -86.014722 
L 354.851167 -86.835518 
L 354.851167 -87.656315 
L 354.851167 -88.477112 
L 354.851167 -89.297908 
L 354.851167 -90.118705 
L 354.851167 -90.939501 
L 354.851167 -91.760298 
L 354.851167 -92.581095 
L 354.851167 -93.401891 
L 354.851167 -94.222688 
L 354.851167 -95.043484 
L 354.851167 -95.864281 
L 354.851167 -96.685078 
L 354.851167 -97.505874 
L 354.851167 -98.326671 
L 354.851167 -99.147467 
L 354.851167 -99.968264 
L 354.851167 -100.789061 
L 354.851167 -101.609857 
L 354.851167 -102.430654 
L 354.851167 -103.25145 
L 354.851167 -104.072247 
L 354.851167 -104.893043 
L 354.851167 -105.71384 
L 354.851167 -106.534637 
L 354.851167 -107.355433 
L 354.851167 -108.17623 
L 354.851167 -108.997026 
L 354.851167 -109.817823 
L 354.851167 -110.63862 
L 354.851167 -111.459416 
L 354.851167 -112.280213 
L 354.851167 -113.101009 
L 354.851167 -113.921806 
L 354.851167 -114.742603 
L 354.851167 -115.563399 
L 354.851167 -116.384196 
L 354.851167 -117.204992 
L 354.851167 -118.025789 
L 354.851167 -118.846586 
L 354.851167 -119.667382 
L 354.851167 -120.488179 
L 354.851167 -121.308975 
L 354.851167 -122.129772 
L 354.851167 -122.950569 
L 354.851167 -123.771365 
L 354.851167 -124.592162 
L 354.851167 -125.412958 
L 354.851167 -126.233755 
L 354.851167 -127.054552 
L 354.851167 -127.875348 
L 354.851167 -128.696145 
L 354.851167 -129.516941 
L 354.851167 -130.337738 
L 354.851167 -131.158535 
L 354.851167 -131.979331 
L 354.851167 -132.800128 
L 354.851167 -133.620924 
L 354.851167 -134.441721 
L 354.851167 -135.262517 
L 354.851167 -136.083314 
L 354.851167 -136.904111 
L 354.851167 -137.724907 
L 354.851167 -138.545704 
L 354.851167 -139.3665 
L 354.851167 -140.187297 
L 354.851167 -141.008094 
L 354.851167 -141.82889 
L 354.851167 -142.649687 
L 354.851167 -143.470483 
L 354.851167 -144.29128 
L 354.851167 -145.112077 
L 354.851167 -145.932873 
L 354.851167 -146.75367 
L 354.851167 -147.574466 
L 354.851167 -148.395263 
L 354.851167 -149.21606 
L 354.851167 -150.036856 
L 354.851167 -150.857653 
L 354.851167 -151.678449 
L 354.851167 -152.499246 
L 354.851167 -153.320043 
L 354.851167 -154.140839 
L 354.851167 -154.961636 
L 354.851167 -155.782432 
L 354.851167 -156.603229 
L 354.851167 -157.424026 
L 354.851167 -158.244822 
L 354.851167 -159.065619 
L 354.851167 -159.886415 
L 354.851167 -160.707212 
L 354.851167 -161.528009 
L 354.851167 -162.348805 
L 354.851167 -163.169602 
L 354.851167 -163.990398 
L 354.851167 -164.811195 
L 354.851167 -165.631991 
L 354.851167 -166.452788 
L 354.851167 -167.273585 
L 354.851167 -168.094381 
L 354.851167 -168.915178 
L 354.851167 -169.735974 
L 354.851167 -170.556771 
L 354.851167 -171.377568 
L 354.851167 -172.198364 
L 354.851167 -173.019161 
L 354.851167 -173.839957 
L 354.851167 -174.660754 
L 354.851167 -175.481551 
L 354.851167 -176.302347 
L 354.851167 -177.123144 
L 354.851167 -177.94394 
L 354.851167 -178.764737 
L 354.851167 -179.585534 
L 354.851167 -180.40633 
L 354.851167 -181.227127 
L 354.851167 -182.047923 
L 354.851167 -182.86872 
L 354.851167 -183.689517 
L 354.851167 -184.510313 
L 354.851167 -185.33111 
L 354.851167 -186.151906 
L 354.851167 -186.972703 
L 354.851167 -187.7935 
L 354.851167 -188.614296 
L 354.851167 -189.435093 
L 354.851167 -190.255889 
L 354.851167 -191.076686 
L 354.851167 -191.897483 
L 354.851167 -192.718279 
L 354.851167 -193.539076 
L 354.851167 -194.359872 
L 354.851167 -195.180669 
L 354.851167 -196.001465 
L 354.851167 -196.822262 
L 354.851167 -197.643059 
L 354.851167 -198.463855 
L 354.851167 -199.284652 
L 354.851167 -200.105448 
L 354.851167 -200.926245 
L 354.851167 -201.747042 
L 354.851167 -202.567838 
L 354.851167 -203.388635 
L 354.851167 -204.209431 
L 354.851167 -205.030228 
L 354.851167 -205.851025 
L 354.851167 -206.671821 
L 354.851167 -207.492618 
L 354.851167 -208.313414 
L 354.851167 -209.134211 
L 354.851167 -209.955008 
L 354.851167 -210.775804 
L 354.851167 -211.596601 
L 354.851167 -212.417397 
L 354.851167 -213.238194 
L 354.851167 -214.058991 
L 354.851167 -214.879787 
L 354.851167 -215.700584 
L 354.851167 -216.52138 
L 354.851167 -217.342177 
L 354.851167 -218.162974 
L 354.851167 -218.98377 
L 354.851167 -219.804567 
L 354.851167 -220.625363 
L 354.851167 -221.44616 
L 354.851167 -222.266957 
L 354.851167 -223.087753 
L 354.851167 -223.90855 
L 354.851167 -224.729346 
L 354.851167 -225.550143 
L 354.851167 -226.370939 
L 354.851167 -227.191736 
L 354.851167 -228.012533 
L 354.851167 -228.833329 
L 354.851167 -229.654126 
L 354.851167 -230.474922 
L 354.851167 -231.295719 
L 354.851167 -232.116516 
L 354.851167 -232.937312 
L 354.851167 -233.758109 
L 354.851167 -234.578905 
L 354.851167 -235.399702 
L 354.851167 -236.220499 
L 354.851167 -237.041295 
L 354.851167 -237.862092 
L 354.851167 -238.682888 
L 354.851167 -239.503685 
L 354.851167 -240.324482 
L 354.851167 -241.145278 
L 354.851167 -241.966075 
L 354.851167 -242.786871 
L 354.851167 -243.607668 
L 354.851167 -244.428465 
L 354.851167 -245.249261 
L 354.851167 -246.070058 
L 354.851167 -246.890854 
L 354.851167 -247.711651 
L 354.851167 -248.532448 
L 354.851167 -249.353244 
L 354.851167 -250.174041 
L 354.851167 -250.994837 
L 354.851167 -251.815634 
L 354.851167 -252.636431 
L 354.851167 -253.457227 
L 354.851167 -254.278024 
L 354.851167 -255.09882 
L 354.851167 -255.919617 
L 354.851167 -256.740413 
L 354.851167 -257.56121 
L 354.851167 -258.382007 
L 354.851167 -259.202803 
L 354.851167 -260.0236 
L 354.851167 -260.844396 
L 354.851167 -261.665193 
L 354.851167 -262.48599 
L 354.851167 -263.306786 
L 354.851167 -264.127583 
L 354.851167 -264.948379 
L 354.851167 -265.769176 
L 354.851167 -266.589973 
L 354.851167 -267.410769 
L 354.851167 -268.231566 
L 354.851167 -269.052362 
L 354.851167 -269.873159 
L 354.851167 -270.693956 
L 354.851167 -271.514752 
L 354.851167 -272.335549 
L 354.851167 -273.156345 
L 354.851167 -273.977142 
L 354.851167 -274.797939 
L 354.851167 -275.618735 
L 354.851167 -276.439532 
L 354.851167 -277.260328 
L 354.851167 -278.081125 
L 354.851167 -278.901922 
L 354.851167 -279.722718 
L 354.851167 -280.543515 
L 354.851167 -281.364311 
L 354.851167 -282.185108 
L 354.851167 -283.005905 
L 354.851167 -283.826701 
L 354.851167 -284.647498 
L 354.851167 -285.468294 
L 354.851167 -286.289091 
L 358.539593 -286.289091 
L 358.539593 -286.289091 
L 358.632662 -285.468294 
L 358.723927 -284.647498 
L 358.813234 -283.826701 
L 358.900445 -283.005905 
L 358.985435 -282.185108 
L 359.068097 -281.364311 
L 359.148335 -280.543515 
L 359.226077 -279.722718 
L 359.301263 -278.901922 
L 359.373855 -278.081125 
L 359.443831 -277.260328 
L 359.51119 -276.439532 
L 359.57595 -275.618735 
L 359.638146 -274.797939 
L 359.697833 -273.977142 
L 359.755084 -273.156345 
L 359.809991 -272.335549 
L 359.862662 -271.514752 
L 359.913221 -270.693956 
L 359.961811 -269.873159 
L 360.008586 -269.052362 
L 360.053717 -268.231566 
L 360.097388 -267.410769 
L 360.139792 -266.589973 
L 360.181136 -265.769176 
L 360.221638 -264.948379 
L 360.261521 -264.127583 
L 360.301021 -263.306786 
L 360.340376 -262.48599 
L 360.379835 -261.665193 
L 360.41965 -260.844396 
L 360.460078 -260.0236 
L 360.501381 -259.202803 
L 360.543825 -258.382007 
L 360.587679 -257.56121 
L 360.633216 -256.740413 
L 360.68071 -255.919617 
L 360.730442 -255.09882 
L 360.782693 -254.278024 
L 360.837749 -253.457227 
L 360.8959 -252.636431 
L 360.957441 -251.815634 
L 361.022672 -250.994837 
L 361.091898 -250.174041 
L 361.165431 -249.353244 
L 361.24359 -248.532448 
L 361.326703 -247.711651 
L 361.415107 -246.890854 
L 361.509147 -246.070058 
L 361.60918 -245.249261 
L 361.715574 -244.428465 
L 361.828708 -243.607668 
L 361.948976 -242.786871 
L 362.076781 -241.966075 
L 362.212544 -241.145278 
L 362.356695 -240.324482 
L 362.509681 -239.503685 
L 362.671961 -238.682888 
L 362.844006 -237.862092 
L 363.026301 -237.041295 
L 363.219342 -236.220499 
L 363.423638 -235.399702 
L 363.639705 -234.578905 
L 363.868068 -233.758109 
L 364.109261 -232.937312 
L 364.36382 -232.116516 
L 364.632286 -231.295719 
L 364.9152 -230.474922 
L 365.213103 -229.654126 
L 365.526529 -228.833329 
L 365.856008 -228.012533 
L 366.20206 -227.191736 
L 366.56519 -226.370939 
L 366.945891 -225.550143 
L 367.344635 -224.729346 
L 367.761871 -223.90855 
L 368.198025 -223.087753 
L 368.653492 -222.266957 
L 369.128637 -221.44616 
L 369.623789 -220.625363 
L 370.139238 -219.804567 
L 370.675232 -218.98377 
L 371.231976 -218.162974 
L 371.809624 -217.342177 
L 372.408283 -216.52138 
L 373.028005 -215.700584 
L 373.668786 -214.879787 
L 374.330563 -214.058991 
L 375.013216 -213.238194 
L 375.716559 -212.417397 
L 376.440346 -211.596601 
L 377.184263 -210.775804 
L 377.947932 -209.955008 
L 378.730908 -209.134211 
L 379.532677 -208.313414 
L 380.35266 -207.492618 
L 381.190209 -206.671821 
L 382.044611 -205.851025 
L 382.915088 -205.030228 
L 383.800794 -204.209431 
L 384.700824 -203.388635 
L 385.614211 -202.567838 
L 386.53993 -201.747042 
L 387.476898 -200.926245 
L 388.423983 -200.105448 
L 389.38 -199.284652 
L 390.343723 -198.463855 
L 391.313879 -197.643059 
L 392.289163 -196.822262 
L 393.268235 -196.001465 
L 394.249727 -195.180669 
L 395.232251 -194.359872 
L 396.2144 -193.539076 
L 397.194757 -192.718279 
L 398.1719 -191.897483 
L 399.144407 -191.076686 
L 400.110862 -190.255889 
L 401.069863 -189.435093 
L 402.020027 -188.614296 
L 402.959996 -187.7935 
L 403.888442 -186.972703 
L 404.804076 -186.151906 
L 405.70565 -185.33111 
L 406.591967 -184.510313 
L 407.461884 -183.689517 
L 408.314315 -182.86872 
L 409.14824 -182.047923 
L 409.962708 -181.227127 
L 410.756841 -180.40633 
L 411.529836 -179.585534 
L 412.280971 -178.764737 
L 413.009604 -177.94394 
L 413.715181 -177.123144 
L 414.397231 -176.302347 
L 415.05537 -175.481551 
L 415.689303 -174.660754 
L 416.298821 -173.839957 
L 416.883802 -173.019161 
L 417.444206 -172.198364 
L 417.980078 -171.377568 
L 418.491544 -170.556771 
L 418.978804 -169.735974 
L 419.442132 -168.915178 
L 419.88187 -168.094381 
L 420.298426 -167.273585 
L 420.692262 -166.452788 
L 421.063897 -165.631991 
L 421.413895 -164.811195 
L 421.742859 -163.990398 
L 422.051426 -163.169602 
L 422.340261 -162.348805 
L 422.610049 -161.528009 
L 422.861484 -160.707212 
L 423.09527 -159.886415 
L 423.312108 -159.065619 
L 423.512688 -158.244822 
L 423.697689 -157.424026 
L 423.867766 -156.603229 
L 424.023546 -155.782432 
L 424.165622 -154.961636 
L 424.294549 -154.140839 
L 424.410837 -153.320043 
L 424.514946 -152.499246 
L 424.607286 -151.678449 
L 424.688206 -150.857653 
L 424.758 -150.036856 
L 424.816898 -149.21606 
L 424.865068 -148.395263 
L 424.902614 -147.574466 
L 424.929573 -146.75367 
L 424.94592 -145.932873 
L 424.951567 -145.112077 
L 424.946362 -144.29128 
L 424.930096 -143.470483 
L 424.902501 -142.649687 
L 424.863256 -141.82889 
L 424.81199 -141.008094 
L 424.748287 -140.187297 
L 424.67169 -139.3665 
L 424.581706 -138.545704 
L 424.477811 -137.724907 
L 424.359458 -136.904111 
L 424.226082 -136.083314 
L 424.077102 -135.262517 
L 423.911935 -134.441721 
L 423.729997 -133.620924 
L 423.53071 -132.800128 
L 423.313511 -131.979331 
L 423.077855 -131.158535 
L 422.823225 -130.337738 
L 422.549133 -129.516941 
L 422.25513 -128.696145 
L 421.940811 -127.875348 
L 421.605817 -127.054552 
L 421.249845 -126.233755 
L 420.872648 -125.412958 
L 420.474039 -124.592162 
L 420.053898 -123.771365 
L 419.612172 -122.950569 
L 419.14888 -122.129772 
L 418.664112 -121.308975 
L 418.158031 -120.488179 
L 417.630877 -119.667382 
L 417.082964 -118.846586 
L 416.514682 -118.025789 
L 415.926492 -117.204992 
L 415.318931 -116.384196 
L 414.692606 -115.563399 
L 414.048192 -114.742603 
L 413.38643 -113.921806 
L 412.708123 -113.101009 
L 412.014133 -112.280213 
L 411.305376 -111.459416 
L 410.582819 -110.63862 
L 409.84747 -109.817823 
L 409.100382 -108.997026 
L 408.342638 -108.17623 
L 407.575351 -107.355433 
L 406.799657 -106.534637 
L 406.016706 -105.71384 
L 405.227663 -104.893043 
L 404.433693 -104.072247 
L 403.635961 -103.25145 
L 402.835624 -102.430654 
L 402.033826 -101.609857 
L 401.23169 -100.789061 
L 400.430316 -99.968264 
L 399.63077 -99.147467 
L 398.834087 -98.326671 
L 398.041258 -97.505874 
L 397.25323 -96.685078 
L 396.470901 -95.864281 
L 395.695119 -95.043484 
L 394.926672 -94.222688 
L 394.166293 -93.401891 
L 393.414652 -92.581095 
L 392.672355 -91.760298 
L 391.939947 -90.939501 
L 391.217906 -90.118705 
L 390.506643 -89.297908 
L 389.806505 -88.477112 
L 389.117773 -87.656315 
L 388.440664 -86.835518 
L 387.775332 -86.014722 
L 387.121868 -85.193925 
L 386.480307 -84.373129 
L 385.850624 -83.552332 
L 385.232742 -82.731535 
L 384.626532 -81.910739 
L 384.031819 -81.089942 
L 383.448384 -80.269146 
L 382.875966 -79.448349 
L 382.314271 -78.627552 
L 381.762972 -77.806756 
L 381.221714 -76.985959 
L 380.690118 -76.165163 
L 380.167788 -75.344366 
L 379.654311 -74.523569 
L 379.149265 -73.702773 
L 378.652222 -72.881976 
L 378.162749 -72.06118 
L 377.680417 -71.240383 
L 377.204802 -70.419587 
L 376.735488 -69.59879 
L 376.27207 -68.777993 
L 375.814161 -67.957197 
L 375.361389 -67.1364 
L 374.913404 -66.315604 
L 374.46988 -65.494807 
L 374.030514 -64.67401 
L 373.595031 -63.853214 
L 373.163181 -63.032417 
L 372.734748 -62.211621 
L 372.309542 -61.390824 
L 371.887405 -60.570027 
L 371.468211 -59.749231 
L 371.051863 -58.928434 
L 370.638295 -58.107638 
L 370.227473 -57.286841 
L 369.819389 -56.466044 
L 369.414067 -55.645248 
L 369.011556 -54.824451 
L 368.611933 -54.003655 
L 368.215296 -53.182858 
L 367.821769 -52.362061 
L 367.431496 -51.541265 
L 367.04464 -50.720468 
L 366.66138 -49.899672 
L 366.281913 -49.078875 
L 365.906445 -48.258078 
L 365.535197 -47.437282 
L 365.168394 -46.616485 
L 364.806271 -45.795689 
L 364.449065 -44.974892 
L 364.097017 -44.154095 
L 363.750367 -43.333299 
L 363.409353 -42.512502 
L 363.074209 -41.691706 
L 362.745163 -40.870909 
z
"/>
    </defs>
    <g clip-path="url(#p07e85859fb)">
     <use xlink:href="#m962bcbc16c" x="0" y="324" style="fill: #56b4e9; fill-opacity: 0.45"/>
    </g>
   </g>
   <g id="PathCollection_2">
    <defs>
     <path id="C1_0_99c035309a" d="M 0 2.345208 
C 0.621956 2.345208 1.218523 2.098102 1.658312 1.658312 
C 2.098102 1.218523 2.345208 0.621956 2.345208 -0 
C 2.345208 -0.621956 2.098102 -1.218523 1.658312 -1.658312 
C 1.218523 -2.098102 0.621956 -2.345208 0 -2.345208 
C -0.621956 -2.345208 -1.218523 -2.098102 -1.658312 -1.658312 
C -2.098102 -1.218523 -2.345208 -0.621956 -2.345208 0 
C -2.345208 0.621956 -2.098102 1.218523 -1.658312 1.658312 
C -1.218523 2.098102 -0.621956 2.345208 0 2.345208 
z
"/>
    </defs>
    <g clip-path="url(#p07e85859fb)">
     <use xlink:href="#C1_0_99c035309a" x="304.30093" y="207.558298" style="fill: #56b4e9; fill-opacity: 0.78; stroke: #000000; stroke-opacity: 0.78; stroke-width: 0.3"/>
    </g>
    <g clip-path="url(#p07e85859fb)">
     <use xlink:href="#C1_0_99c035309a" x="334.762991" y="146.681693" style="fill: #56b4e9; fill-opacity: 0.78; stroke: #000000; stroke-opacity: 0.78; stroke-width: 0.3"/>
    </g>
    <g clip-path="url(#p07e85859fb)">
     <use xlink:href="#C1_0_99c035309a" x="297.273848" y="141.733373" style="fill: #56b4e9; fill-opacity: 0.78; stroke: #000000; stroke-opacity: 0.78; stroke-width: 0.3"/>
    </g>
    <g clip-path="url(#p07e85859fb)">
     <use xlink:href="#C1_0_99c035309a" x="310.188277" y="161.348182" style="fill: #cc79a7; fill-opacity: 0.78; stroke: #000000; stroke-opacity: 0.78; stroke-width: 0.3"/>
    </g>
    <g clip-path="url(#p07e85859fb)">
     <use xlink:href="#C1_0_99c035309a" x="291.094331" y="180.625134" style="fill: #56b4e9; fill-opacity: 0.78; stroke: #000000; stroke-opacity: 0.78; stroke-width: 0.3"/>
    </g>
    <g clip-path="url(#p07e85859fb)">
     <use xlink:href="#C1_0_99c035309a" x="284.492622" y="183.908647" style="fill: #cc79a7; fill-opacity: 0.78; stroke: #000000; stroke-opacity: 0.78; stroke-width: 0.3"/>
    </g>
    <g clip-path="url(#p07e85859fb)">
     <use xlink:href="#C1_0_99c035309a" x="307.588458" y="208.574371" style="fill: #56b4e9; fill-opacity: 0.78; stroke: #000000; stroke-opacity: 0.78; stroke-width: 0.3"/>
    </g>
    <g clip-path="url(#p07e85859fb)">
     <use xlink:href="#C1_0_99c035309a" x="311.17568" y="128.293674" style="fill: #56b4e9; fill-opacity: 0.78; stroke: #000000; stroke-opacity: 0.78; stroke-width: 0.3"/>
    </g>
    <g clip-path="url(#p07e85859fb)">
     <use xlink:href="#C1_0_99c035309a" x="306.210514" y="86.074104" style="fill: #009e73; fill-opacity: 0.78; stroke: #000000; stroke-opacity: 0.78; stroke-width: 0.3"/>
    </g>
    <g clip-path="url(#p07e85859fb)">
     <use xlink:href="#C1_0_99c035309a" x="290.508054" y="246.672162" style="fill: #009e73; fill-opacity: 0.78; stroke: #000000; stroke-opacity: 0.78; stroke-width: 0.3"/>
    </g>
    <g clip-path="url(#p07e85859fb)">
     <use xlink:href="#C1_0_99c035309a" x="311.37974" y="229.863112" style="fill: #009e73; fill-opacity: 0.78; stroke: #000000; stroke-opacity: 0.78; stroke-width: 0.3"/>
    </g>
    <g clip-path="url(#p07e85859fb)">
     <use xlink:href="#C1_0_99c035309a" x="328.612164" y="190.189312" style="fill: #009e73; fill-opacity: 0.78; stroke: #000000; stroke-opacity: 0.78; stroke-width: 0.3"/>
    </g>
    <g clip-path="url(#p07e85859fb)">
     <use xlink:href="#C1_0_99c035309a" x="303.490601" y="207.498032" style="fill: #009e73; fill-opacity: 0.78; stroke: #000000; stroke-opacity: 0.78; stroke-width: 0.3"/>
    </g>
    <g clip-path="url(#p07e85859fb)">
     <use xlink:href="#C1_0_99c035309a" x="288.427451" y="150.474836" style="fill: #009e73; fill-opacity: 0.78; stroke: #000000; stroke-opacity: 0.78; stroke-width: 0.3"/>
    </g>
    <g clip-path="url(#p07e85859fb)">
     <use xlink:href="#C1_0_99c035309a" x="313.516238" y="174.327452" style="fill: #009e73; fill-opacity: 0.78; stroke: #000000; stroke-opacity: 0.78; stroke-width: 0.3"/>
    </g>
    <g clip-path="url(#p07e85859fb)">
     <use xlink:href="#C1_0_99c035309a" x="309.907264" y="227.667318" style="fill: #009e73; fill-opacity: 0.78; stroke: #000000; stroke-opacity: 0.78; stroke-width: 0.3"/>
    </g>
    <g clip-path="url(#p07e85859fb)">
     <use xlink:href="#C1_0_99c035309a" x="311.54521" y="163.984092" style="fill: #009e73; fill-opacity: 0.78; stroke: #000000; stroke-opacity: 0.78; stroke-width: 0.3"/>
    </g>
    <g clip-path="url(#p07e85859fb)">
     <use xlink:href="#C1_0_99c035309a" x="291.095396" y="116.422787" style="fill: #009e73; fill-opacity: 0.78; stroke: #000000; stroke-opacity: 0.78; stroke-width: 0.3"/>
    </g>
    <g clip-path="url(#p07e85859fb)">
     <use xlink:href="#C1_0_99c035309a" x="327.765153" y="167.979243" style="fill: #009e73; fill-opacity: 0.78; stroke: #000000; stroke-opacity: 0.78; stroke-width: 0.3"/>
    </g>
    <g clip-path="url(#p07e85859fb)">
     <use xlink:href="#C1_0_99c035309a" x="311.848209" y="142.054097" style="fill: #009e73; fill-opacity: 0.78; stroke: #000000; stroke-opacity: 0.78; stroke-width: 0.3"/>
    </g>
    <g clip-path="url(#p07e85859fb)">
     <use xlink:href="#C1_0_99c035309a" x="332.591777" y="186.519888" style="fill: #009e73; fill-opacity: 0.78; stroke: #000000; stroke-opacity: 0.78; stroke-width: 0.3"/>
    </g>
    <g clip-path="url(#p07e85859fb)">
     <use xlink:href="#C1_0_99c035309a" x="319.228274" y="205.383887" style="fill: #009e73; fill-opacity: 0.78; stroke: #000000; stroke-opacity: 0.78; stroke-width: 0.3"/>
    </g>
    <g clip-path="url(#p07e85859fb)">
     <use xlink:href="#C1_0_99c035309a" x="303.537462" y="157.51152" style="fill: #009e73; fill-opacity: 0.78; stroke: #000000; stroke-opacity: 0.78; stroke-width: 0.3"/>
    </g>
    <g clip-path="url(#p07e85859fb)">
     <use xlink:href="#C1_0_99c035309a" x="332.08459" y="214.06637" style="fill: #009e73; fill-opacity: 0.78; stroke: #000000; stroke-opacity: 0.78; stroke-width: 0.3"/>
    </g>
    <g clip-path="url(#p07e85859fb)">
     <use xlink:href="#C1_0_99c035309a" x="290.466912" y="221.094097" style="fill: #009e73; fill-opacity: 0.78; stroke: #000000; stroke-opacity: 0.78; stroke-width: 0.3"/>
    </g>
    <g clip-path="url(#p07e85859fb)">
     <use xlink:href="#C1_0_99c035309a" x="296.133214" y="197.821779" style="fill: #009e73; fill-opacity: 0.78; stroke: #000000; stroke-opacity: 0.78; stroke-width: 0.3"/>
    </g>
    <g clip-path="url(#p07e85859fb)">
     <use xlink:href="#C1_0_99c035309a" x="329.843597" y="190.47977" style="fill: #009e73; fill-opacity: 0.78; stroke: #000000; stroke-opacity: 0.78; stroke-width: 0.3"/>
    </g>
    <g clip-path="url(#p07e85859fb)">
     <use xlink:href="#C1_0_99c035309a" x="311.092767" y="248.528284" style="fill: #009e73; fill-opacity: 0.78; stroke: #000000; stroke-opacity: 0.78; stroke-width: 0.3"/>
    </g>
    <g clip-path="url(#p07e85859fb)">
     <use xlink:href="#C1_0_99c035309a" x="290.131144" y="128.04577" style="fill: #009e73; fill-opacity: 0.78; stroke: #000000; stroke-opacity: 0.78; stroke-width: 0.3"/>
    </g>
    <g clip-path="url(#p07e85859fb)">
     <use xlink:href="#C1_0_99c035309a" x="331.217371" y="259.211985" style="fill: #009e73; fill-opacity: 0.78; stroke: #000000; stroke-opacity: 0.78; stroke-width: 0.3"/>
    </g>
    <g clip-path="url(#p07e85859fb)">
     <use xlink:href="#C1_0_99c035309a" x="295.139552" y="271.973719" style="fill: #009e73; fill-opacity: 0.78; stroke: #000000; stroke-opacity: 0.78; stroke-width: 0.3"/>
    </g>
    <g clip-path="url(#p07e85859fb)">
     <use xlink:href="#C1_0_99c035309a" x="296.112705" y="188.769016" style="fill: #e69f00; fill-opacity: 0.78; stroke: #000000; stroke-opacity: 0.78; stroke-width: 0.3"/>
    </g>
    <g clip-path="url(#p07e85859fb)">
     <use xlink:href="#C1_0_99c035309a" x="299.123648" y="161.356843" style="fill: #009e73; fill-opacity: 0.78; stroke: #000000; stroke-opacity: 0.78; stroke-width: 0.3"/>
    </g>
    <g clip-path="url(#p07e85859fb)">
     <use xlink:href="#C1_0_99c035309a" x="326.530542" y="145.247599" style="fill: #009e73; fill-opacity: 0.78; stroke: #000000; stroke-opacity: 0.78; stroke-width: 0.3"/>
    </g>
    <g clip-path="url(#p07e85859fb)">
     <use xlink:href="#C1_0_99c035309a" x="308.84052" y="48.866281" style="fill: #009e73; fill-opacity: 0.78; stroke: #000000; stroke-opacity: 0.78; stroke-width: 0.3"/>
    </g>
    <g clip-path="url(#p07e85859fb)">
     <use xlink:href="#C1_0_99c035309a" x="332.785559" y="160.599567" style="fill: #009e73; fill-opacity: 0.78; stroke: #000000; stroke-opacity: 0.78; stroke-width: 0.3"/>
    </g>
    <g clip-path="url(#p07e85859fb)">
     <use xlink:href="#C1_0_99c035309a" x="331.869893" y="183.749485" style="fill: #009e73; fill-opacity: 0.78; stroke: #000000; stroke-opacity: 0.78; stroke-width: 0.3"/>
    </g>
    <g clip-path="url(#p07e85859fb)">
     <use xlink:href="#C1_0_99c035309a" x="297.028654" y="142.49848" style="fill: #009e73; fill-opacity: 0.78; stroke: #000000; stroke-opacity: 0.78; stroke-width: 0.3"/>
    </g>
    <g clip-path="url(#p07e85859fb)">
     <use xlink:href="#C1_0_99c035309a" x="301.687914" y="210.300954" style="fill: #009e73; fill-opacity: 0.78; stroke: #000000; stroke-opacity: 0.78; stroke-width: 0.3"/>
    </g>
    <g clip-path="url(#p07e85859fb)">
     <use xlink:href="#C1_0_99c035309a" x="293.705508" y="200.39978" style="fill: #009e73; fill-opacity: 0.78; stroke: #000000; stroke-opacity: 0.78; stroke-width: 0.3"/>
    </g>
    <g clip-path="url(#p07e85859fb)">
     <use xlink:href="#C1_0_99c035309a" x="282.850909" y="153.967409" style="fill: #009e73; fill-opacity: 0.78; stroke: #000000; stroke-opacity: 0.78; stroke-width: 0.3"/>
    </g>
   </g>
   <g id="matplotlib.axis_1">
    <g id="xtick_1">
     <g id="line2d_1">
      <defs>
       <path id="ma1881e501f" d="M 0 0 
L 0 3.5 
" style="stroke: #000000; stroke-width: 0.8"/>
      </defs>
      <g>
       <use xlink:href="#ma1881e501f" x="150.391667" y="295.4" style="stroke: #000000; stroke-width: 0.8"/>
      </g>
     </g>
     <g id="text_1">
      <text style="font-size: 11px; font-family: 'DejaVu Sans', 'Bitstream Vera Sans', 'Computer Modern Sans Serif', 'Lucida Grande', 'Verdana', 'Geneva', 'Lucid', 'Arial', 'Helvetica', 'Avant Garde', sans-serif; text-anchor: middle" x="150.391667" y="310.758281" transform="rotate(-0 150.391667 310.758281)">Violent uprisings</text>
     </g>
    </g>
    <g id="xtick_2">
     <g id="line2d_2">
      <g>
       <use xlink:href="#ma1881e501f" x="345.115" y="295.4" style="stroke: #000000; stroke-width: 0.8"/>
      </g>
     </g>
     <g id="text_2">
      <text style="font-size: 11px; font-family: 'DejaVu Sans', 'Bitstream Vera Sans', 'Computer Modern Sans Serif', 'Lucida Grande', 'Verdana', 'Geneva', 'Lucid', 'Arial', 'Helvetica', 'Avant Garde', sans-serif; text-anchor: middle" x="345.115" y="310.758281" transform="rotate(-0 345.115 310.758281)">Peaceful gatherings</text>
     </g>
    </g>
   </g>
   <g id="matplotlib.axis_2">
    <g id="ytick_1">
     <g id="line2d_3">
      <defs>
       <path id="mcbf30ddc11" d="M 0 0 
L -3.5 0 
" style="stroke: #000000; stroke-width: 0.8"/>
      </defs>
      <g>
       <use xlink:href="#mcbf30ddc11" x="53.03" y="269.972812" style="stroke: #000000; stroke-width: 0.8"/>
      </g>
     </g>
     <g id="text_3">
      <text style="font-size: 10px; font-family: 'DejaVu Sans', 'Bitstream Vera Sans', 'Computer Modern Sans Serif', 'Lucida Grande', 'Verdana', 'Geneva', 'Lucid', 'Arial', 'Helvetica', 'Avant Garde', sans-serif; text-anchor: end" x="46.03" y="273.77203" transform="rotate(-0 46.03 273.77203)">−10</text>
     </g>
    </g>
    <g id="ytick_2">
     <g id="line2d_4">
      <g>
       <use xlink:href="#mcbf30ddc11" x="53.03" y="221.506391" style="stroke: #000000; stroke-width: 0.8"/>
      </g>
     </g>
     <g id="text_4">
      <text style="font-size: 10px; font-family: 'DejaVu Sans', 'Bitstream Vera Sans', 'Computer Modern Sans Serif', 'Lucida Grande', 'Verdana', 'Geneva', 'Lucid', 'Arial', 'Helvetica', 'Avant Garde', sans-serif; text-anchor: end" x="46.03" y="225.305609" transform="rotate(-0 46.03 225.305609)">−5</text>
     </g>
    </g>
    <g id="ytick_3">
     <g id="line2d_5">
      <g>
       <use xlink:href="#mcbf30ddc11" x="53.03" y="173.03997" style="stroke: #000000; stroke-width: 0.8"/>
      </g>
     </g>
     <g id="text_5">
      <text style="font-size: 10px; font-family: 'DejaVu Sans', 'Bitstream Vera Sans', 'Computer Modern Sans Serif', 'Lucida Grande', 'Verdana', 'Geneva', 'Lucid', 'Arial', 'Helvetica', 'Avant Garde', sans-serif; text-anchor: end" x="46.03" y="176.839188" transform="rotate(-0 46.03 176.839188)">0</text>
     </g>
    </g>
    <g id="ytick_4">
     <g id="line2d_6">
      <g>
       <use xlink:href="#mcbf30ddc11" x="53.03" y="124.573548" style="stroke: #000000; stroke-width: 0.8"/>
      </g>
     </g>
     <g id="text_6">
      <text style="font-size: 10px; font-family: 'DejaVu Sans', 'Bitstream Vera Sans', 'Computer Modern Sans Serif', 'Lucida Grande', 'Verdana', 'Geneva', 'Lucid', 'Arial', 'Helvetica', 'Avant Garde', sans-serif; text-anchor: end" x="46.03" y="128.372767" transform="rotate(-0 46.03 128.372767)">5</text>
     </g>
    </g>
    <g id="ytick_5">
     <g id="line2d_7">
      <g>
       <use xlink:href="#mcbf30ddc11" x="53.03" y="76.107127" style="stroke: #000000; stroke-width: 0.8"/>
      </g>
     </g>
     <g id="text_7">
      <text style="font-size: 10px; font-family: 'DejaVu Sans', 'Bitstream Vera Sans', 'Computer Modern Sans Serif', 'Lucida Grande', 'Verdana', 'Geneva', 'Lucid', 'Arial', 'Helvetica', 'Avant Garde', sans-serif; text-anchor: end" x="46.03" y="79.906346" transform="rotate(-0 46.03 79.906346)">10</text>
     </g>
    </g>
    <g id="ytick_6">
     <g id="line2d_8">
      <g>
       <use xlink:href="#mcbf30ddc11" x="53.03" y="27.640706" style="stroke: #000000; stroke-width: 0.8"/>
      </g>
     </g>
     <g id="text_8">
      <text style="font-size: 10px; font-family: 'DejaVu Sans', 'Bitstream Vera Sans', 'Computer Modern Sans Serif', 'Lucida Grande', 'Verdana', 'Geneva', 'Lucid', 'Arial', 'Helvetica', 'Avant Garde', sans-serif; text-anchor: end" x="46.03" y="31.439925" transform="rotate(-0 46.03 31.439925)">15</text>
     </g>
    </g>
    <g id="text_9">
     <text style="font-size: 10px; font-family: 'DejaVu Sans', 'Bitstream Vera Sans', 'Computer Modern Sans Serif', 'Lucida Grande', 'Verdana', 'Geneva', 'Lucid', 'Arial', 'Helvetica', 'Avant Garde', sans-serif; text-anchor: middle" x="18.845625" y="160.42" transform="rotate(-90 18.845625 160.42)">Event-day anomaly vs local same-month baseline (°C)</text>
    </g>
   </g>
   <g id="line2d_9">
    <path d="M 162.653936 250.649172 
L 163.74306 246.594819 
L 165.08727 242.540466 
L 166.68974 238.486113 
L 168.547592 234.431761 
L 170.651719 230.377408 
L 172.985205 226.323055 
L 175.966359 221.592977 
L 179.202242 216.862899 
L 182.20578 212.808546 
L 184.943259 209.429919 
L 187.35919 206.727017 
L 190.048703 204.024115 
L 193.080715 201.321213 
L 196.508858 198.618311 
L 200.352091 195.91541 
L 204.576182 193.212508 
L 211.38783 189.158155 
L 219.269674 184.428077 
L 222.308931 182.4009 
L 224.980016 180.373724 
L 226.504322 179.022273 
L 227.792108 177.670822 
L 228.821624 176.319371 
L 229.576585 174.96792 
L 230.046746 173.616469 
L 230.228233 172.265018 
L 230.123629 170.913568 
L 229.741793 169.562117 
L 229.097456 168.210666 
L 228.210595 166.859215 
L 227.105642 165.507764 
L 225.101168 163.480588 
L 222.773393 161.453411 
L 218.469862 158.074784 
L 211.492462 152.66898 
L 208.336479 149.966078 
L 205.532896 147.263177 
L 203.101983 144.560275 
L 201.010663 141.857373 
L 199.186285 139.154471 
L 196.739693 135.100118 
L 193.096632 129.018589 
L 190.382438 124.964236 
L 187.393391 120.909884 
L 178.15643 108.746825 
L 175.95364 105.368198 
L 174.022224 101.989571 
L 172.366007 98.610944 
L 170.959022 95.232316 
L 169.535404 91.177964 
L 168.128312 86.447885 
L 166.558474 80.366356 
L 165.046693 73.609102 
L 163.929957 67.527573 
L 163.047365 61.446043 
L 162.019483 52.661612 
L 161.593505 48.60726 
L 161.593505 48.60726 
" clip-path="url(#p07e85859fb)" style="fill: none; stroke: #d55e00; stroke-width: 1.1; stroke-linecap: square"/>
   </g>
   <g id="patch_3">
    <path d="M 148.444433 181.120966 
L 160.127833 181.120966 
L 160.127833 140.420059 
L 148.444433 140.420059 
L 148.444433 181.120966 
z
" clip-path="url(#p07e85859fb)" style="fill: #ffffff; stroke: #000000; stroke-linejoin: miter"/>
   </g>
   <g id="line2d_10">
    <path d="M 154.286133 181.120966 
L 154.286133 241.465448 
" clip-path="url(#p07e85859fb)" style="fill: none; stroke: #000000; stroke-linecap: square"/>
   </g>
   <g id="line2d_11">
    <path d="M 154.286133 140.420059 
L 154.286133 83.991824 
" clip-path="url(#p07e85859fb)" style="fill: none; stroke: #000000; stroke-linecap: square"/>
   </g>
   <g id="line2d_12">
    <path d="M 151.365283 241.465448 
L 157.206983 241.465448 
" clip-path="url(#p07e85859fb)" style="fill: none; stroke: #000000; stroke-linecap: square"/>
   </g>
   <g id="line2d_13">
    <path d="M 151.365283 83.991824 
L 157.206983 83.991824 
" clip-path="url(#p07e85859fb)" style="fill: none; stroke: #000000; stroke-linecap: square"/>
   </g>
   <g id="LineCollection_1">
    <path d="M 72.502333 162.832547 
L 232.175467 162.832547 
" clip-path="url(#p07e85859fb)" style="fill: none; stroke-dasharray: 1.2,1.98; stroke-dashoffset: 0; stroke: #d55e00; stroke-width: 1.2"/>
   </g>
   <g id="line2d_14">
    <path d="M 362.745163 283.129091 
L 364.806271 278.204311 
L 367.821769 271.637939 
L 371.468211 264.250769 
L 375.361389 256.8636 
L 378.652222 251.118024 
L 381.762972 246.193244 
L 384.626532 242.089261 
L 387.775332 237.985278 
L 391.217906 233.881295 
L 395.695119 228.956516 
L 402.033826 222.390143 
L 409.100382 215.002974 
L 412.708123 210.898991 
L 415.318931 207.615804 
L 417.630877 204.332618 
L 419.612172 201.049431 
L 420.872648 198.587042 
L 421.940811 196.124652 
L 422.823225 193.662262 
L 423.729997 190.379076 
L 424.359458 187.095889 
L 424.748287 183.812703 
L 424.930096 180.529517 
L 424.902614 176.425534 
L 424.607286 172.321551 
L 424.165622 169.038364 
L 423.512688 165.755178 
L 422.610049 162.471991 
L 421.742859 160.009602 
L 420.692262 157.547212 
L 419.442132 155.084822 
L 417.980078 152.622432 
L 416.298821 150.160043 
L 414.397231 147.697653 
L 411.529836 144.414466 
L 408.314315 141.13128 
L 404.804076 137.848094 
L 399.144407 132.923314 
L 384.700824 120.611365 
L 380.35266 116.507382 
L 377.184263 113.224196 
L 374.330563 109.941009 
L 371.809624 106.657823 
L 369.623789 103.374637 
L 367.761871 100.09145 
L 366.20206 96.808264 
L 364.9152 93.525078 
L 363.868068 90.241891 
L 363.026301 86.958705 
L 362.212544 82.854722 
L 361.509147 77.929942 
L 360.957441 72.184366 
L 360.501381 64.797197 
L 359.57595 48.381265 
L 358.900445 40.994095 
L 358.539593 37.710909 
L 358.539593 37.710909 
" clip-path="url(#p07e85859fb)" style="fill: none; stroke: #56b4e9; stroke-width: 1.1; stroke-linecap: square"/>
   </g>
   <g id="patch_4">
    <path d="M 343.167767 207.558298 
L 354.851167 207.558298 
L 354.851167 150.474836 
L 343.167767 150.474836 
L 343.167767 207.558298 
z
" clip-path="url(#p07e85859fb)" style="fill: #ffffff; stroke: #000000; stroke-linejoin: miter"/>
   </g>
   <g id="line2d_15">
    <path d="M 349.009467 207.558298 
L 349.009467 271.973719 
" clip-path="url(#p07e85859fb)" style="fill: none; stroke: #000000; stroke-linecap: square"/>
   </g>
   <g id="line2d_16">
    <path d="M 349.009467 150.474836 
L 349.009467 86.074104 
" clip-path="url(#p07e85859fb)" style="fill: none; stroke: #000000; stroke-linecap: square"/>
   </g>
   <g id="line2d_17">
    <path d="M 346.088617 271.973719 
L 351.930317 271.973719 
" clip-path="url(#p07e85859fb)" style="fill: none; stroke: #000000; stroke-linecap: square"/>
   </g>
   <g id="line2d_18">
    <path d="M 346.088617 86.074104 
L 351.930317 86.074104 
" clip-path="url(#p07e85859fb)" style="fill: none; stroke: #000000; stroke-linecap: square"/>
   </g>
   <g id="LineCollection_2">
    <path d="M 267.225667 178.983473 
L 426.8988 178.983473 
" clip-path="url(#p07e85859fb)" style="fill: none; stroke-dasharray: 1.2,1.98; stroke-dashoffset: 0; stroke: #56b4e9; stroke-width: 1.2"/>
   </g>
   <g id="line2d_19">
    <path d="M 53.03 173.03997 
L 637.2 173.03997 
" clip-path="url(#p07e85859fb)" style="fill: none; stroke-dasharray: 2.96,1.28; stroke-dashoffset: 0; stroke: #000000; stroke-opacity: 0.55; stroke-width: 0.8"/>
   </g>
   <g id="line2d_20">
    <path d="M 148.444433 167.515421 
L 160.127833 167.515421 
" clip-path="url(#p07e85859fb)" style="fill: none; stroke: #d55e00; stroke-width: 1.5"/>
   </g>
   <g id="line2d_21">
    <path d="M 343.167767 183.749485 
L 354.851167 183.749485 
" clip-path="url(#p07e85859fb)" style="fill: none; stroke: #d55e00; stroke-width: 1.5"/>
   </g>
   <g id="patch_5">
    <path d="M 53.03 295.4 
L 53.03 25.44 
" style="fill: none; stroke: #000000; stroke-width: 0.8; stroke-linejoin: miter; stroke-linecap: square"/>
   </g>
   <g id="patch_6">
    <path d="M 637.2 295.4 
L 637.2 25.44 
" style="fill: none; stroke: #000000; stroke-width: 0.8; stroke-linejoin: miter; stroke-linecap: square"/>
   </g>
   <g id="patch_7">
    <path d="M 53.03 295.4 
L 637.2 295.4 
" style="fill: none; stroke: #000000; stroke-width: 0.8; stroke-linejoin: miter; stroke-linecap: square"/>
   </g>
   <g id="patch_8">
    <path d="M 53.03 25.44 
L 637.2 25.44 
" style="fill: none; stroke: #000000; stroke-width: 0.8; stroke-linejoin: miter; stroke-linecap: square"/>
   </g>
   <g id="text_10">
    <text style="font-size: 8.5px; font-family: 'DejaVu Sans', 'Bitstream Vera Sans', 'Computer Modern Sans Serif', 'Lucida Grande', 'Verdana', 'Geneva', 'Lucid', 'Arial', 'Helvetica', 'Avant Garde', sans-serif; text-anchor: start; fill: #d55e00" x="238.017167" y="165.178016" transform="rotate(-0 238.017167 165.178016)">mean +1.05 °C  (n=104)</text>
   </g>
   <g id="text_11">
    <text style="font-size: 8.5px; font-family: 'DejaVu Sans', 'Bitstream Vera Sans', 'Computer Modern Sans Serif', 'Lucida Grande', 'Verdana', 'Geneva', 'Lucid', 'Arial', 'Helvetica', 'Avant Garde', sans-serif; text-anchor: start; fill: #56b4e9" x="432.7405" y="181.328942" transform="rotate(-0 432.7405 181.328942)">mean -0.61 °C  (n=41)</text>
   </g>
   <g id="text_12">
    <g id="patch_9">
     <path d="M 376.617284 293.9958 
L 635.3533 293.9958 
L 635.3533 258.589581 
L 376.617284 258.589581 
z
" style="fill: #ffffff; opacity: 0.92; stroke: #808080; stroke-linejoin: miter"/>
    </g>
    <text style="font-size: 8.5px; font-family: 'DejaVu Sans Mono', 'Bitstream Vera Sans Mono', 'Computer Modern Typewriter', 'Andale Mono', 'Nimbus Mono L', 'Courier New', 'Courier', 'Fixed', 'Terminal', monospace" transform="translate(477.840331 269.088409)">H2 case-crossover OR per +1 °C</text>
    <text style="font-size: 8.5px; font-family: 'DejaVu Sans Mono', 'Bitstream Vera Sans Mono', 'Computer Modern Typewriter', 'Andale Mono', 'Nimbus Mono L', 'Courier New', 'Courier', 'Fixed', 'Terminal', monospace" transform="translate(380.612284 278.660737)">  Violent:  1.089  (CI 1.029–1.152), p = 0.001553</text>
    <text style="font-size: 8.5px; font-family: 'DejaVu Sans Mono', 'Bitstream Vera Sans Mono', 'Computer Modern Typewriter', 'Andale Mono', 'Nimbus Mono L', 'Courier New', 'Courier', 'Fixed', 'Terminal', monospace" transform="translate(390.846816 288.233066)">  Peaceful: 0.961  (CI 0.884–1.044), p = 0.8268</text>
   </g>
   <g id="text_13">
    <text style="font-size: 12px; font-family: 'DejaVu Sans', 'Bitstream Vera Sans', 'Computer Modern Sans Serif', 'Lucida Grande', 'Verdana', 'Geneva', 'Lucid', 'Arial', 'Helvetica', 'Avant Garde', sans-serif; text-anchor: middle" x="345.115" y="19.44" transform="rotate(-0 345.115 19.44)">Outdoor-opportunity control: violent uprisings vs peaceful gatherings</text>
   </g>
   <g id="legend_1">
    <g id="patch_10">
     <path d="M 58.63 103.891406 
L 161.08625 103.891406 
Q 162.68625 103.891406 162.68625 102.291406 
L 162.68625 31.04 
Q 162.68625 29.44 161.08625 29.44 
L 58.63 29.44 
Q 57.03 29.44 57.03 31.04 
L 57.03 102.291406 
Q 57.03 103.891406 58.63 103.891406 
z
" style="fill: #ffffff; opacity: 0.92; stroke: #cccccc; stroke-linejoin: miter"/>
    </g>
    <g id="text_14">
     <text style="font-size: 8.5px; font-family: 'DejaVu Sans', 'Bitstream Vera Sans', 'Computer Modern Sans Serif', 'Lucida Grande', 'Verdana', 'Geneva', 'Lucid', 'Arial', 'Helvetica', 'Avant Garde', sans-serif; text-anchor: start" x="86.70293" y="39.098672" transform="rotate(-0 86.70293 39.098672)">Source tier</text>
    </g>
    <g id="patch_11">
     <path d="M 60.23 50.945156 
L 76.23 50.945156 
L 76.23 45.345156 
L 60.23 45.345156 
z
" style="fill: #009e73; stroke: #000000; stroke-width: 0.4; stroke-linejoin: miter"/>
    </g>
    <g id="text_15">
     <text style="font-size: 8px; font-family: 'DejaVu Sans', 'Bitstream Vera Sans', 'Computer Modern Sans Serif', 'Lucida Grande', 'Verdana', 'Geneva', 'Lucid', 'Arial', 'Helvetica', 'Avant Garde', sans-serif; text-anchor: start" x="82.63" y="50.945156" transform="rotate(-0 82.63 50.945156)">tier1_ghcn</text>
    </g>
    <g id="patch_12">
     <path d="M 60.23 62.910156 
L 76.23 62.910156 
L 76.23 57.310156 
L 60.23 57.310156 
z
" style="fill: #56b4e9; stroke: #000000; stroke-width: 0.4; stroke-linejoin: miter"/>
    </g>
    <g id="text_16">
     <text style="font-size: 8px; font-family: 'DejaVu Sans', 'Bitstream Vera Sans', 'Computer Modern Sans Serif', 'Lucida Grande', 'Verdana', 'Geneva', 'Lucid', 'Arial', 'Helvetica', 'Avant Garde', sans-serif; text-anchor: start" x="82.63" y="62.910156" transform="rotate(-0 82.63 62.910156)">tier2_hadcet_max</text>
    </g>
    <g id="patch_13">
     <path d="M 60.23 74.875156 
L 76.23 74.875156 
L 76.23 69.275156 
L 60.23 69.275156 
z
" style="fill: #56b4e9; stroke: #000000; stroke-width: 0.4; stroke-linejoin: miter"/>
    </g>
    <g id="text_17">
     <text style="font-size: 8px; font-family: 'DejaVu Sans', 'Bitstream Vera Sans', 'Computer Modern Sans Serif', 'Lucida Grande', 'Verdana', 'Geneva', 'Lucid', 'Arial', 'Helvetica', 'Avant Garde', sans-serif; text-anchor: start" x="82.63" y="74.875156" transform="rotate(-0 82.63 74.875156)">tier2_hadcet_mean</text>
    </g>
    <g id="patch_14">
     <path d="M 60.23 86.840156 
L 76.23 86.840156 
L 76.23 81.240156 
L 60.23 81.240156 
z
" style="fill: #e69f00; stroke: #000000; stroke-width: 0.4; stroke-linejoin: miter"/>
    </g>
    <g id="text_18">
     <text style="font-size: 8px; font-family: 'DejaVu Sans', 'Bitstream Vera Sans', 'Computer Modern Sans Serif', 'Lucida Grande', 'Verdana', 'Geneva', 'Lucid', 'Arial', 'Helvetica', 'Avant Garde', sans-serif; text-anchor: start" x="82.63" y="86.840156" transform="rotate(-0 82.63 86.840156)">tier3_era5</text>
    </g>
    <g id="patch_15">
     <path d="M 60.23 98.805156 
L 76.23 98.805156 
L 76.23 93.205156 
L 60.23 93.205156 
z
" style="fill: #cc79a7; stroke: #000000; stroke-width: 0.4; stroke-linejoin: miter"/>
    </g>
    <g id="text_19">
     <text style="font-size: 8px; font-family: 'DejaVu Sans', 'Bitstream Vera Sans', 'Computer Modern Sans Serif', 'Lucida Grande', 'Verdana', 'Geneva', 'Lucid', 'Arial', 'Helvetica', 'Avant Garde', sans-serif; text-anchor: start" x="82.63" y="98.805156" transform="rotate(-0 82.63 98.805156)">tier4_20crv3</text>
    </g>
   </g>
  </g>
 </g>
 <defs>
  <clipPath id="p07e85859fb">
   <rect x="53.03" y="25.44" width="584.17" height="269.96"/>
  </clipPath>
 </defs>
</svg>
